{
.appVersion = "1230";
copyright = "Copyright 2019 The Tomorrow Project Authors (https://github.com/googlefonts/Tomorrow)";
customParameters = (
{
name = panose;
value = (
0,
0,
6,
0,
0,
0,
0,
0,
0,
0
);
},
{
name = unicodeRanges;
value = (
0,
1,
2,
29
);
},
{
name = codePageRanges;
value = (
1252,
1250,
1257
);
},
{
name = blueScale;
value = 0.037;
},
{
name = glyphOrder;
value = (
.notdef,
CR,
space,
A,
Aacute,
Abreve,
uni1EAE,
uni1EB6,
uni1EB0,
uni1EB2,
uni1EB4,
Acircumflex,
uni1EA4,
uni1EAC,
uni1EA6,
uni1EA8,
uni1EAA,
uni0200,
Adieresis,
uni1EA0,
Agrave,
uni1EA2,
uni0202,
Amacron,
Aogonek,
Aring,
Aringacute,
Atilde,
AE,
AEacute,
B,
C,
Cacute,
Ccaron,
Ccedilla,
Ccircumflex,
Cdotaccent,
D,
uni01C4,
Eth,
Dcaron,
Dcroat,
uni01C5,
E,
Eacute,
Ebreve,
Ecaron,
Ecircumflex,
uni1EBE,
uni1EC6,
uni1EC0,
uni1EC2,
uni1EC4,
uni0204,
Edieresis,
Edotaccent,
uni1EB8,
Egrave,
uni1EBA,
uni0206,
Emacron,
Eogonek,
uni1EBC,
F,
G,
Gbreve,
Gcaron,
Gcircumflex,
uni0122,
Gdotaccent,
H,
Hbar,
Hcircumflex,
I,
Iacute,
Ibreve,
Icircumflex,
uni0208,
Idieresis,
Idotaccent,
uni1ECA,
Igrave,
uni1EC8,
uni020A,
Imacron,
Iogonek,
Itilde,
J,
Jcircumflex,
K,
uni0136,
L,
uni01C7,
Lacute,
Lcaron,
uni013B,
Ldot,
uni01C8,
Lslash,
M,
N,
uni01CA,
Nacute,
Ncaron,
uni0145,
Eng,
uni01CB,
Ntilde,
O,
Oacute,
Obreve,
Ocircumflex,
uni1ED0,
uni1ED8,
uni1ED2,
uni1ED4,
uni1ED6,
uni020C,
Odieresis,
uni022A,
uni0230,
uni1ECC,
Ograve,
uni1ECE,
Ohorn,
uni1EDA,
uni1EE2,
uni1EDC,
uni1EDE,
uni1EE0,
Ohungarumlaut,
uni020E,
Omacron,
uni01EA,
Oslash,
Oslashacute,
Otilde,
uni022C,
OE,
P,
Thorn,
Q,
R,
Racute,
Rcaron,
uni0156,
uni0210,
uni0212,
S,
Sacute,
Scaron,
Scedilla,
Scircumflex,
uni0218,
uni1E9E,
uni018F,
T,
Tbar,
Tcaron,
uni0162,
uni021A,
U,
Uacute,
Ubreve,
Ucircumflex,
uni0214,
Udieresis,
uni1EE4,
Ugrave,
uni1EE6,
Uhorn,
uni1EE8,
uni1EF0,
uni1EEA,
uni1EEC,
uni1EEE,
Uhungarumlaut,
uni0216,
Umacron,
Uogonek,
Uring,
Utilde,
V,
W,
Wacute,
Wcircumflex,
Wdieresis,
Wgrave,
X,
Y,
Yacute,
Ycircumflex,
Ydieresis,
uni1EF4,

glyphs = (
{
glyphname = .notdef;
lastChange = "2019-09-04 12:42:51 +0000";
layers = (
{
hints = (
{
horizontal = 1;
place = "{154, 93.5}";
type = Stem;
},
{
horizontal = 1;
place = "{350.87, 171.63}";
type = Stem;
},
{
place = "{86, 564.92}";
type = Stem;
}
);
layerId = "A9EE2906-FF39-4E72-95D8-9DA33406E6B9";
paths = (
{
closed = 1;
nodes = (
"196 62.75 LINE",
"203.94 107.75 LINE",
"256.09 154 LINE",
"499.22 154 LINE",
"534.14 108.87 LINE",
"526 62.75 LINE",
"636 62.75 LINE",
"650.92 147.37 LINE",
"568.45 247.5 LINE",
"218.7 247.5 LINE",
"100.92 147.37 LINE",
"86 62.75 LINE"
);
},
{
closed = 1;
nodes = (
"348.06 350.87 LINE",
"378.32 522.5 LINE",
"279.32 522.5 LINE",
"249.06 350.87 LINE"
);
},
{
closed = 1;
nodes = (
"573.56 350.87 LINE",
"603.82 522.5 LINE",
"504.82 522.5 LINE",
"474.56 350.87 LINE"
);
}
);
width = 693;
}
);
note = .notdef;
},
{
glyphname = A;
lastChange = "2019-09-04 12:42:51 +0000";
layers = (
{
hints = (
{
horizontal = 1;
place = "{179.25, 110}";
type = Stem;
},
{
horizontal = 1;
place = "{618.28, 118.72}";
type = Stem;
},
{
place = "{10, 666.5}";
type = Stem;
}
);
layerId = "A9EE2906-FF39-4E72-95D8-9DA33406E6B9";
paths = (
{
closed = 1;
nodes = (
"152 0 LINE",
"236.68 179.25 LINE",
"524.4 179.25 LINE",
"548.5 0 LINE",
"676.5 0 LINE",
"554.75 737 LINE",
"377.75 737 LINE",
"10 0 LINE"
);
},
{
closed = 1;
nodes = (
"444.1 618.3 LINE",
"465.37 618.25 LINE",
"509.61 289.25 LINE",
"288.65 289.25 LINE"
);
}
);
width = 687;
}
);
leftKerningGroup = A;
note = A;
rightKerningGroup = A;
unicode = 0041;
},
{
glyphname = Aacute;
lastChange = "2019-09-04 12:42:51 +0000";
layers = (
{
hints = (
{
horizontal = 1;
place = "{179.25, 110}";
type = Stem;
},
{
horizontal = 1;
place = "{618.28, 118.72}";
type = Stem;
},
{
horizontal = 1;
place = "{794.25, 154}";
type = Stem;
},
{
place = "{10, 698.5}";
type = Stem;
}
);
layerId = "A9EE2906-FF39-4E72-95D8-9DA33406E6B9";
paths = (
{
closed = 1;
nodes = (
"152 0 LINE",
"236.68 179.25 LINE",
"524.4 179.25 LINE",
"548.5 0 LINE",
"676.5 0 LINE",
"554.75 737 LINE",
"377.75 737 LINE",
"10 0 LINE"
);
},
{
closed = 1;
nodes = (
"444.1 618.3 LINE",
"465.37 618.25 LINE",
"509.61 289.25 LINE",
"288.65 289.25 LINE"
);
},
{
closed = 1;
nodes = (
"533.62 794.25 LINE",
"708.5 948.25 LINE",
"548.87 948.25 LINE",
"420.5 794.25 LINE"
);
}
);
width = 687;
}
);
leftKerningGroup = A;
note = Aacute;
rightKerningGroup = A;
unicode = 00C1;
},
{
glyphname = Abreve;
lastChange = "2019-09-04 12:42:51 +0000";
layers = (
{
hints = (
{
horizontal = 1;
place = "{179.25, 110}";
type = Stem;
},
{
horizontal = 1;
place = "{618.28, 118.72}";
type = Stem;
},
{
horizontal = 1;
place = "{794.21, 78.04}";
type = Stem;
},
{
place = "{10, 666.5}";
type = Stem;
},
{
horizontal = 1;
place = "{893.25, 44}";
type = Stem;
}
);
layerId = "A9EE2906-FF39-4E72-95D8-9DA33406E6B9";
paths = (
{
closed = 1;
nodes = (
"152 0 LINE",
"236.68 179.25 LINE",
"524.4 179.25 LINE",
"548.5 0 LINE",
"676.5 0 LINE",
"554.75 737 LINE",
"377.75 737 LINE",
"10 0 LINE"
);
},
{
closed = 1;
nodes = (
"444.1 618.3 LINE",
"465.37 618.25 LINE",
"509.61 289.25 LINE",
"288.65 289.25 LINE"
);
},
{
closed = 1;
nodes = (
"559.42 794.25 LINE",
"629.3 853.18 LINE",
"644.12 937.25 LINE",
"563.75 937.25 LINE",
"556 893.25 LINE",
"531.37 872.25 LINE",
"432.37 872.25 LINE",
"415.25 893.25 LINE",
"423 937.25 LINE",
"342.62 937.25 LINE",
"331.16 872.25 LINE",
"396.2 794.17 LINE"
);
}
);
width = 687;
}
);
leftKerningGroup = A;
note = Abreve;
rightKerningGroup = A;
unicode = 0102;
},
{
glyphname = uni1EAE;
lastChange = "2019-09-04 12:42:51 +0000";
layers = (
{
hints = (
{
horizontal = 1;
place = "{179.25, 110}";
type = Stem;
},
{
horizontal = 1;
place = "{618.28, 118.72}";
type = Stem;
},
{
horizontal = 1;
place = "{794.21, 78.04}";
type = Stem;
},
{
horizontal = 1;
place = "{967.62, 154}";
type = Stem;
},
{
place = "{10, 721.75}";
type = Stem;
},
{
horizontal = 1;
place = "{893.25, 44}";
type = Stem;
}
);
layerId = "A9EE2906-FF39-4E72-95D8-9DA33406E6B9";
paths = (
{
closed = 1;
nodes = (
"152 0 LINE",
"236.68 179.25 LINE",
"524.4 179.25 LINE",
"548.5 0 LINE",
"676.5 0 LINE",
"554.75 737 LINE",
"377.75 737 LINE",
"10 0 LINE"
);
},
{
closed = 1;
nodes = (
"444.1 618.3 LINE",
"465.37 618.25 LINE",
"509.61 289.25 LINE",
"288.65 289.25 LINE"
);
},
{
closed = 1;
nodes = (
"559.43 794.25 LINE",
"629.31 853.18 LINE",
"644.12 937.25 LINE",
"563.75 937.25 LINE",
"556 893.25 LINE",
"531.37 872.25 LINE",
"432.37 872.25 LINE",
"415.25 893.25 LINE",
"423 937.25 LINE",
"342.62 937.25 LINE",
"331.17 872.25 LINE",
"396.2 794.17 LINE"
);
},
{
closed = 1;
nodes = (
"556.87 967.62 LINE",
"731.75 1121.62 LINE",
"572.12 1121.62 LINE",
"443.75 967.62 LINE"
);
}
);
width = 687;
}
);
leftKerningGroup = A;
note = uni1EAE;
rightKerningGroup = A;
unicode = 1EAE;
},
{
glyphname = uni1EB6;
lastChange = "2019-09-04 12:42:51 +0000";
layers = (
{
hints = (
{
horizontal = 1;
place = "{-182.63, 125.38}";
type = Stem;
},
{
horizontal = 1;
place = "{179.25, 110}";
type = Stem;
},
{
horizontal = 1;
place = "{618.28, 118.72}";
type = Stem;
},
{
horizontal = 1;
place = "{794.21, 78.04}";
type = Stem;
},
{
place = "{10, 666.5}";
type = Stem;
},
{
horizontal = 1;
place = "{893.25, 44}";
type = Stem;
}
);
layerId = "A9EE2906-FF39-4E72-95D8-9DA33406E6B9";
paths = (
{
closed = 1;
nodes = (
"152 0 LINE",
"236.68 179.25 LINE",
"524.4 179.25 LINE",
"548.5 0 LINE",
"676.5 0 LINE",
"554.75 737 LINE",
"377.75 737 LINE",
"10 0 LINE"
);
},
{
closed = 1;
nodes = (
"385.82 -182.63 LINE",
"407.95 -57.25 LINE",
"286.95 -57.25 LINE",
"264.82 -182.63 LINE"
);
},
{
closed = 1;
nodes = (
"444.1 618.3 LINE",
"465.37 618.25 LINE",
"509.61 289.25 LINE",
"288.65 289.25 LINE"
);
},
{
closed = 1;
nodes = (
"559.42 794.25 LINE",
"629.3 853.18 LINE",
"644.12 937.25 LINE",
"563.75 937.25 LINE",
"556 893.25 LINE",
"531.37 872.25 LINE",
"432.37 872.25 LINE",
"415.25 893.25 LINE",
"423 937.25 LINE",
"342.62 937.25 LINE",
"331.16 872.25 LINE",
"396.2 794.17 LINE"
);
}
);
width = 687;
}
);
leftKerningGroup = A;
note = uni1EB6;
rightKerningGroup = A;
unicode = 1EB6;
},
{
glyphname = uni1EB0;
lastChange = "2019-09-04 12:42:51 +0000";
layers = (
{
hints = (
{
horizontal = 1;
place = "{179.25, 110}";
type = Stem;
},
{
horizontal = 1;
place = "{618.28, 118.72}";
type = Stem;
},
{
horizontal = 1;
place = "{794.21, 78.04}";
type = Stem;
},
{
horizontal = 1;
place = "{967.25, 154}";
type = Stem;
},
{
place = "{10, 666.5}";
type = Stem;
},
{
horizontal = 1;
place = "{893.25, 44}";
type = Stem;
}
);
layerId = "A9EE2906-FF39-4E72-95D8-9DA33406E6B9";
paths = (
{
closed = 1;
nodes = (
"152 0 LINE",
"236.68 179.25 LINE",
"524.4 179.25 LINE",
"548.5 0 LINE",
"676.5 0 LINE",
"554.75 737 LINE",
"377.75 737 LINE",
"10 0 LINE"
);
},
{
closed = 1;
nodes = (
"444.1 618.3 LINE",
"465.37 618.25 LINE",
"509.61 289.25 LINE",
"288.65 289.25 LINE"
);
},
{
closed = 1;
nodes = (
"559.42 794.25 LINE",
"629.3 853.18 LINE",
"644.12 937.25 LINE",
"563.75 937.25 LINE",
"556 893.25 LINE",
"531.37 872.25 LINE",
"432.37 872.25 LINE",
"415.25 893.25 LINE",
"423 937.25 LINE",
"342.62 937.25 LINE",
"331.16 872.25 LINE",
"396.2 794.17 LINE"
);
},
{
closed = 1;
nodes = (
"540.6 967.25 LINE",
"466.63 1121.25 LINE",
"323.85 1121.25 LINE",
"442.85 967.25 LINE"
);
}
);
width = 687;
}
);
leftKerningGroup = A;
note = uni1EB0;
rightKerningGroup = A;
unicode = 1EB0;
},
{
glyphname = uni1EB2;
lastChange = "2019-09-04 12:42:51 +0000";
layers = (
{
hints = (
{
horizontal = 1;
place = "{179.25, 110}";
type = Stem;
},
{
horizontal = 1;
place = "{618.28, 118.72}";
type = Stem;
},
{
horizontal = 1;
place = "{794.21, 78.04}";
type = Stem;
},
{
horizontal = 1;
place = "{1112.37, 71}";
type = Stem;
},
{
place = "{10, 666.5}";
type = Stem;
},
{
horizontal = 1;
place = "{893.25, 44}";
type = Stem;
}
);
layerId = "A9EE2906-FF39-4E72-95D8-9DA33406E6B9";
paths = (
{
closed = 1;
nodes = (
"152 0 LINE",
"236.68 179.25 LINE",
"524.4 179.25 LINE",
"548.5 0 LINE",
"676.5 0 LINE",
"554.75 737 LINE",
"377.75 737 LINE",
"10 0 LINE"
);
},
{
closed = 1;
nodes = (
"444.1 618.3 LINE",
"465.37 618.25 LINE",
"509.61 289.25 LINE",
"288.65 289.25 LINE"
);
},
{
closed = 1;
nodes = (
"559.42 794.25 LINE",
"629.3 853.18 LINE",
"644.12 937.25 LINE",
"563.75 937.25 LINE",
"556 893.25 LINE",
"531.37 872.25 LINE",
"432.37 872.25 LINE",
"415.25 893.25 LINE",
"423 937.25 LINE",
"342.62 937.25 LINE",
"331.16 872.25 LINE",
"396.2 794.17 LINE"
);
},
{
closed = 1;
nodes = (
"538.56 967.62 LINE",
"543.49 995.6 LINE",
"624.75 1049.49 LINE",
"637.81 1123.57 LINE",
"589.52 1183.37 LINE",
"472.7 1183.37 LINE",
"417.81 1137.32 LINE",
"467.31 1076.75 LINE",
"509.81 1112.37 LINE",
"540.4 1112.37 LINE",
"547.09 1104.25 LINE",
"544.31 1088.75 LINE",
"470.43 1036.75 LINE",
"458.18 967.62 LINE"
);
}
);
width = 687;
}
);
leftKerningGroup = A;
note = uni1EB2;
rightKerningGroup = A;
unicode = 1EB2;
},
{
glyphname = uni1EB4;
lastChange = "2019-09-04 12:42:51 +0000";
layers = (
{
hints = (
{
horizontal = 1;
place = "{179.25, 110}";
type = Stem;
},
{
horizontal = 1;
place = "{618.28, 118.72}";
type = Stem;
},
{
horizontal = 1;
place = "{794.21, 78.04}";
type = Stem;
},
{
horizontal = 1;
place = "{967.5, 75.87}";
type = Stem;
},
{
place = "{10, 700.19}";
type = Stem;
},
{
horizontal = 1;
place = "{1033.5, 75.87}";
type = Stem;
},
{
horizontal = 1;
place = "{893.25, 44}";
type = Stem;
}
);
layerId = "A9EE2906-FF39-4E72-95D8-9DA33406E6B9";
paths = (
{
closed = 1;
nodes = (
"152 0 LINE",
"236.68 179.25 LINE",
"524.4 179.25 LINE",
"548.5 0 LINE",
"676.5 0 LINE",
"554.75 737 LINE",
"377.75 737 LINE",
"10 0 LINE"
);
},
{
closed = 1;
nodes = (
"444.1 618.3 LINE",
"465.37 618.25 LINE",
"509.61 289.25 LINE",
"288.65 289.25 LINE"
);
},
{
closed = 1;
nodes = (
"559.42 794.25 LINE",
"629.3 853.18 LINE",
"644.12 937.25 LINE",
"563.75 937.25 LINE",
"556 893.25 LINE",
"531.37 872.25 LINE",
"432.37 872.25 LINE",
"415.25 893.25 LINE",
"423 937.25 LINE",
"342.62 937.25 LINE",
"331.16 872.25 LINE",
"396.2 794.17 LINE"
);
},
{
closed = 1;
nodes = (
"627.6 967.5 LINE",
"694.57 1024.7 LINE",
"710.19 1106 LINE",
"638.47 1106 LINE",
"633.84 1079.62 LINE",
"592.22 1043.37 LINE",
"556.17 1043.37 LINE",
"498.41 1109.37 LINE",
"380.14 1109.37 LINE",
"313.06 1051.75 LINE",
"297.58 970.75 LINE",
"369.34 970.75 LINE",
"373.97 997.12 LINE",
"415.47 1033.5 LINE",
"451.4 1033.5 LINE",
"509.2 967.5 LINE"
);
}
);
width = 687;
}
);
leftKerningGroup = A;
note = uni1EB4;
rightKerningGroup = A;
unicode = 1EB4;
},
{
glyphname = Acircumflex;
lastChange = "2019-09-04 12:42:51 +0000";
layers = (
{
hints = (
{
horizontal = 1;
place = "{179.25, 110}";
type = Stem;
},
{
horizontal = 1;
place = "{618.28, 118.72}";
type = Stem;
},
{
horizontal = 1;
place = "{794.25, 143}";
type = Stem;
},
{
place = "{10, 666.5}";
type = Stem;
}
);
layerId = "A9EE2906-FF39-4E72-95D8-9DA33406E6B9";
paths = (
{
closed = 1;
nodes = (
"152 0 LINE",
"236.68 179.25 LINE",
"524.4 179.25 LINE",
"548.5 0 LINE",
"676.5 0 LINE",
"554.75 737 LINE",
"377.75 737 LINE",
"10 0 LINE"
);
},
{
closed = 1;
nodes = (
"444.1 618.3 LINE",
"465.37 618.25 LINE",
"509.61 289.25 LINE",
"288.65 289.25 LINE"
);
},
{
closed = 1;
nodes = (
"409 794.25 LINE",
"488.12 862.37 LINE",
"543.25 794.25 LINE",
"639.97 794.25 LINE",
"554.81 937.25 LINE",
"426.34 937.25 LINE",
"302.65 794.25 LINE"
);
}
);
width = 687;
}
);
leftKerningGroup = A;
note = Acircumflex;
rightKerningGroup = A;
unicode = 00C2;
},
{
glyphname = uni1EA4;
lastChange = "2019-09-04 12:42:51 +0000";
layers = (
{
hints = (
{
horizontal = 1;
place = "{179.25, 110}";
type = Stem;
},
{
horizontal = 1;
place = "{618.28, 118.72}";
type = Stem;
},
{
horizontal = 1;
place = "{876.74, 154}";
type = Stem;
},
{
place = "{10, 910.32}";
type = Stem;
},
{
horizontal = 1;
place = "{794.25, 143}";
type = Stem;
}
);
layerId = "A9EE2906-FF39-4E72-95D8-9DA33406E6B9";
paths = (
{
closed = 1;
nodes = (
"152 0 LINE",
"236.68 179.25 LINE",
"524.4 179.25 LINE",
"548.5 0 LINE",
"676.5 0 LINE",
"554.75 737 LINE",
"377.75 737 LINE",
"10 0 LINE"
);
},
{
closed = 1;
nodes = (
"444.1 618.3 LINE",
"465.37 618.25 LINE",
"509.61 289.25 LINE",
"288.65 289.25 LINE"
);
},
{
closed = 1;
nodes = (
"409 794.25 LINE",
"488.12 862.37 LINE",
"543.25 794.25 LINE",
"639.97 794.25 LINE",
"554.81 937.25 LINE",
"426.34 937.25 LINE",
"302.65 794.25 LINE"
);
},
{
closed = 1;
nodes = (
"745.44 876.74 LINE",
"920.32 1030.74 LINE",
"760.69 1030.74 LINE",
"632.32 876.74 LINE"
);
}
);
width = 687;
}
);
leftKerningGroup = A;
note = uni1EA4;
rightKerningGroup = A;
unicode = 1EA4;
},
{
glyphname = uni1EAC;
lastChange = "2019-09-04 12:42:51 +0000";
layers = (
{
hints = (
{
horizontal = 1;
place = "{-182.63, 125.38}";
type = Stem;
},
{
horizontal = 1;
place = "{179.25, 110}";
type = Stem;
},
{
horizontal = 1;
place = "{618.28, 118.72}";
type = Stem;
},
{
horizontal = 1;
place = "{794.25, 143}";
type = Stem;
},
{
place = "{10, 666.5}";
type = Stem;
}
);
layerId = "A9EE2906-FF39-4E72-95D8-9DA33406E6B9";
paths = (
{
closed = 1;
nodes = (
"152 0 LINE",
"236.68 179.25 LINE",
"524.4 179.25 LINE",
"548.5 0 LINE",
"676.5 0 LINE",
"554.75 737 LINE",
"377.75 737 LINE",
"10 0 LINE"
);
},
{
closed = 1;
nodes = (
"385.82 -182.63 LINE",
"407.95 -57.25 LINE",
"286.95 -57.25 LINE",
"264.82 -182.63 LINE"
);
},
{
closed = 1;
nodes = (
"444.1 618.3 LINE",
"465.37 618.25 LINE",
"509.61 289.25 LINE",
"288.65 289.25 LINE"
);
},
{
closed = 1;
nodes = (
"409 794.25 LINE",
"488.12 862.37 LINE",
"543.25 794.25 LINE",
"639.97 794.25 LINE",
"554.81 937.25 LINE",
"426.34 937.25 LINE",
"302.65 794.25 LINE"
);
}
);
width = 687;
}
);
leftKerningGroup = A;
note = uni1EAC;
rightKerningGroup = A;
unicode = 1EAC;
},
{
glyphname = uni1EA6;
lastChange = "2019-09-04 12:42:51 +0000";
layers = (
{
hints = (
{
horizontal = 1;
place = "{179.25, 110}";
type = Stem;
},
{
horizontal = 1;
place = "{618.28, 118.72}";
type = Stem;
},
{
horizontal = 1;
place = "{876.73, 154}";
type = Stem;
},
{
place = "{10, 666.5}";
type = Stem;
},
{
horizontal = 1;
place = "{794.25, 143}";
type = Stem;
}
);
layerId = "A9EE2906-FF39-4E72-95D8-9DA33406E6B9";
paths = (
{
closed = 1;
nodes = (
"152 0 LINE",
"236.68 179.25 LINE",
"524.4 179.25 LINE",
"548.5 0 LINE",
"676.5 0 LINE",
"554.75 737 LINE",
"377.75 737 LINE",
"10 0 LINE"
);
},
{
closed = 1;
nodes = (
"444.1 618.3 LINE",
"465.37 618.25 LINE",
"509.61 289.25 LINE",
"288.65 289.25 LINE"
);
},
{
closed = 1;
nodes = (
"331.27 876.73 LINE",
"257.3 1030.73 LINE",
"114.52 1030.73 LINE",
"233.52 876.73 LINE"
);
},
{
closed = 1;
nodes = (
"409 794.25 LINE",
"488.12 862.37 LINE",
"543.25 794.25 LINE",
"639.97 794.25 LINE",
"554.81 937.25 LINE",
"426.34 937.25 LINE",
"302.65 794.25 LINE"
);
}
);
width = 687;
}
);
leftKerningGroup = A;
note = uni1EA6;
rightKerningGroup = A;
unicode = 1EA6;
},
{
glyphname = uni1EA8;
lastChange = "2019-09-04 12:42:51 +0000";
layers = (
{
hints = (
{
horizontal = 1;
place = "{179.25, 110}";
type = Stem;
},
{
horizontal = 1;
place = "{618.28, 118.72}";
type = Stem;
},
{
horizontal = 1;
place = "{794.25, 143}";
type = Stem;
},
{
horizontal = 1;
place = "{1021.5, 71}";
type = Stem;
},
{
place = "{10, 786.75}";
type = Stem;
}
);
layerId = "A9EE2906-FF39-4E72-95D8-9DA33406E6B9";
paths = (
{
closed = 1;
nodes = (
"152 0 LINE",
"236.68 179.25 LINE",
"524.4 179.25 LINE",
"548.5 0 LINE",
"676.5 0 LINE",
"554.75 737 LINE",
"377.75 737 LINE",
"10 0 LINE"
);
},
{
closed = 1;
nodes = (
"444.1 618.3 LINE",
"465.37 618.25 LINE",
"509.61 289.25 LINE",
"288.65 289.25 LINE"
);
},
{
closed = 1;
nodes = (
"409 794.25 LINE",
"488.12 862.37 LINE",
"543.25 794.25 LINE",
"639.97 794.25 LINE",
"554.81 937.25 LINE",
"426.34 937.25 LINE",
"302.65 794.25 LINE"
);
},
{
closed = 1;
nodes = (
"697.5 876.75 LINE",
"702.44 904.72 LINE",
"783.69 958.61 LINE",
"796.75 1032.69 LINE",
"748.47 1092.5 LINE",
"631.65 1092.5 LINE",
"576.76 1046.44 LINE",
"626.25 985.87 LINE",
"668.75 1021.5 LINE",
"699.34 1021.5 LINE",
"706.03 1013.37 LINE",
"703.25 997.87 LINE",
"629.37 945.87 LINE",
"617.12 876.75 LINE"
);
}
);
width = 687;
}
);
leftKerningGroup = A;
note = uni1EA8;
rightKerningGroup = A;
unicode = 1EA8;
},
{
glyphname = uni1EAA;
lastChange = "2019-09-04 12:42:51 +0000";
layers = (
{
hints = (
{
horizontal = 1;
place = "{179.25, 110}";
type = Stem;
},
{
horizontal = 1;
place = "{618.28, 118.72}";
type = Stem;
},
{
horizontal = 1;
place = "{966.87, 75.88}";
type = Stem;
},
{
place = "{10, 698.35}";
type = Stem;
},
{
horizontal = 1;
place = "{1032.87, 75.88}";
type = Stem;
},
{
horizontal = 1;
place = "{794.25, 143}";
type = Stem;
}
);
layerId = "A9EE2906-FF39-4E72-95D8-9DA33406E6B9";
paths = (
{
closed = 1;
nodes = (
"152 0 LINE",
"236.68 179.25 LINE",
"524.4 179.25 LINE",
"548.5 0 LINE",
"676.5 0 LINE",
"554.75 737 LINE",
"377.75 737 LINE",
"10 0 LINE"
);
},
{
closed = 1;
nodes = (
"444.1 618.3 LINE",
"465.37 618.25 LINE",
"509.61 289.25 LINE",
"288.65 289.25 LINE"
);
},
{
closed = 1;
nodes = (
"409 794.25 LINE",
"488.12 862.37 LINE",
"543.25 794.25 LINE",
"639.97 794.25 LINE",
"554.81 937.25 LINE",
"426.34 937.25 LINE",
"302.65 794.25 LINE"
);
},
{
closed = 1;
nodes = (
"625.75 966.87 LINE",
"692.73 1024.07 LINE",
"708.35 1105.37 LINE",
"636.62 1105.37 LINE",
"632 1079 LINE",
"590.37 1042.75 LINE",
"554.33 1042.75 LINE",
"496.57 1108.75 LINE",
"378.3 1108.75 LINE",
"311.21 1051.13 LINE",
"295.73 970.12 LINE",
"367.5 970.12 LINE",
"372.12 996.5 LINE",
"413.62 1032.87 LINE",
"449.56 1032.87 LINE",
"507.36 966.87 LINE"
);
}
);
width = 687;
}
);
leftKerningGroup = A;
note = uni1EAA;
rightKerningGroup = A;
unicode = 1EAA;
},
{
glyphname = uni0200;
lastChange = "2019-09-04 12:42:51 +0000";
layers = (
{
hints = (
{
horizontal = 1;
place = "{179.25, 110}";
type = Stem;
},
{
horizontal = 1;
place = "{618.28, 118.72}";
type = Stem;
},
{
horizontal = 1;
place = "{794.25, 154}";
type = Stem;
},
{
place = "{10, 666.5}";
type = Stem;
}
);
layerId = "A9EE2906-FF39-4E72-95D8-9DA33406E6B9";
paths = (
{
closed = 1;
nodes = (
"152 0 LINE",
"236.68 179.25 LINE",
"524.4 179.25 LINE",
"548.5 0 LINE",
"676.5 0 LINE",
"554.75 737 LINE",
"377.75 737 LINE",
"10 0 LINE"
);
},
{
closed = 1;
nodes = (
"444.1 618.3 LINE",
"465.37 618.25 LINE",
"509.61 289.25 LINE",
"288.65 289.25 LINE"
);
},
{
closed = 1;
nodes = (
"412.27 794.25 LINE",
"338.3 948.25 LINE",
"195.53 948.25 LINE",
"314.53 794.25 LINE"
);
},
{
closed = 1;
nodes = (
"606.58 794.25 LINE",
"532.61 948.25 LINE",
"389.84 948.25 LINE",
"508.84 794.25 LINE"
);
}
);
width = 687;
}
);
leftKerningGroup = A;
note = uni0200;
rightKerningGroup = A;
unicode = 0200;
},
{
glyphname = Adieresis;
lastChange = "2019-09-04 12:42:51 +0000";
layers = (
{
hints = (
{
horizontal = 1;
place = "{179.25, 110}";
type = Stem;
},
{
horizontal = 1;
place = "{618.28, 118.72}";
type = Stem;
},
{
horizontal = 1;
place = "{794.25, 125.5}";
type = Stem;
},
{
place = "{10, 680.25}";
type = Stem;
}
);
layerId = "A9EE2906-FF39-4E72-95D8-9DA33406E6B9";
paths = (
{
closed = 1;
nodes = (
"152 0 LINE",
"236.68 179.25 LINE",
"524.4 179.25 LINE",
"548.5 0 LINE",
"676.5 0 LINE",
"554.75 737 LINE",
"377.75 737 LINE",
"10 0 LINE"
);
},
{
closed = 1;
nodes = (
"444.1 618.3 LINE",
"465.37 618.25 LINE",
"509.61 289.25 LINE",
"288.65 289.25 LINE"
);
},
{
closed = 1;
nodes = (
"403.12 794.25 LINE",
"425.25 919.75 LINE",
"304.25 919.75 LINE",
"282.12 794.25 LINE"
);
},
{
closed = 1;
nodes = (
"668.12 794.25 LINE",
"690.25 919.75 LINE",
"569.25 919.75 LINE",
"547.12 794.25 LINE"
);
}
);
width = 687;
}
);
leftKerningGroup = A;
note = Adieresis;
rightKerningGroup = A;
unicode = 00C4;
},
{
glyphname = uni1EA0;
lastChange = "2019-09-04 12:42:51 +0000";
layers = (
{
hints = (
{
horizontal = 1;
place = "{-182.63, 125.38}";
type = Stem;
},
{
horizontal = 1;
place = "{179.25, 110}";
type = Stem;
},
{
horizontal = 1;
place = "{618.28, 118.72}";
type = Stem;
},
{
place = "{10, 666.5}";
type = Stem;
}
);
layerId = "A9EE2906-FF39-4E72-95D8-9DA33406E6B9";
paths = (
{
closed = 1;
nodes = (
"152 0 LINE",
"236.68 179.25 LINE",
"524.4 179.25 LINE",
"548.5 0 LINE",
"676.5 0 LINE",
"554.75 737 LINE",
"377.75 737 LINE",
"10 0 LINE"
);
},
{
closed = 1;
nodes = (
"385.82 -182.63 LINE",
"407.95 -57.25 LINE",
"286.95 -57.25 LINE",
"264.82 -182.63 LINE"
);
},
{
closed = 1;
nodes = (
"444.1 618.3 LINE",
"465.37 618.25 LINE",
"509.61 289.25 LINE",
"288.65 289.25 LINE"
);
}
);
width = 687;
}
);
leftKerningGroup = A;
note = uni1EA0;
rightKerningGroup = A;
unicode = 1EA0;
},
{
glyphname = Agrave;
lastChange = "2019-09-04 12:42:51 +0000";
layers = (
{
hints = (
{
horizontal = 1;
place = "{179.25, 110}";
type = Stem;
},
{
horizontal = 1;
place = "{618.28, 118.72}";
type = Stem;
},
{
horizontal = 1;
place = "{794.25, 154}";
type = Stem;
},
{
place = "{10, 666.5}";
type = Stem;
}
);
layerId = "A9EE2906-FF39-4E72-95D8-9DA33406E6B9";
paths = (
{
closed = 1;
nodes = (
"152 0 LINE",
"236.68 179.25 LINE",
"524.4 179.25 LINE",
"548.5 0 LINE",
"676.5 0 LINE",
"554.75 737 LINE",
"377.75 737 LINE",
"10 0 LINE"
);
},
{
closed = 1;
nodes = (
"444.1 618.3 LINE",
"465.37 618.25 LINE",
"509.61 289.25 LINE",
"288.65 289.25 LINE"
);
},
{
closed = 1;
nodes = (
"504.74 794.25 LINE",
"430.77 948.25 LINE",
"287.99 948.25 LINE",
"406.99 794.25 LINE"
);
}
);
width = 687;
}
);
leftKerningGroup = A;
note = Agrave;
rightKerningGroup = A;
unicode = 00C0;
},
{
glyphname = uni1EA2;
lastChange = "2019-09-04 12:42:51 +0000";
layers = (
{
hints = (
{
horizontal = 1;
place = "{179.25, 110}";
type = Stem;
},
{
horizontal = 1;
place = "{618.28, 118.72}";
type = Stem;
},
{
horizontal = 1;
place = "{939, 71}";
type = Stem;
},
{
place = "{10, 666.5}";
type = Stem;
}
);
layerId = "A9EE2906-FF39-4E72-95D8-9DA33406E6B9";
paths = (
{
closed = 1;
nodes = (
"152 0 LINE",
"236.68 179.25 LINE",
"524.4 179.25 LINE",
"548.5 0 LINE",
"676.5 0 LINE",
"554.75 737 LINE",
"377.75 737 LINE",
"10 0 LINE"
);
},
{
closed = 1;
nodes = (
"444.1 618.3 LINE",
"465.37 618.25 LINE",
"509.61 289.25 LINE",
"288.65 289.25 LINE"
);
},
{
closed = 1;
nodes = (
"513.25 794.25 LINE",
"518.18 822.22 LINE",
"599.44 876.11 LINE",
"612.5 950.19 LINE",
"564.21 1010 LINE",
"447.4 1010 LINE",
"392.5 963.94 LINE",
"442 903.37 LINE",
"484.5 939 LINE",
"515.09 939 LINE",
"521.78 930.87 LINE",
"519 915.37 LINE",
"445.12 863.37 LINE",
"432.87 794.25 LINE"
);
}
);
width = 687;
}
);
leftKerningGroup = A;
note = uni1EA2;
rightKerningGroup = A;
unicode = 1EA2;
},
{
glyphname = uni0202;
lastChange = "2019-09-04 12:42:51 +0000";
layers = (
{
hints = (
{
horizontal = 1;
place = "{179.25, 110}";
type = Stem;
},
{
horizontal = 1;
place = "{618.28, 118.72}";
type = Stem;
},
{
horizontal = 1;
place = "{859.12, 78.13}";
type = Stem;
},
{
place = "{10, 666.5}";
type = Stem;
}
);
layerId = "A9EE2906-FF39-4E72-95D8-9DA33406E6B9";
paths = (
{
closed = 1;
nodes = (
"152 0 LINE",
"236.68 179.25 LINE",
"524.4 179.25 LINE",
"548.5 0 LINE",
"676.5 0 LINE",
"554.75 737 LINE",
"377.75 737 LINE",
"10 0 LINE"
);
},
{
closed = 1;
nodes = (
"444.1 618.3 LINE",
"465.37 618.25 LINE",
"509.61 289.25 LINE",
"288.65 289.25 LINE"
);
},
{
closed = 1;
nodes = (
"403.75 794.25 LINE",
"411.5 838.25 LINE",
"436.12 859.12 LINE",
"535.12 859.12 LINE",
"552.25 838.25 LINE",
"544.5 794.25 LINE",
"624.87 794.25 LINE",
"636.18 858.28 LINE",
"571.79 937.25 LINE",
"408.15 937.25 LINE",
"338.18 878.12 LINE",
"323.37 794.25 LINE"
);
}
);
width = 687;
}
);
leftKerningGroup = A;
note = uni0202;
rightKerningGroup = A;
unicode = 0202;
},
{
glyphname = Amacron;
lastChange = "2019-09-04 12:42:51 +0000";
layers = (
{
hints = (
{
horizontal = 1;
place = "{179.25, 110}";
type = Stem;
},
{
horizontal = 1;
place = "{618.28, 118.72}";
type = Stem;
},
{
horizontal = 1;
place = "{794.25, 90.12}";
type = Stem;
},
{
place = "{10, 675.12}";
type = Stem;
}
);
layerId = "A9EE2906-FF39-4E72-95D8-9DA33406E6B9";
paths = (
{
closed = 1;
nodes = (
"152 0 LINE",
"236.68 179.25 LINE",
"524.4 179.25 LINE",
"548.5 0 LINE",
"676.5 0 LINE",
"554.75 737 LINE",
"377.75 737 LINE",
"10 0 LINE"
);
},
{
closed = 1;
nodes = (
"444.1 618.3 LINE",
"465.37 618.25 LINE",
"509.61 289.25 LINE",
"288.65 289.25 LINE"
);
},
{
closed = 1;
nodes = (
"669.12 794.25 LINE",
"685.12 884.37 LINE",
"299.12 884.37 LINE",
"283.12 794.25 LINE"
);
}
);
width = 687;
}
);
leftKerningGroup = A;
note = Amacron;
rightKerningGroup = A;
unicode = 0100;
},
{
glyphname = Aogonek;
lastChange = "2019-09-04 12:42:51 +0000";
layers = (
{
hints = (
{
horizontal = 1;
place = "{-171.63, 81.38}";
type = Stem;
},
{
horizontal = 1;
place = "{179.25, 110}";
type = Stem;
},
{
horizontal = 1;
place = "{618.28, 118.72}";
type = Stem;
},
{
place = "{10, 666.5}";
type = Stem;
}
);
layerId = "A9EE2906-FF39-4E72-95D8-9DA33406E6B9";
paths = (
{
closed = 1;
nodes = (
"609.04 -171.63 LINE",
"623.42 -90.25 LINE",
"591.54 -90.25 LINE",
"574.17 -69.25 LINE",
"579.67 -38.5 LINE",
"639.29 0 LINE",
"676.5 0 LINE",
"554.75 737 LINE",
"377.75 737 LINE",
"10 0 LINE",
"152 0 LINE",
"236.68 179.25 LINE",
"524.4 179.25 LINE",
"548.5 0 LINE",
"505.65 -27.81 LINE",
"493.24 -98.13 LINE",
"553.6 -171.63 LINE"
);
},
{
closed = 1;
nodes = (
"444.1 618.3 LINE",
"465.37 618.25 LINE",
"509.61 289.25 LINE",
"288.65 289.25 LINE"
);
}
);
width = 687;
}
);
leftKerningGroup = A;
note = Aogonek;
rightKerningGroup = A;
unicode = 0104;
},
{
glyphname = Aring;
lastChange = "2019-09-04 12:42:51 +0000";
layers = (
{
hints = (
{
horizontal = 1;
place = "{179.25, 110}";
type = Stem;
},
{
horizontal = 1;
place = "{618.28, 118.72}";
type = Stem;
},
{
horizontal = 1;
place = "{794.25, 64.87}";
type = Stem;
},
{
horizontal = 1;
place = "{940.5, 64.87}";
type = Stem;
},
{
place = "{10, 666.5}";
type = Stem;
}
);
layerId = "A9EE2906-FF39-4E72-95D8-9DA33406E6B9";
paths = (
{
closed = 1;
nodes = (
"152 0 LINE",
"236.68 179.25 LINE",
"524.4 179.25 LINE",
"548.5 0 LINE",
"676.5 0 LINE",
"554.75 737 LINE",
"377.75 737 LINE",
"10 0 LINE"
);
},
{
closed = 1;
nodes = (
"444.1 618.3 LINE",
"465.37 618.25 LINE",
"509.61 289.25 LINE",
"288.65 289.25 LINE"
);
},
{
closed = 1;
nodes = (
"529.84 794.25 LINE",
"597.44 851.72 LINE",
"611.19 929.45 LINE",
"548.59 1005.37 LINE",
"437.36 1005.37 LINE",
"370.22 947.96 LINE",
"356.43 870.03 LINE",
"419.11 794.25 LINE"
);
},
{
closed = 1;
nodes = (
"440.5 885.5 LINE",
"445.5 914.12 LINE",
"476.75 940.5 LINE",
"505.25 940.5 LINE",
"527 914.12 LINE",
"522 885.5 LINE",
"490.87 859.12 LINE",
"462.37 859.12 LINE"
);
}
);
width = 687;
}
);
leftKerningGroup = A;
note = Aring;
rightKerningGroup = A;
unicode = 00C5;
},
{
glyphname = Aringacute;
lastChange = "2019-09-04 12:42:51 +0000";
layers = (
{
hints = (
{
horizontal = 1;
place = "{179.25, 110}";
type = Stem;
},
{
horizontal = 1;
place = "{618.28, 118.72}";
type = Stem;
},
{
horizontal = 1;
place = "{794.25, 64.87}";
type = Stem;
},
{
horizontal = 1;
place = "{940.5, 64.87}";
type = Stem;
},
{
horizontal = 1;
place = "{1037.59, 154}";
type = Stem;
},
{
place = "{10, 724.72}";
type = Stem;
}
);
layerId = "A9EE2906-FF39-4E72-95D8-9DA33406E6B9";
paths = (
{
closed = 1;
nodes = (
"152 0 LINE",
"236.68 179.25 LINE",
"524.4 179.25 LINE",
"548.5 0 LINE",
"676.5 0 LINE",
"554.75 737 LINE",
"377.75 737 LINE",
"10 0 LINE"
);
},
{
closed = 1;
nodes = (
"444.1 618.3 LINE",
"465.37 618.25 LINE",
"509.61 289.25 LINE",
"288.65 289.25 LINE"
);
},
{
closed = 1;
nodes = (
"529.84 794.25 LINE",
"597.44 851.72 LINE",
"611.19 929.45 LINE",
"548.59 1005.37 LINE",
"437.36 1005.37 LINE",
"370.22 947.96 LINE",
"356.43 870.03 LINE",
"419.11 794.25 LINE"
);
},
{
closed = 1;
nodes = (
"440.5 885.5 LINE",
"445.5 914.12 LINE",
"476.75 940.5 LINE",
"505.25 940.5 LINE",
"527 914.12 LINE",
"522 885.5 LINE",
"490.87 859.12 LINE",
"462.37 859.12 LINE"
);
},
{
closed = 1;
nodes = (
"559.84 1037.59 LINE",
"734.72 1191.59 LINE",
"575.09 1191.59 LINE",
"446.72 1037.59 LINE"
);
}
);
width = 687;
}
);
leftKerningGroup = A;
note = Aringacute;
rightKerningGroup = A;
unicode = 01FA;
},
{
glyphname = Atilde;
lastChange = "2019-09-04 12:42:51 +0000";
layers = (
{
hints = (
{
horizontal = 1;
place = "{179.25, 110}";
type = Stem;
},
{
horizontal = 1;
place = "{618.28, 118.72}";
type = Stem;
},
{
horizontal = 1;
place = "{794.25, 75.87}";
type = Stem;
},
{
place = "{10, 687.73}";
type = Stem;
},
{
horizontal = 1;
place = "{860.25, 75.87}";
type = Stem;
}
);
layerId = "A9EE2906-FF39-4E72-95D8-9DA33406E6B9";
paths = (
{
closed = 1;
nodes = (
"152 0 LINE",
"236.68 179.25 LINE",
"524.4 179.25 LINE",
"548.5 0 LINE",
"676.5 0 LINE",
"554.75 737 LINE",
"377.75 737 LINE",
"10 0 LINE"
);
},
{
closed = 1;
nodes = (
"444.1 618.3 LINE",
"465.37 618.25 LINE",
"509.61 289.25 LINE",
"288.65 289.25 LINE"
);
},
{
closed = 1;
nodes = (
"615.13 794.25 LINE",
"682.1 851.45 LINE",
"697.73 932.75 LINE",
"626 932.75 LINE",
"621.37 906.37 LINE",
"579.75 870.12 LINE",
"543.7 870.12 LINE",
"485.94 936.12 LINE",
"367.67 936.12 LINE",
"300.59 878.5 LINE",
"285.11 797.5 LINE",
"356.87 797.5 LINE",
"361.5 823.87 LINE",
"403 860.25 LINE",
"438.93 860.25 LINE",
"496.73 794.25 LINE"
);
}
);
width = 687;
}
);
leftKerningGroup = A;
note = Atilde;
rightKerningGroup = A;
unicode = 00C3;
},
{
glyphname = AE;
lastChange = "2019-09-04 12:42:51 +0000";
layers = (
{
hints = (
{
horizontal = 1;
place = "{0, 114.37}";
type = Stem;
},
{
horizontal = 1;
place = "{179.25, 110}";
type = Stem;
},
{
horizontal = 1;
place = "{328.87, 114.38}";
type = Stem;
},
{
horizontal = 1;
place = "{622.62, 114.38}";
type = Stem;
},
{
place = "{10, 1045.75}";
type = Stem;
}
);
layerId = "A9EE2906-FF39-4E72-95D8-9DA33406E6B9";
paths = (
{
closed = 1;
nodes = (
"152 0 LINE",
"236.68 179.25 LINE",
"524.4 179.25 LINE",
"548.5 0 LINE",
"925.75 0 LINE",
"946 114.37 LINE",
"657.6 114.37 LINE",
"622.17 328.87 LINE",
"950.75 328.87 LINE",
"970.87 443.25 LINE",
"603.27 443.25 LINE",
"573.64 622.62 LINE",
"1035.5 622.62 LINE",
"1055.75 737 LINE",
"377.75 737 LINE",
"10 0 LINE"
);
},
{
closed = 1;
nodes = (
"444.1 618.3 LINE",
"465.37 618.25 LINE",
"509.61 289.25 LINE",
"288.65 289.25 LINE"
);
}
);
width = 976;
}
);
leftKerningGroup = A;
note = AE;
rightKerningGroup = AE;
unicode = 00C6;
},
{
glyphname = AEacute;
lastChange = "2019-09-04 12:42:51 +0000";
layers = (
{
hints = (
{
horizontal = 1;
place = "{0, 114.37}";
type = Stem;
},
{
horizontal = 1;
place = "{179.25, 110}";
type = Stem;
},
{
horizontal = 1;
place = "{328.87, 114.38}";
type = Stem;
},
{
horizontal = 1;
place = "{622.62, 114.38}";
type = Stem;
},
{
horizontal = 1;
place = "{794.25, 154}";
type = Stem;
},
{
place = "{10, 1045.75}";
type = Stem;
}
);
layerId = "A9EE2906-FF39-4E72-95D8-9DA33406E6B9";
paths = (
{
closed = 1;
nodes = (
"152 0 LINE",
"236.68 179.25 LINE",
"524.4 179.25 LINE",
"548.5 0 LINE",
"925.75 0 LINE",
"946 114.37 LINE",
"657.6 114.37 LINE",
"622.17 328.87 LINE",
"950.75 328.87 LINE",
"970.87 443.25 LINE",
"603.27 443.25 LINE",
"573.64 622.62 LINE",
"1035.5 622.62 LINE",
"1055.75 737 LINE",
"377.75 737 LINE",
"10 0 LINE"
);
},
{
closed = 1;
nodes = (
"444.1 618.3 LINE",
"465.37 618.25 LINE",
"509.61 289.25 LINE",
"288.65 289.25 LINE"
);
},
{
closed = 1;
nodes = (
"533.62 794.25 LINE",
"708.5 948.25 LINE",
"548.87 948.25 LINE",
"420.5 794.25 LINE"
);
}
);
width = 976;
}
);
leftKerningGroup = A;
note = AEacute;
rightKerningGroup = AE;
unicode = 01FC;
},
{
glyphname = B;
lastChange = "2019-09-04 12:42:51 +0000";
layers = (
{
hints = (
{
horizontal = 1;
place = "{0, 110.14}";
type = Stem;
},
{
horizontal = 1;
place = "{331.27, 109.85}";
type = Stem;
},
{
horizontal = 1;
place = "{627.15, 109.91}";
type = Stem;
},
{
place = "{80, 642.47}";
type = Stem;
}
);
layerId = "A9EE2906-FF39-4E72-95D8-9DA33406E6B9";
paths = (
{
closed = 1;
nodes = (
"536.5 0 LINE",
"667.12 111.12 LINE",
"703.75 319 LINE",
"637.62 399.25 LINE",
"694.37 453.25 LINE",
"722.47 611.64 LINE",
"619.44 737.12 LINE",
"209.95 737 LINE",
"80 0 LINE"
);
},
{
closed = 1;
nodes = (
"263.79 331.16 LINE",
"536.5 331.37 LINE",
"572.87 287.12 LINE",
"549.5 154 LINE",
"497.62 110.25 LINE",
"224.8 110.03 LINE"
);
},
{
closed = 1;
nodes = (
"315.96 627.04 LINE",
"555.75 627.25 LINE",
"591.62 583 LINE",
"575.62 490.5 LINE",
"523.5 441.12 LINE",
"283.18 441.12 LINE"
);
}
);
width = 708;
}
);
leftKerningGroup = B;
note = B;
rightKerningGroup = B;
unicode = 0042;
},
{
glyphname = C;
lastChange = "2019-09-04 12:42:51 +0000";
layers = (
{
hints = (
{
horizontal = 1;
place = "{-0.12, 110}";
type = Stem;
},
{
horizontal = 1;
place = "{626.88, 110.06}";
type = Stem;
},
{
place = "{81.99, 646.01}";
type = Stem;
}
);
layerId = "A9EE2906-FF39-4E72-95D8-9DA33406E6B9";
paths = (
{
closed = 1;
nodes = (
"655.99 89.58 LINE",
"581.39 181.5 LINE",
"496.14 110 LINE",
"248.64 109.75 LINE",
"212.64 154 LINE",
"287.77 583 LINE",
"339.77 626.75 LINE",
"578.52 627 LINE",
"638.64 555.5 LINE",
"728 632.4 LINE",
"642.21 736.87 LINE",
"285.6 737 LINE",
"173.01 641.44 LINE",
"81.99 125.17 LINE",
"185.2 0 LINE",
"550.48 -0.25 LINE"
);
}
);
width = 648;
}
);
leftKerningGroup = C;
note = C;
rightKerningGroup = C;
unicode = 0043;
},
{
glyphname = Cacute;
lastChange = "2019-09-04 12:42:51 +0000";
layers = (
{
hints = (
{
horizontal = 1;
place = "{-0.12, 110}";
type = Stem;
},
{
horizontal = 1;
place = "{626.88, 110.06}";
type = Stem;
},
{
horizontal = 1;
place = "{794.25, 154}";
type = Stem;
},
{
place = "{81.99, 646.01}";
type = Stem;
}
);
layerId = "A9EE2906-FF39-4E72-95D8-9DA33406E6B9";
paths = (
{
closed = 1;
nodes = (
"655.99 89.58 LINE",
"581.39 181.5 LINE",
"496.14 110 LINE",
"248.64 109.75 LINE",
"212.64 154 LINE",
"287.77 583 LINE",
"339.77 626.75 LINE",
"578.52 627 LINE",
"638.64 555.5 LINE",
"728 632.4 LINE",
"642.21 736.87 LINE",
"285.6 737 LINE",
"173.01 641.44 LINE",
"81.99 125.17 LINE",
"185.2 0 LINE",
"550.48 -0.25 LINE"
);
},
{
closed = 1;
nodes = (
"531.52 794.25 LINE",
"706.39 948.25 LINE",
"546.77 948.25 LINE",
"418.39 794.25 LINE"
);
}
);
width = 648;
}
);
leftKerningGroup = C;
note = Cacute;
rightKerningGroup = C;
unicode = 0106;
},
{
glyphname = Ccaron;
lastChange = "2019-09-04 12:42:51 +0000";
layers = (
{
hints = (
{
horizontal = 1;
place = "{-0.12, 110}";
type = Stem;
},
{
horizontal = 1;
place = "{626.88, 110.06}";
type = Stem;
},
{
horizontal = 1;
place = "{794.25, 143}";
type = Stem;
},
{
place = "{81.99, 646.01}";
type = Stem;
}
);
layerId = "A9EE2906-FF39-4E72-95D8-9DA33406E6B9";
paths = (
{
closed = 1;
nodes = (
"655.99 89.58 LINE",
"581.39 181.5 LINE",
"496.14 110 LINE",
"248.64 109.75 LINE",
"212.64 154 LINE",
"287.77 583 LINE",
"339.77 626.75 LINE",
"578.52 627 LINE",
"638.64 555.5 LINE",
"728 632.4 LINE",
"642.21 736.87 LINE",
"285.6 737 LINE",
"173.01 641.44 LINE",
"81.99 125.17 LINE",
"185.2 0 LINE",
"550.48 -0.25 LINE"
);
},
{
closed = 1;
nodes = (
"534.53 794.25 LINE",
"658.22 937.25 LINE",
"551.87 937.25 LINE",
"472.75 869.12 LINE",
"417.62 937.25 LINE",
"320.9 937.25 LINE",
"406.06 794.25 LINE"
);
}
);
width = 648;
}
);
leftKerningGroup = C;
note = Ccaron;
rightKerningGroup = C;
unicode = 010C;
},
{
glyphname = Ccedilla;
lastChange = "2019-09-04 12:42:51 +0000";
layers = (
{
hints = (
{
horizontal = 1;
place = "{-0.04, 109.92}";
type = Stem;
},
{
horizontal = 1;
place = "{626.88, 110.06}";
type = Stem;
},
{
place = "{81.99, 646.01}";
type = Stem;
}
);
layerId = "A9EE2906-FF39-4E72-95D8-9DA33406E6B9";
paths = (
{
closed = 1;
nodes = (
"363.03 -125.38 LINE",
"425.98 -0.17 LINE",
"550.48 -0.25 LINE",
"655.99 89.58 LINE",
"581.39 181.5 LINE",
"496.14 110 LINE",
"248.64 109.75 LINE",
"212.64 154 LINE",
"287.77 583 LINE",
"339.77 626.75 LINE",
"578.52 627 LINE",
"638.64 555.5 LINE",
"728 632.4 LINE",
"642.21 736.87 LINE",
"285.6 737 LINE",
"173.01 641.44 LINE",
"81.99 125.17 LINE",
"185.2 0 LINE",
"315.49 -0.09 LINE",
"273.52 -125.38 LINE"
);
}
);
width = 648;
}
);
leftKerningGroup = C;
note = Ccedilla;
rightKerningGroup = C;
unicode = 00C7;
},
{
glyphname = Ccircumflex;
lastChange = "2019-09-04 12:42:51 +0000";
layers = (
{
hints = (
{
horizontal = 1;
place = "{-0.12, 110}";
type = Stem;
},
{
horizontal = 1;
place = "{626.88, 110.06}";
type = Stem;
},
{
horizontal = 1;
place = "{794.25, 143}";
type = Stem;
},
{
place = "{81.99, 646.01}";
type = Stem;
}
);
layerId = "A9EE2906-FF39-4E72-95D8-9DA33406E6B9";
paths = (
{
closed = 1;
nodes = (
"655.99 89.58 LINE",
"581.39 181.5 LINE",
"496.14 110 LINE",
"248.64 109.75 LINE",
"212.64 154 LINE",
"287.77 583 LINE",
"339.77 626.75 LINE",
"578.52 627 LINE",
"638.64 555.5 LINE",
"728 632.4 LINE",
"642.21 736.87 LINE",
"285.6 737 LINE",
"173.01 641.44 LINE",
"81.99 125.17 LINE",
"185.2 0 LINE",
"550.48 -0.25 LINE"
);
},
{
closed = 1;
nodes = (
"406.89 794.25 LINE",
"486.02 862.37 LINE",
"541.14 794.25 LINE",
"637.86 794.25 LINE",
"552.7 937.25 LINE",
"424.23 937.25 LINE",
"300.54 794.25 LINE"
);
}
);
width = 648;
}
);
leftKerningGroup = C;
note = Ccircumflex;
rightKerningGroup = C;
unicode = 0108;
},
{
glyphname = Cdotaccent;
lastChange = "2019-09-04 12:42:51 +0000";
layers = (
{
hints = (
{
horizontal = 1;
place = "{-0.12, 110}";
type = Stem;
},
{
horizontal = 1;
place = "{626.88, 110.06}";
type = Stem;
},
{
horizontal = 1;
place = "{794.25, 125.37}";
type = Stem;
},
{
place = "{81.99, 646.01}";
type = Stem;
}
);
layerId = "A9EE2906-FF39-4E72-95D8-9DA33406E6B9";
paths = (
{
closed = 1;
nodes = (
"655.99 89.58 LINE",
"581.39 181.5 LINE",
"496.14 110 LINE",
"248.64 109.75 LINE",
"212.64 154 LINE",
"287.77 583 LINE",
"339.77 626.75 LINE",
"578.52 627 LINE",
"638.64 555.5 LINE",
"728 632.4 LINE",
"642.21 736.87 LINE",
"285.6 737 LINE",
"173.01 641.44 LINE",
"81.99 125.17 LINE",
"185.2 0 LINE",
"550.48 -0.25 LINE"
);
},
{
closed = 1;
nodes = (
"534.52 794.25 LINE",
"556.64 919.62 LINE",
"435.64 919.62 LINE",
"413.52 794.25 LINE"
);
}
);
width = 648;
}
);
leftKerningGroup = C;
note = Cdotaccent;
rightKerningGroup = C;
unicode = 010A;
},
{
glyphname = D;
lastChange = "2019-09-04 12:42:51 +0000";
layers = (
{
hints = (
{
horizontal = 1;
place = "{-0.06, 110.06}";
type = Stem;
},
{
horizontal = 1;
place = "{627, 109.93}";
type = Stem;
},
{
place = "{80, 679.78}";
type = Stem;
}
);
layerId = "A9EE2906-FF39-4E72-95D8-9DA33406E6B9";
paths = (
{
closed = 1;
nodes = (
"684.38 139.58 LINE",
"759.78 567.16 LINE",
"620.57 736.87 LINE",
"335.35 736.98 LINE",
"335.35 737 LINE",
"209.95 737 LINE",
"80 0 LINE",
"520.21 -0.13 LINE"
);
},
{
closed = 1;
nodes = (
"315.95 627 LINE",
"556.87 627 LINE",
"629.37 539 LINE",
"569.25 198 LINE",
"465.75 110 LINE",
"224.79 110 LINE"
);
}
);
width = 720;
}
);
leftKerningGroup = B;
note = D;
rightKerningGroup = D;
unicode = 0044;
},
{
glyphname = uni01C4;
lastChange = "2019-09-04 12:42:51 +0000";
layers = (
{
hints = (
{
horizontal = 1;
place = "{0, 114.37}";
type = Stem;
},
{
horizontal = 1;
place = "{622.62, 114.38}";
type = Stem;
},
{
horizontal = 1;
place = "{794.25, 143}";
type = Stem;
},
{
place = "{80, 1372}";
type = Stem;
},
{
horizontal = 1;
place = "{-0.06, 110.06}";
type = Stem;
},
{
horizontal = 1;
place = "{627, 109.93}";
type = Stem;
}
);
layerId = "A9EE2906-FF39-4E72-95D8-9DA33406E6B9";
paths = (
{
closed = 1;
nodes = (
"684.38 139.58 LINE",
"759.78 567.16 LINE",
"620.57 736.87 LINE",
"335.35 736.98 LINE",
"335.35 737 LINE",
"209.95 737 LINE",
"80 0 LINE",
"520.21 -0.13 LINE"
);
},
{
closed = 1;
nodes = (
"315.95 627 LINE",
"556.87 627 LINE",
"629.37 539 LINE",
"569.25 198 LINE",
"465.75 110 LINE",
"224.79 110 LINE"
);
},
{
closed = 1;
nodes = (
"1322 0 LINE",
"1342.12 114.37 LINE",
"971.37 114.37 LINE",
"975.75 138.62 LINE",
"1431.75 622.62 LINE",
"1452 737 LINE",
"936 737 LINE",
"915.75 622.62 LINE",
"1252.75 622.62 LINE",
"1248.5 598.37 LINE",
"806.9 131.41 LINE",
"784 0 LINE"
);
},
{
closed = 1;
nodes = (
"1275.01 794.25 LINE",
"1398.7 937.25 LINE",
"1292.35 937.25 LINE",
"1213.23 869.12 LINE",
"1158.1 937.25 LINE",
"1061.38 937.25 LINE",
"1146.54 794.25 LINE"
);
}
);
width = 1382;
}
);
note = uni01C4;
unicode = 01C4;
},
{
glyphname = Eth;
lastChange = "2019-09-04 12:42:51 +0000";
layers = (
{
hints = (
{
horizontal = 1;
place = "{-0.06, 110.06}";
type = Stem;
},
{
horizontal = 1;
place = "{324.5, 99}";
type = Stem;
},
{
horizontal = 1;
place = "{627, 109.93}";
type = Stem;
},
{
place = "{69.12, 690.66}";
type = Stem;
}
);
layerId = "A9EE2906-FF39-4E72-95D8-9DA33406E6B9";
paths = (
{
closed = 1;
nodes = (
"684.38 139.58 LINE",
"759.78 567.16 LINE",
"620.57 736.87 LINE",
"335.35 736.98 LINE",
"335.35 737 LINE",
"209.95 737 LINE",
"154.67 423.5 LINE",
"86.5 423.5 LINE",
"69.12 324.5 LINE",
"137.22 324.5 LINE",
"80 0 LINE",
"520.21 -0.13 LINE"
);
},
{
closed = 1;
nodes = (
"262.62 324.5 LINE",
"382.62 324.5 LINE",
"400 423.5 LINE",
"280.07 423.5 LINE",
"315.95 627 LINE",
"556.87 627 LINE",
"629.37 539 LINE",
"569.25 198 LINE",
"465.75 110 LINE",
"224.79 110 LINE"
);
}
);
width = 720;
}
);
note = Eth;
rightKerningGroup = D;
unicode = 00D0;
},
{
glyphname = Dcaron;
lastChange = "2019-09-04 12:42:51 +0000";
layers = (
{
hints = (
{
horizontal = 1;
place = "{-0.06, 110.06}";
type = Stem;
},
{
horizontal = 1;
place = "{627, 109.93}";
type = Stem;
},
{
horizontal = 1;
place = "{794.25, 143}";
type = Stem;
},
{
place = "{80, 679.78}";
type = Stem;
}
);
layerId = "A9EE2906-FF39-4E72-95D8-9DA33406E6B9";
paths = (
{
closed = 1;
nodes = (
"684.38 139.58 LINE",
"759.78 567.16 LINE",
"620.57 736.87 LINE",
"335.35 736.98 LINE",
"335.35 737 LINE",
"209.95 737 LINE",
"80 0 LINE",
"520.21 -0.13 LINE"
);
},
{
closed = 1;
nodes = (
"315.95 627 LINE",
"556.87 627 LINE",
"629.37 539 LINE",
"569.25 198 LINE",
"465.75 110 LINE",
"224.79 110 LINE"
);
},
{
closed = 1;
nodes = (
"533.51 794.25 LINE",
"657.2 937.25 LINE",
"550.85 937.25 LINE",
"471.73 869.12 LINE",
"416.6 937.25 LINE",
"319.88 937.25 LINE",
"405.04 794.25 LINE"
);
}
);
width = 720;
}
);
note = Dcaron;
rightKerningGroup = D;
unicode = 010E;
},
{
glyphname = Dcroat;
lastChange = "2019-09-04 12:42:51 +0000";
layers = (
{
hints = (
{
horizontal = 1;
place = "{-0.06, 110.06}";
type = Stem;
},
{
horizontal = 1;
place = "{324.5, 99}";
type = Stem;
},
{
horizontal = 1;
place = "{627, 109.93}";
type = Stem;
},
{
place = "{69.12, 690.66}";
type = Stem;
}
);
layerId = "A9EE2906-FF39-4E72-95D8-9DA33406E6B9";
paths = (
{
closed = 1;
nodes = (
"684.38 139.58 LINE",
"759.78 567.16 LINE",
"620.57 736.87 LINE",
"335.35 736.98 LINE",
"335.35 737 LINE",
"209.95 737 LINE",
"154.67 423.5 LINE",
"86.5 423.5 LINE",
"69.12 324.5 LINE",
"137.22 324.5 LINE",
"80 0 LINE",
"520.21 -0.13 LINE"
);
},
{
closed = 1;
nodes = (
"262.62 324.5 LINE",
"382.62 324.5 LINE",
"400 423.5 LINE",
"280.07 423.5 LINE",
"315.95 627 LINE",
"556.87 627 LINE",
"629.37 539 LINE",
"569.25 198 LINE",
"465.75 110 LINE",
"224.79 110 LINE"
);
}
);
width = 720;
}
);
note = Dcroat;
rightKerningGroup = D;
unicode = 0110;
},
{
glyphname = uni01C5;
lastChange = "2019-09-04 12:42:51 +0000";
layers = (
{
hints = (
{
horizontal = 1;
place = "{0, 99}";
type = Stem;
},
{
horizontal = 1;
place = "{423.5, 99}";
type = Stem;
},
{
horizontal = 1;
place = "{627, 109.93}";
type = Stem;
},
{
place = "{80, 1279.87}";
type = Stem;
},
{
horizontal = 1;
place = "{-0.06, 110.06}";
type = Stem;
},
{
horizontal = 1;
place = "{579.75, 143}";
type = Stem;
}
);
layerId = "A9EE2906-FF39-4E72-95D8-9DA33406E6B9";
paths = (
{
closed = 1;
nodes = (
"684.38 139.58 LINE",
"759.78 567.16 LINE",
"620.57 736.87 LINE",
"335.35 736.98 LINE",
"335.35 737 LINE",
"209.95 737 LINE",
"80 0 LINE",
"520.21 -0.13 LINE"
);
},
{
closed = 1;
nodes = (
"315.95 627 LINE",
"556.87 627 LINE",
"629.37 539 LINE",
"569.25 198 LINE",
"465.75 110 LINE",
"224.79 110 LINE"
);
},
{
closed = 1;
nodes = (
"1274.37 0 LINE",
"1291.87 99 LINE",
"998.25 99 LINE",
"1337.86 397.85 LINE",
"1359.87 522.5 LINE",
"930.87 522.5 LINE",
"913.37 423.5 LINE",
"1194.19 423.5 LINE",
"837.5 111.12 LINE",
"817.87 0 LINE"
);
},
{
closed = 1;
nodes = (
"1208.26 579.75 LINE",
"1331.95 722.75 LINE",
"1225.6 722.75 LINE",
"1146.48 654.62 LINE",
"1091.35 722.75 LINE",
"994.63 722.75 LINE",
"1079.79 579.75 LINE"
);
}
);
width = 1334;
}
);
note = uni01C5;
unicode = 01C5;
},
{
glyphname = E;
lastChange = "2019-09-04 12:42:51 +0000";
layers = (
{
hints = (
{
horizontal = 1;
place = "{0, 114.37}";
type = Stem;
},
{
horizontal = 1;
place = "{328.87, 114.38}";
type = Stem;
},
{
horizontal = 1;
place = "{622.62, 114.38}";
type = Stem;
},
{
place = "{80, 633.75}";
type = Stem;
}
);
layerId = "A9EE2906-FF39-4E72-95D8-9DA33406E6B9";
paths = (
{
closed = 1;
nodes = (
"583.75 0 LINE",
"603.87 114.37 LINE",
"225.56 114.37 LINE",
"263.39 328.87 LINE",
"608.75 328.87 LINE",
"628.87 443.25 LINE",
"283.55 443.25 LINE",
"315.18 622.62 LINE",
"693.5 622.62 LINE",
"713.75 737 LINE",
"209.95 737 LINE",
"80 0 LINE"
);
}
);
width = 634;
}
);
note = E;
rightKerningGroup = AE;
unicode = 0045;
},
{
glyphname = Eacute;
lastChange = "2019-09-04 12:42:51 +0000";
layers = (
{
hints = (
{
horizontal = 1;
place = "{0, 114.37}";
type = Stem;
},
{
horizontal = 1;
place = "{328.87, 114.38}";
type = Stem;
},
{
horizontal = 1;
place = "{622.62, 114.38}";
type = Stem;
},
{
horizontal = 1;
place = "{794.25, 154}";
type = Stem;
},
{
place = "{80, 633.75}";
type = Stem;
}
);
layerId = "A9EE2906-FF39-4E72-95D8-9DA33406E6B9";
paths = (
{
closed = 1;
nodes = (
"583.75 0 LINE",
"603.87 114.37 LINE",
"225.56 114.37 LINE",
"263.39 328.87 LINE",
"608.75 328.87 LINE",
"628.87 443.25 LINE",
"283.55 443.25 LINE",
"315.18 622.62 LINE",
"693.5 622.62 LINE",
"713.75 737 LINE",
"209.95 737 LINE",
"80 0 LINE"
);
},
{
closed = 1;
nodes = (
"531.12 794.25 LINE",
"706 948.25 LINE",
"546.37 948.25 LINE",
"418 794.25 LINE"
);
}
);
width = 634;
}
);
note = Eacute;
rightKerningGroup = AE;
unicode = 00C9;
},
{
glyphname = Ebreve;
lastChange = "2019-09-04 12:42:51 +0000";
layers = (
{
hints = (
{
horizontal = 1;
place = "{0, 114.37}";
type = Stem;
},
{
horizontal = 1;
place = "{328.87, 114.38}";
type = Stem;
},
{
horizontal = 1;
place = "{622.62, 114.38}";
type = Stem;
},
{
horizontal = 1;
place = "{794.21, 78.04}";
type = Stem;
},
{
place = "{80, 633.75}";
type = Stem;
},
{
horizontal = 1;
place = "{893.25, 44}";
type = Stem;
}
);
layerId = "A9EE2906-FF39-4E72-95D8-9DA33406E6B9";
paths = (
{
closed = 1;
nodes = (
"583.75 0 LINE",
"603.87 114.37 LINE",
"225.56 114.37 LINE",
"263.39 328.87 LINE",
"608.75 328.87 LINE",
"628.87 443.25 LINE",
"283.55 443.25 LINE",
"315.18 622.62 LINE",
"693.5 622.62 LINE",
"713.75 737 LINE",
"209.95 737 LINE",
"80 0 LINE"
);
},
{
closed = 1;
nodes = (
"556.92 794.25 LINE",
"626.8 853.18 LINE",
"641.62 937.25 LINE",
"561.25 937.25 LINE",
"553.5 893.25 LINE",
"528.87 872.25 LINE",
"429.87 872.25 LINE",
"412.75 893.25 LINE",
"420.5 937.25 LINE",
"340.12 937.25 LINE",
"328.66 872.25 LINE",
"393.7 794.17 LINE"
);
}
);
width = 634;
}
);
note = Ebreve;
rightKerningGroup = AE;
unicode = 0114;
},
{
glyphname = Ecaron;
lastChange = "2019-09-04 12:42:51 +0000";
layers = (
{
hints = (
{
horizontal = 1;
place = "{0, 114.37}";
type = Stem;
},
{
horizontal = 1;
place = "{328.87, 114.38}";
type = Stem;
},
{
horizontal = 1;
place = "{622.62, 114.38}";
type = Stem;
},
{
horizontal = 1;
place = "{794.25, 143}";
type = Stem;
},
{
place = "{80, 633.75}";
type = Stem;
}
);
layerId = "A9EE2906-FF39-4E72-95D8-9DA33406E6B9";
paths = (
{
closed = 1;
nodes = (
"583.75 0 LINE",
"603.87 114.37 LINE",
"225.56 114.37 LINE",
"263.39 328.87 LINE",
"608.75 328.87 LINE",
"628.87 443.25 LINE",
"283.55 443.25 LINE",
"315.18 622.62 LINE",
"693.5 622.62 LINE",
"713.75 737 LINE",
"209.95 737 LINE",
"80 0 LINE"
);
},
{
closed = 1;
nodes = (
"534.14 794.25 LINE",
"657.83 937.25 LINE",
"551.48 937.25 LINE",
"472.35 869.12 LINE",
"417.23 937.25 LINE",
"320.51 937.25 LINE",
"405.67 794.25 LINE"
);
}
);
width = 634;
}
);
note = Ecaron;
rightKerningGroup = AE;
unicode = 011A;
},
{
glyphname = Ecircumflex;
lastChange = "2019-09-04 12:42:51 +0000";
layers = (
{
hints = (
{
horizontal = 1;
place = "{0, 114.37}";
type = Stem;
},
{
horizontal = 1;
place = "{328.87, 114.38}";
type = Stem;
},
{
horizontal = 1;
place = "{622.62, 114.38}";
type = Stem;
},
{
horizontal = 1;
place = "{794.25, 143}";
type = Stem;
},
{
place = "{80, 633.75}";
type = Stem;
}
);
layerId = "A9EE2906-FF39-4E72-95D8-9DA33406E6B9";
paths = (
{
closed = 1;
nodes = (
"583.75 0 LINE",
"603.87 114.37 LINE",
"225.56 114.37 LINE",
"263.39 328.87 LINE",
"608.75 328.87 LINE",
"628.87 443.25 LINE",
"283.55 443.25 LINE",
"315.18 622.62 LINE",
"693.5 622.62 LINE",
"713.75 737 LINE",
"209.95 737 LINE",
"80 0 LINE"
);
},
{
closed = 1;
nodes = (
"406.5 794.25 LINE",
"485.62 862.37 LINE",
"540.75 794.25 LINE",
"637.47 794.25 LINE",
"552.31 937.25 LINE",
"423.84 937.25 LINE",
"300.15 794.25 LINE"
);
}
);
width = 634;
}
);
note = Ecircumflex;
rightKerningGroup = AE;
unicode = 00CA;
},
{
glyphname = uni1EBE;
lastChange = "2019-09-04 12:42:51 +0000";
layers = (
{
hints = (
{
horizontal = 1;
place = "{0, 114.37}";
type = Stem;
},
{
horizontal = 1;
place = "{328.87, 114.38}";
type = Stem;
},
{
horizontal = 1;
place = "{622.62, 114.38}";
type = Stem;
},
{
horizontal = 1;
place = "{876.74, 154}";
type = Stem;
},
{
place = "{80, 837.82}";
type = Stem;
},
{
horizontal = 1;
place = "{794.25, 143}";
type = Stem;
}
);
layerId = "A9EE2906-FF39-4E72-95D8-9DA33406E6B9";
paths = (
{
closed = 1;
nodes = (
"583.75 0 LINE",
"603.87 114.37 LINE",
"225.56 114.37 LINE",
"263.39 328.87 LINE",
"608.75 328.87 LINE",
"628.87 443.25 LINE",
"283.55 443.25 LINE",
"315.18 622.62 LINE",
"693.5 622.62 LINE",
"713.75 737 LINE",
"209.95 737 LINE",
"80 0 LINE"
);
},
{
closed = 1;
nodes = (
"406.5 794.25 LINE",
"485.62 862.37 LINE",
"540.75 794.25 LINE",
"637.47 794.25 LINE",
"552.31 937.25 LINE",
"423.84 937.25 LINE",
"300.15 794.25 LINE"
);
},
{
closed = 1;
nodes = (
"742.94 876.74 LINE",
"917.82 1030.74 LINE",
"758.19 1030.74 LINE",
"629.82 876.74 LINE"
);
}
);
width = 634;
}
);
note = uni1EBE;
rightKerningGroup = AE;
unicode = 1EBE;
},
{
glyphname = uni1EC6;
lastChange = "2019-09-04 12:42:51 +0000";
layers = (
{
hints = (
{
horizontal = 1;
place = "{-182.63, 125.38}";
type = Stem;
},
{
horizontal = 1;
place = "{0, 114.37}";
type = Stem;
},
{
horizontal = 1;
place = "{328.87, 114.38}";
type = Stem;
},
{
horizontal = 1;
place = "{622.62, 114.38}";
type = Stem;
},
{
horizontal = 1;
place = "{794.25, 143}";
type = Stem;
},
{
place = "{80, 633.75}";
type = Stem;
}
);
layerId = "A9EE2906-FF39-4E72-95D8-9DA33406E6B9";
paths = (
{
closed = 1;
nodes = (
"583.75 0 LINE",
"603.87 114.37 LINE",
"225.56 114.37 LINE",
"263.39 328.87 LINE",
"608.75 328.87 LINE",
"628.87 443.25 LINE",
"283.55 443.25 LINE",
"315.18 622.62 LINE",
"693.5 622.62 LINE",
"713.75 737 LINE",
"209.95 737 LINE",
"80 0 LINE"
);
},
{
closed = 1;
nodes = (
"363.32 -182.63 LINE",
"385.45 -57.25 LINE",
"264.45 -57.25 LINE",
"242.32 -182.63 LINE"
);
},
{
closed = 1;
nodes = (
"406.5 794.25 LINE",
"485.62 862.37 LINE",
"540.75 794.25 LINE",
"637.47 794.25 LINE",
"552.31 937.25 LINE",
"423.84 937.25 LINE",
"300.15 794.25 LINE"
);
}
);
width = 634;
}
);
note = uni1EC6;
rightKerningGroup = AE;
unicode = 1EC6;
},
{
glyphname = uni1EC0;
lastChange = "2019-09-04 12:42:51 +0000";
layers = (
{
hints = (
{
horizontal = 1;
place = "{0, 114.37}";
type = Stem;
},
{
horizontal = 1;
place = "{328.87, 114.38}";
type = Stem;
},
{
horizontal = 1;
place = "{622.62, 114.38}";
type = Stem;
},
{
horizontal = 1;
place = "{876.73, 154}";
type = Stem;
},
{
place = "{80, 633.75}";
type = Stem;
},
{
horizontal = 1;
place = "{794.25, 143}";
type = Stem;
}
);
layerId = "A9EE2906-FF39-4E72-95D8-9DA33406E6B9";
paths = (
{
closed = 1;
nodes = (
"583.75 0 LINE",
"603.87 114.37 LINE",
"225.56 114.37 LINE",
"263.39 328.87 LINE",
"608.75 328.87 LINE",
"628.87 443.25 LINE",
"283.55 443.25 LINE",
"315.18 622.62 LINE",
"693.5 622.62 LINE",
"713.75 737 LINE",
"209.95 737 LINE",
"80 0 LINE"
);
},
{
closed = 1;
nodes = (
"328.77 876.73 LINE",
"254.8 1030.73 LINE",
"112.02 1030.73 LINE",
"231.02 876.73 LINE"
);
},
{
closed = 1;
nodes = (
"406.5 794.25 LINE",
"485.62 862.37 LINE",
"540.75 794.25 LINE",
"637.47 794.25 LINE",
"552.31 937.25 LINE",
"423.84 937.25 LINE",
"300.15 794.25 LINE"
);
}
);
width = 634;
}
);
leftKerningGroup = B;
note = uni1EC0;
rightKerningGroup = AE;
unicode = 1EC0;
},
{
glyphname = uni1EC2;
lastChange = "2019-09-04 12:42:51 +0000";
layers = (
{
hints = (
{
horizontal = 1;
place = "{0, 114.37}";
type = Stem;
},
{
horizontal = 1;
place = "{328.87, 114.38}";
type = Stem;
},
{
horizontal = 1;
place = "{622.62, 114.38}";
type = Stem;
},
{
horizontal = 1;
place = "{794.25, 143}";
type = Stem;
},
{
horizontal = 1;
place = "{1021.5, 71}";
type = Stem;
},
{
place = "{80, 714.25}";
type = Stem;
}
);
layerId = "A9EE2906-FF39-4E72-95D8-9DA33406E6B9";
paths = (
{
closed = 1;
nodes = (
"583.75 0 LINE",
"603.87 114.37 LINE",
"225.56 114.37 LINE",
"263.39 328.87 LINE",
"608.75 328.87 LINE",
"628.87 443.25 LINE",
"283.55 443.25 LINE",
"315.18 622.62 LINE",
"693.5 622.62 LINE",
"713.75 737 LINE",
"209.95 737 LINE",
"80 0 LINE"
);
},
{
closed = 1;
nodes = (
"406.5 794.25 LINE",
"485.62 862.37 LINE",
"540.75 794.25 LINE",
"637.47 794.25 LINE",
"552.31 937.25 LINE",
"423.84 937.25 LINE",
"300.15 794.25 LINE"
);
},
{
closed = 1;
nodes = (
"695 876.75 LINE",
"699.94 904.72 LINE",
"781.19 958.61 LINE",
"794.25 1032.69 LINE",
"745.97 1092.5 LINE",
"629.15 1092.5 LINE",
"574.26 1046.44 LINE",
"623.75 985.87 LINE",
"666.25 1021.5 LINE",
"696.84 1021.5 LINE",
"703.53 1013.37 LINE",
"700.75 997.87 LINE",
"626.87 945.87 LINE",
"614.62 876.75 LINE"
);
}
);
width = 634;
}
);
note = uni1EC2;
rightKerningGroup = AE;
unicode = 1EC2;
},
{
glyphname = uni1EC4;
lastChange = "2019-09-04 12:42:51 +0000";
layers = (
{
hints = (
{
horizontal = 1;
place = "{0, 114.37}";
type = Stem;
},
{
horizontal = 1;
place = "{328.87, 114.38}";
type = Stem;
},
{
horizontal = 1;
place = "{622.62, 114.38}";
type = Stem;
},
{
horizontal = 1;
place = "{1032.87, 75.88}";
type = Stem;
},
{
place = "{80, 633.75}";
type = Stem;
},
{
horizontal = 1;
place = "{966.87, 75.88}";
type = Stem;
},
{
horizontal = 1;
place = "{794.25, 143}";
type = Stem;
}
);
layerId = "A9EE2906-FF39-4E72-95D8-9DA33406E6B9";
paths = (
{
closed = 1;
nodes = (
"583.75 0 LINE",
"603.87 114.37 LINE",
"225.56 114.37 LINE",
"263.39 328.87 LINE",
"608.75 328.87 LINE",
"628.87 443.25 LINE",
"283.55 443.25 LINE",
"315.18 622.62 LINE",
"693.5 622.62 LINE",
"713.75 737 LINE",
"209.95 737 LINE",
"80 0 LINE"
);
},
{
closed = 1;
nodes = (
"406.5 794.25 LINE",
"485.62 862.37 LINE",
"540.75 794.25 LINE",
"637.47 794.25 LINE",
"552.31 937.25 LINE",
"423.84 937.25 LINE",
"300.15 794.25 LINE"
);
},
{
closed = 1;
nodes = (
"623.25 966.87 LINE",
"690.23 1024.07 LINE",
"705.85 1105.37 LINE",
"634.12 1105.37 LINE",
"629.5 1079 LINE",
"587.87 1042.75 LINE",
"551.83 1042.75 LINE",
"494.07 1108.75 LINE",
"375.8 1108.75 LINE",
"308.71 1051.13 LINE",
"293.23 970.12 LINE",
"365 970.12 LINE",
"369.62 996.5 LINE",
"411.12 1032.87 LINE",
"447.06 1032.87 LINE",
"504.86 966.87 LINE"
);
}
);
width = 634;
}
);
note = uni1EC4;
rightKerningGroup = AE;
unicode = 1EC4;
},
{
glyphname = uni0204;
lastChange = "2019-09-04 12:42:51 +0000";
layers = (
{
hints = (
{
horizontal = 1;
place = "{0, 114.37}";
type = Stem;
},
{
horizontal = 1;
place = "{328.87, 114.38}";
type = Stem;
},
{
horizontal = 1;
place = "{622.62, 114.38}";
type = Stem;
},
{
horizontal = 1;
place = "{794.25, 154}";
type = Stem;
},
{
place = "{80, 633.75}";
type = Stem;
}
);
layerId = "A9EE2906-FF39-4E72-95D8-9DA33406E6B9";
paths = (
{
closed = 1;
nodes = (
"583.75 0 LINE",
"603.87 114.37 LINE",
"225.56 114.37 LINE",
"263.39 328.87 LINE",
"608.75 328.87 LINE",
"628.87 443.25 LINE",
"283.55 443.25 LINE",
"315.18 622.62 LINE",
"693.5 622.62 LINE",
"713.75 737 LINE",
"209.95 737 LINE",
"80 0 LINE"
);
},
{
closed = 1;
nodes = (
"409.77 794.25 LINE",
"335.8 948.25 LINE",
"193.03 948.25 LINE",
"312.03 794.25 LINE"
);
},
{
closed = 1;
nodes = (
"604.08 794.25 LINE",
"530.11 948.25 LINE",
"387.34 948.25 LINE",
"506.34 794.25 LINE"
);
}
);
width = 634;
}
);
leftKerningGroup = B;
note = uni0204;
rightKerningGroup = AE;
unicode = 0204;
},
{
glyphname = Edieresis;
lastChange = "2019-09-04 12:42:51 +0000";
layers = (
{
hints = (
{
horizontal = 1;
place = "{0, 114.37}";
type = Stem;
},
{
horizontal = 1;
place = "{328.87, 114.38}";
type = Stem;
},
{
horizontal = 1;
place = "{622.62, 114.38}";
type = Stem;
},
{
horizontal = 1;
place = "{794.25, 125.5}";
type = Stem;
},
{
place = "{80, 633.75}";
type = Stem;
}
);
layerId = "A9EE2906-FF39-4E72-95D8-9DA33406E6B9";
paths = (
{
closed = 1;
nodes = (
"583.75 0 LINE",
"603.87 114.37 LINE",
"225.56 114.37 LINE",
"263.39 328.87 LINE",
"608.75 328.87 LINE",
"628.87 443.25 LINE",
"283.55 443.25 LINE",
"315.18 622.62 LINE",
"693.5 622.62 LINE",
"713.75 737 LINE",
"209.95 737 LINE",
"80 0 LINE"
);
},
{
closed = 1;
nodes = (
"400.62 794.25 LINE",
"422.75 919.75 LINE",
"301.75 919.75 LINE",
"279.62 794.25 LINE"
);
},
{
closed = 1;
nodes = (
"665.62 794.25 LINE",
"687.75 919.75 LINE",
"566.75 919.75 LINE",
"544.62 794.25 LINE"
);
}
);
width = 634;
}
);
note = Edieresis;
rightKerningGroup = AE;
unicode = 00CB;
},
{
glyphname = Edotaccent;
lastChange = "2019-09-04 12:42:51 +0000";
layers = (
{
hints = (
{
horizontal = 1;
place = "{0, 114.37}";
type = Stem;
},
{
horizontal = 1;
place = "{328.87, 114.38}";
type = Stem;
},
{
horizontal = 1;
place = "{622.62, 114.38}";
type = Stem;
},
{
horizontal = 1;
place = "{794.25, 125.37}";
type = Stem;
},
{
place = "{80, 633.75}";
type = Stem;
}
);
layerId = "A9EE2906-FF39-4E72-95D8-9DA33406E6B9";
paths = (
{
closed = 1;
nodes = (
"583.75 0 LINE",
"603.87 114.37 LINE",
"225.56 114.37 LINE",
"263.39 328.87 LINE",
"608.75 328.87 LINE",
"628.87 443.25 LINE",
"283.55 443.25 LINE",
"315.18 622.62 LINE",
"693.5 622.62 LINE",
"713.75 737 LINE",
"209.95 737 LINE",
"80 0 LINE"
);
},
{
closed = 1;
nodes = (
"534.12 794.25 LINE",
"556.25 919.62 LINE",
"435.25 919.62 LINE",
"413.12 794.25 LINE"
);
}
);
width = 634;
}
);
note = Edotaccent;
rightKerningGroup = AE;
unicode = 0116;
},
{
glyphname = uni1EB8;
lastChange = "2019-09-04 12:42:51 +0000";
layers = (
{
hints = (
{
horizontal = 1;
place = "{-182.63, 125.38}";
type = Stem;
},
{
horizontal = 1;
place = "{0, 114.37}";
type = Stem;
},
{
horizontal = 1;
place = "{328.87, 114.38}";
type = Stem;
},
{
horizontal = 1;
place = "{622.62, 114.38}";
type = Stem;
},
{
place = "{80, 633.75}";
type = Stem;
}
);
layerId = "A9EE2906-FF39-4E72-95D8-9DA33406E6B9";
paths = (
{
closed = 1;
nodes = (
"583.75 0 LINE",
"603.87 114.37 LINE",
"225.56 114.37 LINE",
"263.39 328.87 LINE",
"608.75 328.87 LINE",
"628.87 443.25 LINE",
"283.55 443.25 LINE",
"315.18 622.62 LINE",
"693.5 622.62 LINE",
"713.75 737 LINE",
"209.95 737 LINE",
"80 0 LINE"
);
},
{
closed = 1;
nodes = (
"363.32 -182.63 LINE",
"385.45 -57.25 LINE",
"264.45 -57.25 LINE",
"242.32 -182.63 LINE"
);
}
);
width = 634;
}
);
note = uni1EB8;
rightKerningGroup = AE;
unicode = 1EB8;
},
{
glyphname = Egrave;
lastChange = "2019-09-04 12:42:51 +0000";
layers = (
{
hints = (
{
horizontal = 1;
place = "{0, 114.37}";
type = Stem;
},
{
horizontal = 1;
place = "{328.87, 114.38}";
type = Stem;
},
{
horizontal = 1;
place = "{622.62, 114.38}";
type = Stem;
},
{
horizontal = 1;
place = "{794.25, 154}";
type = Stem;
},
{
place = "{80, 633.75}";
type = Stem;
}
);
layerId = "A9EE2906-FF39-4E72-95D8-9DA33406E6B9";
paths = (
{
closed = 1;
nodes = (
"583.75 0 LINE",
"603.87 114.37 LINE",
"225.56 114.37 LINE",
"263.39 328.87 LINE",
"608.75 328.87 LINE",
"628.87 443.25 LINE",
"283.55 443.25 LINE",
"315.18 622.62 LINE",
"693.5 622.62 LINE",
"713.75 737 LINE",
"209.95 737 LINE",
"80 0 LINE"
);
},
{
closed = 1;
nodes = (
"502.24 794.25 LINE",
"428.27 948.25 LINE",
"285.49 948.25 LINE",
"404.49 794.25 LINE"
);
}
);
width = 634;
}
);
note = Egrave;
rightKerningGroup = AE;
unicode = 00C8;
},
{
glyphname = uni1EBA;
lastChange = "2019-09-04 12:42:51 +0000";
layers = (
{
hints = (
{
horizontal = 1;
place = "{0, 114.37}";
type = Stem;
},
{
horizontal = 1;
place = "{328.87, 114.38}";
type = Stem;
},
{
horizontal = 1;
place = "{622.62, 114.38}";
type = Stem;
},
{
horizontal = 1;
place = "{939, 71}";
type = Stem;
},
{
place = "{80, 633.75}";
type = Stem;
}
);
layerId = "A9EE2906-FF39-4E72-95D8-9DA33406E6B9";
paths = (
{
closed = 1;
nodes = (
"583.75 0 LINE",
"603.87 114.37 LINE",
"225.56 114.37 LINE",
"263.39 328.87 LINE",
"608.75 328.87 LINE",
"628.87 443.25 LINE",
"283.55 443.25 LINE",
"315.18 622.62 LINE",
"693.5 622.62 LINE",
"713.75 737 LINE",
"209.95 737 LINE",
"80 0 LINE"
);
},
{
closed = 1;
nodes = (
"510.75 794.25 LINE",
"515.68 822.22 LINE",
"596.94 876.11 LINE",
"610 950.19 LINE",
"561.71 1010 LINE",
"444.9 1010 LINE",
"390 963.94 LINE",
"439.5 903.37 LINE",
"482 939 LINE",
"512.59 939 LINE",
"519.28 930.87 LINE",
"516.5 915.37 LINE",
"442.62 863.37 LINE",
"430.37 794.25 LINE"
);
}
);
width = 634;
}
);
note = uni1EBA;
rightKerningGroup = AE;
unicode = 1EBA;
},
{
glyphname = uni0206;
lastChange = "2019-09-04 12:42:51 +0000";
layers = (
{
hints = (
{
horizontal = 1;
place = "{0, 114.37}";
type = Stem;
},
{
horizontal = 1;
place = "{328.87, 114.38}";
type = Stem;
},
{
horizontal = 1;
place = "{622.62, 114.38}";
type = Stem;
},
{
horizontal = 1;
place = "{859.12, 78.13}";
type = Stem;
},
{
place = "{80, 633.75}";
type = Stem;
}
);
layerId = "A9EE2906-FF39-4E72-95D8-9DA33406E6B9";
paths = (
{
closed = 1;
nodes = (
"583.75 0 LINE",
"603.87 114.37 LINE",
"225.56 114.37 LINE",
"263.39 328.87 LINE",
"608.75 328.87 LINE",
"628.87 443.25 LINE",
"283.55 443.25 LINE",
"315.18 622.62 LINE",
"693.5 622.62 LINE",
"713.75 737 LINE",
"209.95 737 LINE",
"80 0 LINE"
);
},
{
closed = 1;
nodes = (
"401.25 794.25 LINE",
"409 838.25 LINE",
"433.62 859.12 LINE",
"532.62 859.12 LINE",
"549.75 838.25 LINE",
"542 794.25 LINE",
"622.37 794.25 LINE",
"633.68 858.28 LINE",
"569.29 937.25 LINE",
"405.65 937.25 LINE",
"335.68 878.12 LINE",
"320.87 794.25 LINE"
);
}
);
width = 634;
}
);
note = uni0206;
rightKerningGroup = AE;
unicode = 0206;
},
{
glyphname = Emacron;
lastChange = "2019-09-04 12:42:51 +0000";
layers = (
{
hints = (
{
horizontal = 1;
place = "{0, 114.37}";
type = Stem;
},
{
horizontal = 1;
place = "{328.87, 114.38}";
type = Stem;
},
{
horizontal = 1;
place = "{622.62, 114.38}";
type = Stem;
},
{
horizontal = 1;
place = "{794.25, 90.12}";
type = Stem;
},
{
place = "{80, 633.75}";
type = Stem;
}
);
layerId = "A9EE2906-FF39-4E72-95D8-9DA33406E6B9";
paths = (
{
closed = 1;
nodes = (
"583.75 0 LINE",
"603.87 114.37 LINE",
"225.56 114.37 LINE",
"263.39 328.87 LINE",
"608.75 328.87 LINE",
"628.87 443.25 LINE",
"283.55 443.25 LINE",
"315.18 622.62 LINE",
"693.5 622.62 LINE",
"713.75 737 LINE",
"209.95 737 LINE",
"80 0 LINE"
);
},
{
closed = 1;
nodes = (
"666.62 794.25 LINE",
"682.62 884.37 LINE",
"296.62 884.37 LINE",
"280.62 794.25 LINE"
);
}
);
width = 634;
}
);
note = Emacron;
rightKerningGroup = AE;
unicode = 0112;
},
{
glyphname = Eogonek;
lastChange = "2019-09-04 12:42:51 +0000";
layers = (
{
hints = (
{
horizontal = 1;
place = "{-171.63, 81.38}";
type = Stem;
},
{
horizontal = 1;
place = "{0, 114.37}";
type = Stem;
},
{
horizontal = 1;
place = "{328.87, 114.38}";
type = Stem;
},
{
horizontal = 1;
place = "{622.62, 114.38}";
type = Stem;
},
{
place = "{80, 633.75}";
type = Stem;
}
);
layerId = "A9EE2906-FF39-4E72-95D8-9DA33406E6B9";
paths = (
{
closed = 1;
nodes = (
"553.5 -171.63 LINE",
"567.87 -90.25 LINE",
"536 -90.25 LINE",
"518.62 -69.25 LINE",
"524.12 -38.5 LINE",
"583.75 0 LINE",
"603.87 114.37 LINE",
"225.56 114.37 LINE",
"263.39 328.87 LINE",
"608.75 328.87 LINE",
"628.87 443.25 LINE",
"283.55 443.25 LINE",
"315.18 622.62 LINE",
"693.5 622.62 LINE",
"713.75 737 LINE",
"209.95 737 LINE",
"80 0 LINE",
"492.99 0 LINE",
"450.1 -27.81 LINE",
"437.7 -98.13 LINE",
"498.05 -171.63 LINE"
);
}
);
width = 634;
}
);
note = Eogonek;
rightKerningGroup = AE;
unicode = 0118;
},
{
glyphname = uni1EBC;
lastChange = "2019-09-04 12:42:51 +0000";
layers = (
{
hints = (
{
horizontal = 1;
place = "{0, 114.37}";
type = Stem;
},
{
horizontal = 1;
place = "{328.87, 114.38}";
type = Stem;
},
{
horizontal = 1;
place = "{622.62, 114.38}";
type = Stem;
},
{
horizontal = 1;
place = "{860.25, 75.87}";
type = Stem;
},
{
place = "{80, 633.75}";
type = Stem;
},
{
horizontal = 1;
place = "{794.25, 75.87}";
type = Stem;
}
);
layerId = "A9EE2906-FF39-4E72-95D8-9DA33406E6B9";
paths = (
{
closed = 1;
nodes = (
"583.75 0 LINE",
"603.87 114.37 LINE",
"225.56 114.37 LINE",
"263.39 328.87 LINE",
"608.75 328.87 LINE",
"628.87 443.25 LINE",
"283.55 443.25 LINE",
"315.18 622.62 LINE",
"693.5 622.62 LINE",
"713.75 737 LINE",
"209.95 737 LINE",
"80 0 LINE"
);
},
{
closed = 1;
nodes = (
"612.63 794.25 LINE",
"679.6 851.45 LINE",
"695.23 932.75 LINE",
"623.5 932.75 LINE",
"618.87 906.37 LINE",
"577.25 870.12 LINE",
"541.2 870.12 LINE",
"483.44 936.12 LINE",
"365.17 936.12 LINE",
"298.09 878.5 LINE",
"282.61 797.5 LINE",
"354.37 797.5 LINE",
"359 823.87 LINE",
"400.5 860.25 LINE",
"436.43 860.25 LINE",
"494.23 794.25 LINE"
);
}
);
width = 634;
}
);
note = uni1EBC;
rightKerningGroup = AE;
unicode = 1EBC;
},
{
glyphname = F;
lastChange = "2019-09-04 12:42:51 +0000";
layers = (
{
hints = (
{
horizontal = 1;
place = "{315.75, 114.37}";
type = Stem;
},
{
horizontal = 1;
place = "{622.62, 114.38}";
type = Stem;
},
{
place = "{80, 622.75}";
type = Stem;
}
);
layerId = "A9EE2906-FF39-4E72-95D8-9DA33406E6B9";
paths = (
{
closed = 1;
nodes = (
"205.4 0 LINE",
"261.07 315.75 LINE",
"584.37 315.75 LINE",
"604.62 430.12 LINE",
"281.24 430.12 LINE",
"315.18 622.62 LINE",
"682.5 622.62 LINE",
"702.75 737 LINE",
"209.95 737 LINE",
"80 0 LINE"
);
}
);
width = 583;
}
);
note = F;
rightKerningGroup = F;
unicode = 0046;
},
{
glyphname = G;
lastChange = "2019-09-04 12:42:51 +0000";
layers = (
{
hints = (
{
horizontal = 1;
place = "{0, 109.88}";
type = Stem;
},
{
horizontal = 1;
place = "{294.75, 110}";
type = Stem;
},
{
horizontal = 1;
place = "{626.88, 110.06}";
type = Stem;
},
{
place = "{81.99, 664.76}";
type = Stem;
}
);
layerId = "A9EE2906-FF39-4E72-95D8-9DA33406E6B9";
paths = (
{
closed = 1;
nodes = (
"451.52 0 LINE",
"549.62 75.68 LINE",
"536.27 0 LINE",
"639.64 0 LINE",
"711.02 404.75 LINE",
"439.27 404.75 LINE",
"419.89 294.75 LINE",
"588.27 294.75 LINE",
"575.4 221.83 LINE",
"430.14 110 LINE",
"248.64 109.75 LINE",
"212.64 154 LINE",
"287.77 583 LINE",
"339.77 626.75 LINE",
"597.27 627 LINE",
"657.27 555.5 LINE",
"746.75 632.41 LINE",
"660.96 736.87 LINE",
"285.6 737 LINE",
"173.01 641.44 LINE",
"81.99 125.17 LINE",
"185.2 0 LINE"
);
}
);
width = 720;
}
);
leftKerningGroup = C;
note = G;
rightKerningGroup = G;
unicode = 0047;
},
{
glyphname = Gbreve;
lastChange = "2019-09-04 12:42:51 +0000";
layers = (
{
hints = (
{
horizontal = 1;
place = "{0, 109.88}";
type = Stem;
},
{
horizontal = 1;
place = "{294.75, 110}";
type = Stem;
},
{
horizontal = 1;
place = "{626.88, 110.06}";
type = Stem;
},
{
horizontal = 1;
place = "{794.21, 78.04}";
type = Stem;
},
{
place = "{81.99, 664.76}";
type = Stem;
},
{
horizontal = 1;
place = "{893.25, 44}";
type = Stem;
}
);
layerId = "A9EE2906-FF39-4E72-95D8-9DA33406E6B9";
paths = (
{
closed = 1;
nodes = (
"451.52 0 LINE",
"549.62 75.68 LINE",
"536.27 0 LINE",
"639.64 0 LINE",
"711.02 404.75 LINE",
"439.27 404.75 LINE",
"419.89 294.75 LINE",
"588.27 294.75 LINE",
"575.4 221.83 LINE",
"430.14 110 LINE",
"248.64 109.75 LINE",
"212.64 154 LINE",
"287.77 583 LINE",
"339.77 626.75 LINE",
"597.27 627 LINE",
"657.27 555.5 LINE",
"746.75 632.41 LINE",
"660.96 736.87 LINE",
"285.6 737 LINE",
"173.01 641.44 LINE",
"81.99 125.17 LINE",
"185.2 0 LINE"
);
},
{
closed = 1;
nodes = (
"562.44 794.25 LINE",
"632.32 853.18 LINE",
"647.14 937.25 LINE",
"566.77 937.25 LINE",
"559.02 893.25 LINE",
"534.39 872.25 LINE",
"435.39 872.25 LINE",
"418.27 893.25 LINE",
"426.02 937.25 LINE",
"345.64 937.25 LINE",
"334.18 872.25 LINE",
"399.22 794.17 LINE"
);
}
);
width = 720;
}
);
leftKerningGroup = C;
note = Gbreve;
rightKerningGroup = G;
unicode = 011E;
},
{
glyphname = Gcaron;
lastChange = "2019-09-04 12:42:51 +0000";
layers = (
{
hints = (
{
horizontal = 1;
place = "{0, 109.88}";
type = Stem;
},
{
horizontal = 1;
place = "{294.75, 110}";
type = Stem;
},
{
horizontal = 1;
place = "{626.88, 110.06}";
type = Stem;
},
{
horizontal = 1;
place = "{794.25, 143}";
type = Stem;
},
{
place = "{81.99, 664.76}";
type = Stem;
}
);
layerId = "A9EE2906-FF39-4E72-95D8-9DA33406E6B9";
paths = (
{
closed = 1;
nodes = (
"451.52 0 LINE",
"549.62 75.68 LINE",
"536.27 0 LINE",
"639.64 0 LINE",
"711.02 404.75 LINE",
"439.27 404.75 LINE",
"419.89 294.75 LINE",
"588.27 294.75 LINE",
"575.4 221.83 LINE",
"430.14 110 LINE",
"248.64 109.75 LINE",
"212.64 154 LINE",
"287.77 583 LINE",
"339.77 626.75 LINE",
"597.27 627 LINE",
"657.27 555.5 LINE",
"746.75 632.41 LINE",
"660.96 736.87 LINE",
"285.6 737 LINE",
"173.01 641.44 LINE",
"81.99 125.17 LINE",
"185.2 0 LINE"
);
},
{
closed = 1;
nodes = (
"539.66 794.25 LINE",
"663.35 937.25 LINE",
"557 937.25 LINE",
"477.87 869.12 LINE",
"422.75 937.25 LINE",
"326.03 937.25 LINE",
"411.19 794.25 LINE"
);
}
);
width = 720;
}
);
leftKerningGroup = C;
note = Gcaron;
rightKerningGroup = G;
unicode = 01E6;
},
{
glyphname = Gcircumflex;
lastChange = "2019-09-04 12:42:51 +0000";
layers = (
{
hints = (
{
horizontal = 1;
place = "{0, 109.88}";
type = Stem;
},
{
horizontal = 1;
place = "{294.75, 110}";
type = Stem;
},
{
horizontal = 1;
place = "{626.88, 110.06}";
type = Stem;
},
{
horizontal = 1;
place = "{794.25, 143}";
type = Stem;
},
{
place = "{81.99, 664.76}";
type = Stem;
}
);
layerId = "A9EE2906-FF39-4E72-95D8-9DA33406E6B9";
paths = (
{
closed = 1;
nodes = (
"451.52 0 LINE",
"549.62 75.68 LINE",
"536.27 0 LINE",
"639.64 0 LINE",
"711.02 404.75 LINE",
"439.27 404.75 LINE",
"419.89 294.75 LINE",
"588.27 294.75 LINE",
"575.4 221.83 LINE",
"430.14 110 LINE",
"248.64 109.75 LINE",
"212.64 154 LINE",
"287.77 583 LINE",
"339.77 626.75 LINE",
"597.27 627 LINE",
"657.27 555.5 LINE",
"746.75 632.41 LINE",
"660.96 736.87 LINE",
"285.6 737 LINE",
"173.01 641.44 LINE",
"81.99 125.17 LINE",
"185.2 0 LINE"
);
},
{
closed = 1;
nodes = (
"412.02 794.25 LINE",
"491.14 862.37 LINE",
"546.27 794.25 LINE",
"642.99 794.25 LINE",
"557.83 937.25 LINE",
"429.36 937.25 LINE",
"305.67 794.25 LINE"
);
}
);
width = 720;
}
);
leftKerningGroup = C;
note = Gcircumflex;
rightKerningGroup = G;
unicode = 011C;
},
{
glyphname = uni0122;
lastChange = "2019-09-04 12:42:51 +0000";
layers = (
{
hints = (
{
horizontal = 1;
place = "{-239.75, 182.5}";
type = Stem;
},
{
horizontal = 1;
place = "{0, 109.88}";
type = Stem;
},
{
horizontal = 1;
place = "{294.75, 110}";
type = Stem;
},
{
horizontal = 1;
place = "{626.88, 110.06}";
type = Stem;
},
{
place = "{81.99, 664.76}";
type = Stem;
}
);
layerId = "A9EE2906-FF39-4E72-95D8-9DA33406E6B9";
paths = (
{
closed = 1;
nodes = (
"451.52 0 LINE",
"549.62 75.68 LINE",
"536.27 0 LINE",
"639.64 0 LINE",
"711.02 404.75 LINE",
"439.27 404.75 LINE",
"419.89 294.75 LINE",
"588.27 294.75 LINE",
"575.4 221.83 LINE",
"430.14 110 LINE",
"248.64 109.75 LINE",
"212.64 154 LINE",
"287.77 583 LINE",
"339.77 626.75 LINE",
"597.27 627 LINE",
"657.27 555.5 LINE",
"746.75 632.41 LINE",
"660.96 736.87 LINE",
"285.6 737 LINE",
"173.01 641.44 LINE",
"81.99 125.17 LINE",
"185.2 0 LINE"
);
},
{
closed = 1;
nodes = (
"260.01 -239.75 LINE",
"391.91 -57.25 LINE",
"262.02 -57.25 LINE",
"189.27 -239.75 LINE"
);
}
);
width = 720;
}
);
leftKerningGroup = C;
note = uni0122;
rightKerningGroup = G;
unicode = 0122;
},
{
glyphname = Gdotaccent;
lastChange = "2019-09-04 12:42:51 +0000";
layers = (
{
hints = (
{
horizontal = 1;
place = "{0, 109.88}";
type = Stem;
},
{
horizontal = 1;
place = "{294.75, 110}";
type = Stem;
},
{
horizontal = 1;
place = "{626.88, 110.06}";
type = Stem;
},
{
horizontal = 1;
place = "{794.25, 125.37}";
type = Stem;
},
{
place = "{81.99, 664.76}";
type = Stem;
}
);
layerId = "A9EE2906-FF39-4E72-95D8-9DA33406E6B9";
paths = (
{
closed = 1;
nodes = (
"451.52 0 LINE",
"549.62 75.68 LINE",
"536.27 0 LINE",
"639.64 0 LINE",
"711.02 404.75 LINE",
"439.27 404.75 LINE",
"419.89 294.75 LINE",
"588.27 294.75 LINE",
"575.4 221.83 LINE",
"430.14 110 LINE",
"248.64 109.75 LINE",
"212.64 154 LINE",
"287.77 583 LINE",
"339.77 626.75 LINE",
"597.27 627 LINE",
"657.27 555.5 LINE",
"746.75 632.41 LINE",
"660.96 736.87 LINE",
"285.6 737 LINE",
"173.01 641.44 LINE",
"81.99 125.17 LINE",
"185.2 0 LINE"
);
},
{
closed = 1;
nodes = (
"539.64 794.25 LINE",
"561.77 919.62 LINE",
"440.77 919.62 LINE",
"418.64 794.25 LINE"
);
}
);
width = 720;
}
);
leftKerningGroup = C;
note = Gdotaccent;
rightKerningGroup = G;
unicode = 0120;
},
{
glyphname = H;
lastChange = "2019-09-04 12:42:51 +0000";
layers = (
{
hints = (
{
horizontal = 1;
place = "{331.12, 110}";
type = Stem;
},
{
place = "{80, 702.98}";
type = Stem;
}
);
layerId = "A9EE2906-FF39-4E72-95D8-9DA33406E6B9";
paths = (
{
closed = 1;
nodes = (
"205.4 0 LINE",
"263.78 331.12 LINE",
"586.01 331.12 LINE",
"527.62 0 LINE",
"653.02 0 LINE",
"782.98 737 LINE",
"657.58 737 LINE",
"605.4 441.12 LINE",
"283.18 441.12 LINE",
"335.35 737 LINE",
"209.95 737 LINE",
"80 0 LINE"
);
}
);
width = 733;
}
);
leftKerningGroup = B;
note = H;
rightKerningGroup = H;
unicode = 0048;
},
{
glyphname = Hbar;
lastChange = "2019-09-04 12:42:51 +0000";
layers = (
{
hints = (
{
horizontal = 1;
place = "{331.12, 110}";
type = Stem;
},
{
horizontal = 1;
place = "{533.75, 99}";
type = Stem;
},
{
place = "{80, 743.62}";
type = Stem;
}
);
layerId = "A9EE2906-FF39-4E72-95D8-9DA33406E6B9";
paths = (
{
closed = 1;
nodes = (
"205.4 0 LINE",
"263.78 331.12 LINE",
"586.01 331.12 LINE",
"527.62 0 LINE",
"653.02 0 LINE",
"747.14 533.75 LINE",
"806.12 533.75 LINE",
"823.62 632.75 LINE",
"764.59 632.75 LINE",
"782.98 737 LINE",
"657.58 737 LINE",
"639.19 632.75 LINE",
"316.97 632.75 LINE",
"335.35 737 LINE",
"209.95 737 LINE",
"191.57 632.75 LINE",
"129.62 632.75 LINE",
"112.12 533.75 LINE",
"174.11 533.75 LINE",
"80 0 LINE"
);
},
{
closed = 1;
nodes = (
"299.51 533.75 LINE",
"621.74 533.75 LINE",
"605.4 441.12 LINE",
"283.18 441.12 LINE"
);
}
);
width = 733;
}
);
note = Hbar;
unicode = 0126;
},
{
glyphname = Hcircumflex;
lastChange = "2019-09-04 12:42:51 +0000";
layers = (
{
hints = (
{
horizontal = 1;
place = "{331.12, 110}";
type = Stem;
},
{
horizontal = 1;
place = "{794.25, 143}";
type = Stem;
},
{
place = "{80, 702.98}";
type = Stem;
}
);
layerId = "A9EE2906-FF39-4E72-95D8-9DA33406E6B9";
paths = (
{
closed = 1;
nodes = (
"205.4 0 LINE",
"263.78 331.12 LINE",
"586.01 331.12 LINE",
"527.62 0 LINE",
"653.02 0 LINE",
"782.98 737 LINE",
"657.58 737 LINE",
"605.4 441.12 LINE",
"283.18 441.12 LINE",
"335.35 737 LINE",
"209.95 737 LINE",
"80 0 LINE"
);
},
{
closed = 1;
nodes = (
"445.5 794.25 LINE",
"524.62 862.37 LINE",
"579.75 794.25 LINE",
"676.47 794.25 LINE",
"591.31 937.25 LINE",
"462.84 937.25 LINE",
"339.15 794.25 LINE"
);
}
);
width = 733;
}
);
leftKerningGroup = B;
note = Hcircumflex;
rightKerningGroup = H;
unicode = 0124;
},
{
glyphname = I;
lastChange = "2019-09-04 12:42:51 +0000";
layers = (
{
hints = (
{
horizontal = 1;
place = "{0, 114.37}";
type = Stem;
},
{
horizontal = 1;
place = "{622.62, 114.38}";
type = Stem;
},
{
place = "{60, 405}";
type = Stem;
}
);
layerId = "A9EE2906-FF39-4E72-95D8-9DA33406E6B9";
paths = (
{
closed = 1;
nodes = (
"335 0 LINE",
"355.12 114.37 LINE",
"280.31 114.37 LINE",
"369.93 622.62 LINE",
"444.75 622.62 LINE",
"465 737 LINE",
"190 737 LINE",
"169.75 622.62 LINE",
"244.53 622.62 LINE",
"154.91 114.37 LINE",
"80.12 114.37 LINE",
"60 0 LINE"
);
}
);
width = 395;
}
);
leftKerningGroup = B;
note = I;
rightKerningGroup = H;
unicode = 0049;
},
{
glyphname = Iacute;
lastChange = "2019-09-04 12:42:51 +0000";
layers = (
{
hints = (
{
horizontal = 1;
place = "{0, 114.37}";
type = Stem;
},
{
horizontal = 1;
place = "{622.62, 114.38}";
type = Stem;
},
{
horizontal = 1;
place = "{794.25, 154}";
type = Stem;
},
{
place = "{60, 510.01}";
type = Stem;
}
);
layerId = "A9EE2906-FF39-4E72-95D8-9DA33406E6B9";
paths = (
{
closed = 1;
nodes = (
"335 0 LINE",
"355.12 114.37 LINE",
"280.31 114.37 LINE",
"369.93 622.62 LINE",
"444.75 622.62 LINE",
"465 737 LINE",
"190 737 LINE",
"169.75 622.62 LINE",
"244.53 622.62 LINE",
"154.91 114.37 LINE",
"80.12 114.37 LINE",
"60 0 LINE"
);
},
{
closed = 1;
nodes = (
"395.13 794.25 LINE",
"570.01 948.25 LINE",
"410.38 948.25 LINE",
"282.01 794.25 LINE"
);
}
);
width = 395;
}
);
leftKerningGroup = B;
note = Iacute;
rightKerningGroup = H;
unicode = 00CD;
},
{
glyphname = Ibreve;
lastChange = "2019-09-04 12:42:51 +0000";
layers = (
{
hints = (
{
horizontal = 1;
place = "{0, 114.37}";
type = Stem;
},
{
horizontal = 1;
place = "{622.62, 114.38}";
type = Stem;
},
{
horizontal = 1;
place = "{794.21, 78.04}";
type = Stem;
},
{
place = "{60, 445.63}";
type = Stem;
},
{
horizontal = 1;
place = "{893.25, 44}";
type = Stem;
}
);
layerId = "A9EE2906-FF39-4E72-95D8-9DA33406E6B9";
paths = (
{
closed = 1;
nodes = (
"335 0 LINE",
"355.12 114.37 LINE",
"280.31 114.37 LINE",
"369.93 622.62 LINE",
"444.75 622.62 LINE",
"465 737 LINE",
"190 737 LINE",
"169.75 622.62 LINE",
"244.53 622.62 LINE",
"154.91 114.37 LINE",
"80.12 114.37 LINE",
"60 0 LINE"
);
},
{
closed = 1;
nodes = (
"420.94 794.25 LINE",
"490.82 853.18 LINE",
"505.63 937.25 LINE",
"425.26 937.25 LINE",
"417.51 893.25 LINE",
"392.88 872.25 LINE",
"293.88 872.25 LINE",
"276.76 893.25 LINE",
"284.51 937.25 LINE",
"204.13 937.25 LINE",
"192.68 872.25 LINE",
"257.71 794.17 LINE"
);
}
);
width = 395;
}
);
leftKerningGroup = B;
note = Ibreve;
rightKerningGroup = H;
unicode = 012C;
},
{
glyphname = Icircumflex;
lastChange = "2019-09-04 12:42:51 +0000";
layers = (
{
hints = (
{
horizontal = 1;
place = "{0, 114.37}";
type = Stem;
},
{
horizontal = 1;
place = "{622.62, 114.38}";
type = Stem;
},
{
horizontal = 1;
place = "{794.25, 143}";
type = Stem;
},
{
place = "{60, 441.48}";
type = Stem;
}
);
layerId = "A9EE2906-FF39-4E72-95D8-9DA33406E6B9";
paths = (
{
closed = 1;
nodes = (
"335 0 LINE",
"355.12 114.37 LINE",
"280.31 114.37 LINE",
"369.93 622.62 LINE",
"444.75 622.62 LINE",
"465 737 LINE",
"190 737 LINE",
"169.75 622.62 LINE",
"244.53 622.62 LINE",
"154.91 114.37 LINE",
"80.12 114.37 LINE",
"60 0 LINE"
);
},
{
closed = 1;
nodes = (
"270.51 794.25 LINE",
"349.63 862.37 LINE",
"404.76 794.25 LINE",
"501.48 794.25 LINE",
"416.32 937.25 LINE",
"287.85 937.25 LINE",
"164.16 794.25 LINE"
);
}
);
width = 395;
}
);
leftKerningGroup = B;
note = Icircumflex;
rightKerningGroup = H;
unicode = 00CE;
},
{
glyphname = uni0208;
lastChange = "2019-09-04 12:42:51 +0000";
layers = (
{
hints = (
{
horizontal = 1;
place = "{0, 114.37}";
type = Stem;
},
{
horizontal = 1;
place = "{622.62, 114.38}";
type = Stem;
},
{
horizontal = 1;
place = "{794.25, 154}";
type = Stem;
},
{
place = "{57.04, 411.06}";
type = Stem;
}
);
layerId = "A9EE2906-FF39-4E72-95D8-9DA33406E6B9";
paths = (
{
closed = 1;
nodes = (
"335 0 LINE",
"355.12 114.37 LINE",
"280.31 114.37 LINE",
"369.93 622.62 LINE",
"444.75 622.62 LINE",
"465 737 LINE",
"190 737 LINE",
"169.75 622.62 LINE",
"244.53 622.62 LINE",
"154.91 114.37 LINE",
"80.12 114.37 LINE",
"60 0 LINE"
);
},
{
closed = 1;
nodes = (
"273.79 794.25 LINE",
"199.82 948.25 LINE",
"57.04 948.25 LINE",
"176.04 794.25 LINE"
);
},
{
closed = 1;
nodes = (
"468.1 794.25 LINE",
"394.13 948.25 LINE",
"251.35 948.25 LINE",
"370.35 794.25 LINE"
);
}
);
width = 395;
}
);
leftKerningGroup = B;
note = uni0208;
rightKerningGroup = H;
unicode = 0208;
},
{
glyphname = Idieresis;
lastChange = "2019-09-04 12:42:51 +0000";
layers = (
{
hints = (
{
horizontal = 1;
place = "{0, 114.37}";
type = Stem;
},
{
horizontal = 1;
place = "{622.62, 114.38}";
type = Stem;
},
{
horizontal = 1;
place = "{794.25, 125.5}";
type = Stem;
},
{
place = "{60, 491.76}";
type = Stem;
}
);
layerId = "A9EE2906-FF39-4E72-95D8-9DA33406E6B9";
paths = (
{
closed = 1;
nodes = (
"335 0 LINE",
"355.12 114.37 LINE",
"280.31 114.37 LINE",
"369.93 622.62 LINE",
"444.75 622.62 LINE",
"465 737 LINE",
"190 737 LINE",
"169.75 622.62 LINE",
"244.53 622.62 LINE",
"154.91 114.37 LINE",
"80.12 114.37 LINE",
"60 0 LINE"
);
},
{
closed = 1;
nodes = (
"264.63 794.25 LINE",
"286.76 919.75 LINE",
"165.76 919.75 LINE",
"143.63 794.25 LINE"
);
},
{
closed = 1;
nodes = (
"529.63 794.25 LINE",
"551.76 919.75 LINE",
"430.76 919.75 LINE",
"408.63 794.25 LINE"
);
}
);
width = 395;
}
);
leftKerningGroup = B;
note = Idieresis;
rightKerningGroup = H;
unicode = 00CF;
},
{
glyphname = Idotaccent;
lastChange = "2019-09-04 12:42:51 +0000";
layers = (
{
hints = (
{
horizontal = 1;
place = "{0, 114.37}";
type = Stem;
},
{
horizontal = 1;
place = "{622.62, 114.38}";
type = Stem;
},
{
horizontal = 1;
place = "{794.25, 125.37}";
type = Stem;
},
{
place = "{60, 405}";
type = Stem;
}
);
layerId = "A9EE2906-FF39-4E72-95D8-9DA33406E6B9";
paths = (
{
closed = 1;
nodes = (
"335 0 LINE",
"355.12 114.37 LINE",
"280.31 114.37 LINE",
"369.93 622.62 LINE",
"444.75 622.62 LINE",
"465 737 LINE",
"190 737 LINE",
"169.75 622.62 LINE",
"244.53 622.62 LINE",
"154.91 114.37 LINE",
"80.12 114.37 LINE",
"60 0 LINE"
);
},
{
closed = 1;
nodes = (
"398.13 794.25 LINE",
"420.26 919.62 LINE",
"299.26 919.62 LINE",
"277.13 794.25 LINE"
);
}
);
width = 395;
}
);
leftKerningGroup = B;
note = Idotaccent;
rightKerningGroup = H;
unicode = 0130;
},
{
glyphname = uni1ECA;
lastChange = "2019-09-04 12:42:51 +0000";
layers = (
{
hints = (
{
horizontal = 1;
place = "{-182.63, 125.38}";
type = Stem;
},
{
horizontal = 1;
place = "{0, 114.37}";
type = Stem;
},
{
horizontal = 1;
place = "{622.62, 114.38}";
type = Stem;
},
{
place = "{60, 405}";
type = Stem;
}
);
layerId = "A9EE2906-FF39-4E72-95D8-9DA33406E6B9";
paths = (
{
closed = 1;
nodes = (
"335 0 LINE",
"355.12 114.37 LINE",
"280.31 114.37 LINE",
"369.93 622.62 LINE",
"444.75 622.62 LINE",
"465 737 LINE",
"190 737 LINE",
"169.75 622.62 LINE",
"244.53 622.62 LINE",
"154.91 114.37 LINE",
"80.12 114.37 LINE",
"60 0 LINE"
);
},
{
closed = 1;
nodes = (
"227.2 -182.63 LINE",
"249.32 -57.25 LINE",
"128.32 -57.25 LINE",
"106.2 -182.63 LINE"
);
}
);
width = 395;
}
);
leftKerningGroup = B;
note = uni1ECA;
rightKerningGroup = H;
unicode = 1ECA;
},
{
glyphname = Igrave;
lastChange = "2019-09-04 12:42:51 +0000";
layers = (
{
hints = (
{
horizontal = 1;
place = "{0, 114.37}";
type = Stem;
},
{
horizontal = 1;
place = "{622.62, 114.38}";
type = Stem;
},
{
horizontal = 1;
place = "{794.25, 154}";
type = Stem;
},
{
place = "{60, 405}";
type = Stem;
}
);
layerId = "A9EE2906-FF39-4E72-95D8-9DA33406E6B9";
paths = (
{
closed = 1;
nodes = (
"335 0 LINE",
"355.12 114.37 LINE",
"280.31 114.37 LINE",
"369.93 622.62 LINE",
"444.75 622.62 LINE",
"465 737 LINE",
"190 737 LINE",
"169.75 622.62 LINE",
"244.53 622.62 LINE",
"154.91 114.37 LINE",
"80.12 114.37 LINE",
"60 0 LINE"
);
},
{
closed = 1;
nodes = (
"366.25 794.25 LINE",
"292.28 948.25 LINE",
"149.51 948.25 LINE",
"268.51 794.25 LINE"
);
}
);
width = 395;
}
);
leftKerningGroup = B;
note = Igrave;
rightKerningGroup = H;
unicode = 00CC;
},
{
glyphname = uni1EC8;
lastChange = "2019-09-04 12:42:51 +0000";
layers = (
{
hints = (
{
horizontal = 1;
place = "{0, 114.37}";
type = Stem;
},
{
horizontal = 1;
place = "{622.62, 114.38}";
type = Stem;
},
{
horizontal = 1;
place = "{939, 71}";
type = Stem;
},
{
place = "{60, 414.01}";
type = Stem;
}
);
layerId = "A9EE2906-FF39-4E72-95D8-9DA33406E6B9";
paths = (
{
closed = 1;
nodes = (
"335 0 LINE",
"355.12 114.37 LINE",
"280.31 114.37 LINE",
"369.93 622.62 LINE",
"444.75 622.62 LINE",
"465 737 LINE",
"190 737 LINE",
"169.75 622.62 LINE",
"244.53 622.62 LINE",
"154.91 114.37 LINE",
"80.12 114.37 LINE",
"60 0 LINE"
);
},
{
closed = 1;
nodes = (
"374.76 794.25 LINE",
"379.7 822.22 LINE",
"460.95 876.11 LINE",
"474.01 950.19 LINE",
"425.73 1010 LINE",
"308.91 1010 LINE",
"254.02 963.94 LINE",
"303.51 903.37 LINE",
"346.01 939 LINE",
"376.6 939 LINE",
"383.29 930.87 LINE",
"380.51 915.37 LINE",
"306.63 863.37 LINE",
"294.38 794.25 LINE"
);
}
);
width = 395;
}
);
leftKerningGroup = B;
note = uni1EC8;
rightKerningGroup = H;
unicode = 1EC8;
},
{
glyphname = uni020A;
lastChange = "2019-09-04 12:42:51 +0000";
layers = (
{
hints = (
{
horizontal = 1;
place = "{0, 114.37}";
type = Stem;
},
{
horizontal = 1;
place = "{622.62, 114.38}";
type = Stem;
},
{
horizontal = 1;
place = "{859.12, 78.13}";
type = Stem;
},
{
place = "{60, 437.69}";
type = Stem;
}
);
layerId = "A9EE2906-FF39-4E72-95D8-9DA33406E6B9";
paths = (
{
closed = 1;
nodes = (
"335 0 LINE",
"355.12 114.37 LINE",
"280.31 114.37 LINE",
"369.93 622.62 LINE",
"444.75 622.62 LINE",
"465 737 LINE",
"190 737 LINE",
"169.75 622.62 LINE",
"244.53 622.62 LINE",
"154.91 114.37 LINE",
"80.12 114.37 LINE",
"60 0 LINE"
);
},
{
closed = 1;
nodes = (
"265.26 794.25 LINE",
"273.01 838.25 LINE",
"297.63 859.12 LINE",
"396.63 859.12 LINE",
"413.76 838.25 LINE",
"406.01 794.25 LINE",
"486.38 794.25 LINE",
"497.69 858.28 LINE",
"433.3 937.25 LINE",
"269.66 937.25 LINE",
"199.69 878.12 LINE",
"184.88 794.25 LINE"
);
}
);
width = 395;
}
);
leftKerningGroup = B;
note = uni020A;
rightKerningGroup = H;
unicode = 020A;
},
{
glyphname = Imacron;
lastChange = "2019-09-04 12:42:51 +0000";
layers = (
{
hints = (
{
horizontal = 1;
place = "{0, 114.37}";
type = Stem;
},
{
horizontal = 1;
place = "{622.62, 114.38}";
type = Stem;
},
{
horizontal = 1;
place = "{794.25, 90.12}";
type = Stem;
},
{
place = "{60, 486.63}";
type = Stem;
}
);
layerId = "A9EE2906-FF39-4E72-95D8-9DA33406E6B9";
paths = (
{
closed = 1;
nodes = (
"335 0 LINE",
"355.12 114.37 LINE",
"280.31 114.37 LINE",
"369.93 622.62 LINE",
"444.75 622.62 LINE",
"465 737 LINE",
"190 737 LINE",
"169.75 622.62 LINE",
"244.53 622.62 LINE",
"154.91 114.37 LINE",
"80.12 114.37 LINE",
"60 0 LINE"
);
},
{
closed = 1;
nodes = (
"530.63 794.25 LINE",
"546.63 884.37 LINE",
"160.63 884.37 LINE",
"144.63 794.25 LINE"
);
}
);
width = 395;
}
);
leftKerningGroup = B;
note = Imacron;
rightKerningGroup = H;
unicode = 012A;
},
{
glyphname = Iogonek;
lastChange = "2019-09-04 12:42:51 +0000";
layers = (
{
hints = (
{
horizontal = 1;
place = "{-171.63, 81.38}";
type = Stem;
},
{
horizontal = 1;
place = "{0, 114.37}";
type = Stem;
},
{
horizontal = 1;
place = "{622.62, 114.38}";
type = Stem;
},
{
place = "{60, 405}";
type = Stem;
}
);
layerId = "A9EE2906-FF39-4E72-95D8-9DA33406E6B9";
paths = (
{
closed = 1;
nodes = (
"304.75 -171.63 LINE",
"319.12 -90.25 LINE",
"287.25 -90.25 LINE",
"269.87 -69.25 LINE",
"275.37 -38.5 LINE",
"335 0 LINE",
"355.12 114.37 LINE",
"280.31 114.37 LINE",
"369.93 622.62 LINE",
"444.75 622.62 LINE",
"465 737 LINE",
"190 737 LINE",
"169.75 622.62 LINE",
"244.53 622.62 LINE",
"154.91 114.37 LINE",
"80.12 114.37 LINE",
"60 0 LINE",
"244.24 0 LINE",
"201.35 -27.81 LINE",
"188.95 -98.13 LINE",
"249.3 -171.63 LINE"
);
}
);
width = 395;
}
);
leftKerningGroup = B;
note = Iogonek;
rightKerningGroup = H;
unicode = 012E;
},
{
glyphname = Itilde;
lastChange = "2019-09-04 12:42:51 +0000";
layers = (
{
hints = (
{
horizontal = 1;
place = "{0, 114.37}";
type = Stem;
},
{
horizontal = 1;
place = "{622.62, 114.38}";
type = Stem;
},
{
horizontal = 1;
place = "{794.25, 75.87}";
type = Stem;
},
{
place = "{60, 499.24}";
type = Stem;
},
{
horizontal = 1;
place = "{860.25, 75.87}";
type = Stem;
}
);
layerId = "A9EE2906-FF39-4E72-95D8-9DA33406E6B9";
paths = (
{
closed = 1;
nodes = (
"335 0 LINE",
"355.12 114.37 LINE",
"280.31 114.37 LINE",
"369.93 622.62 LINE",
"444.75 622.62 LINE",
"465 737 LINE",
"190 737 LINE",
"169.75 622.62 LINE",
"244.53 622.62 LINE",
"154.91 114.37 LINE",
"80.12 114.37 LINE",
"60 0 LINE"
);
},
{
closed = 1;
nodes = (
"476.64 794.25 LINE",
"543.61 851.45 LINE",
"559.24 932.75 LINE",
"487.51 932.75 LINE",
"482.88 906.37 LINE",
"441.26 870.12 LINE",
"405.22 870.12 LINE",
"347.45 936.12 LINE",
"229.18 936.12 LINE",
"162.1 878.5 LINE",
"146.62 797.5 LINE",
"218.38 797.5 LINE",
"223.01 823.87 LINE",
"264.51 860.25 LINE",
"300.44 860.25 LINE",
"358.25 794.25 LINE"
);
}
);
width = 395;
}
);
leftKerningGroup = B;
note = Itilde;
rightKerningGroup = H;
unicode = 0128;
},
{
glyphname = J;
lastChange = "2019-09-04 12:42:51 +0000";
layers = (
{
hints = (
{
horizontal = 1;
place = "{-0.06, 110}";
type = Stem;
},
{
place = "{47.08, 576.4}";
type = Stem;
}
);
layerId = "A9EE2906-FF39-4E72-95D8-9DA33406E6B9";
paths = (
{
closed = 1;
nodes = (
"510.27 95.61 LINE",
"623.48 737 LINE",
"498.1 737 LINE",
"395.48 154 LINE",
"343.48 110.12 LINE",
"213.73 109.75 LINE",
"177.73 154 LINE",
"199.85 280.5 LINE",
"74.48 280.5 LINE",
"47.08 125.16 LINE",
"150.28 0 LINE",
"397.81 -0.13 LINE"
);
}
);
width = 589;
}
);
leftKerningGroup = J;
note = J;
unicode = 004A;
},
{
glyphname = Jcircumflex;
lastChange = "2019-09-04 12:42:51 +0000";
layers = (
{
hints = (
{
horizontal = 1;
place = "{-0.06, 110}";
type = Stem;
},
{
horizontal = 1;
place = "{794.25, 143}";
type = Stem;
},
{
place = "{47.08, 685.19}";
type = Stem;
}
);
layerId = "A9EE2906-FF39-4E72-95D8-9DA33406E6B9";
paths = (
{
closed = 1;
nodes = (
"510.27 95.61 LINE",
"623.48 737 LINE",
"498.1 737 LINE",
"395.48 154 LINE",
"343.48 110.12 LINE",
"213.73 109.75 LINE",
"177.73 154 LINE",
"199.85 280.5 LINE",
"74.48 280.5 LINE",
"47.08 125.16 LINE",
"150.28 0 LINE",
"397.81 -0.13 LINE"
);
},
{
closed = 1;
nodes = (
"501.3 794.25 LINE",
"580.43 862.37 LINE",
"635.55 794.25 LINE",
"732.27 794.25 LINE",
"647.11 937.25 LINE",
"518.64 937.25 LINE",
"394.95 794.25 LINE"
);
}
);
width = 589;
}
);
note = Jcircumflex;
unicode = 0134;
},
{
glyphname = K;
lastChange = "2019-09-04 12:42:51 +0000";
layers = (
{
hints = (
{
horizontal = 1;
place = "{0, 737.01}";
type = Stem;
},
{
place = "{80, 737.53}";
type = Stem;
}
);
layerId = "A9EE2906-FF39-4E72-95D8-9DA33406E6B9";
paths = (
{
closed = 1;
nodes = (
"205.4 0 LINE",
"236.4 175.8 LINE",
"376.98 311.56 LINE",
"522.25 0 LINE",
"663.17 0 LINE",
"474.17 405.42 LINE",
"817.53 737 LINE",
"656.62 737 LINE",
"299.87 398.25 LINE",
"275.62 398.25 LINE",
"335.35 737 LINE",
"209.95 737 LINE",
"80 0 LINE"
);
}
);
width = 679;
}
);
leftKerningGroup = B;
note = K;
rightKerningGroup = K;
unicode = 004B;
},
{
glyphname = uni0136;
lastChange = "2019-09-04 12:42:51 +0000";
layers = (
{
hints = (
{
horizontal = 1;
place = "{-239.75, 182.5}";
type = Stem;
},
{
place = "{80, 737.53}";
type = Stem;
}
);
layerId = "A9EE2906-FF39-4E72-95D8-9DA33406E6B9";
paths = (
{
closed = 1;
nodes = (
"205.4 0 LINE",
"236.4 175.8 LINE",
"376.98 311.56 LINE",
"522.25 0 LINE",
"663.17 0 LINE",
"474.17 405.42 LINE",
"817.53 737 LINE",
"656.62 737 LINE",
"299.87 398.25 LINE",
"275.62 398.25 LINE",
"335.35 737 LINE",
"209.95 737 LINE",
"80 0 LINE"
);
},
{
closed = 1;
nodes = (
"297.43 -239.74 LINE",
"429.33 -57.24 LINE",
"299.44 -57.24 LINE",
"226.69 -239.74 LINE"
);
}
);
width = 679;
}
);
leftKerningGroup = B;
note = uni0136;
rightKerningGroup = K;
unicode = 0136;
},
{
glyphname = L;
lastChange = "2019-09-04 12:42:51 +0000";
layers = (
{
hints = (
{
horizontal = 1;
place = "{0, 114.37}";
type = Stem;
},
{
place = "{80, 501.87}";
type = Stem;
}
);
layerId = "A9EE2906-FF39-4E72-95D8-9DA33406E6B9";
paths = (
{
closed = 1;
nodes = (
"561.75 0 LINE",
"581.87 114.37 LINE",
"225.56 114.37 LINE",
"335.35 737 LINE",
"209.95 737 LINE",
"80 0 LINE"
);
}
);
width = 572;
}
);
leftKerningGroup = B;
note = L;
rightKerningGroup = L;
unicode = 004C;
},
{
glyphname = uni01C7;
lastChange = "2019-09-04 12:42:51 +0000";
layers = (
{
hints = (
{
horizontal = 1;
place = "{0, 114.37}";
type = Stem;
},
{
place = "{80, 1141.73}";
type = Stem;
},
{
horizontal = 1;
place = "{-0.06, 110}";
type = Stem;
}
);
layerId = "A9EE2906-FF39-4E72-95D8-9DA33406E6B9";
paths = (
{
closed = 1;
nodes = (
"1108.52 95.61 LINE",
"1221.73 737 LINE",
"1096.35 737 LINE",
"993.73 154 LINE",
"941.73 110.12 LINE",
"811.98 109.75 LINE",
"775.98 154 LINE",
"798.1 280.5 LINE",
"672.73 280.5 LINE",
"645.33 125.16 LINE",
"748.53 0 LINE",
"996.06 -0.13 LINE"
);
},
{
closed = 1;
nodes = (
"561.75 0 LINE",
"581.87 114.37 LINE",
"225.56 114.37 LINE",
"335.35 737 LINE",
"209.95 737 LINE",
"80 0 LINE"
);
}
);
width = 1187;
}
);
note = uni01C7;
unicode = 01C7;
},
{
glyphname = Lacute;
lastChange = "2019-09-04 12:42:51 +0000";
layers = (
{
hints = (
{
horizontal = 1;
place = "{0, 114.37}";
type = Stem;
},
{
horizontal = 1;
place = "{794.25, 154}";
type = Stem;
},
{
place = "{80, 501.87}";
type = Stem;
}
);
layerId = "A9EE2906-FF39-4E72-95D8-9DA33406E6B9";
paths = (
{
closed = 1;
nodes = (
"561.75 0 LINE",
"581.87 114.37 LINE",
"225.56 114.37 LINE",
"335.35 737 LINE",
"209.95 737 LINE",
"80 0 LINE"
);
},
{
closed = 1;
nodes = (
"340.12 794.25 LINE",
"515 948.25 LINE",
"355.37 948.25 LINE",
"227 794.25 LINE"
);
}
);
width = 572;
}
);
leftKerningGroup = B;
note = Lacute;
rightKerningGroup = L;
unicode = 0139;
},
{
glyphname = Lcaron;
lastChange = "2019-09-04 12:42:51 +0000";
layers = (
{
hints = (
{
horizontal = 1;
place = "{0, 114.37}";
type = Stem;
},
{
horizontal = 1;
place = "{554.5, 182.5}";
type = Stem;
},
{
place = "{80, 547.14}";
type = Stem;
}
);
layerId = "A9EE2906-FF39-4E72-95D8-9DA33406E6B9";
paths = (
{
closed = 1;
nodes = (
"561.75 0 LINE",
"581.87 114.37 LINE",
"225.56 114.37 LINE",
"335.35 737 LINE",
"209.95 737 LINE",
"80 0 LINE"
);
},
{
closed = 1;
nodes = (
"495.24 554.5 LINE",
"627.14 737 LINE",
"497.25 737 LINE",
"424.5 554.5 LINE"
);
}
);
width = 566;
}
);
leftKerningGroup = B;
note = Lcaron;
rightKerningGroup = L;
unicode = 013D;
},
{
glyphname = uni013B;
lastChange = "2019-09-04 12:42:51 +0000";
layers = (
{
hints = (
{
horizontal = 1;
place = "{-239.75, 182.5}";
type = Stem;
},
{
horizontal = 1;
place = "{0, 114.37}";
type = Stem;
},
{
place = "{80, 501.87}";
type = Stem;
}
);
layerId = "A9EE2906-FF39-4E72-95D8-9DA33406E6B9";
paths = (
{
closed = 1;
nodes = (
"561.75 0 LINE",
"581.87 114.37 LINE",
"225.56 114.37 LINE",
"335.35 737 LINE",
"209.95 737 LINE",
"80 0 LINE"
);
},
{
closed = 1;
nodes = (
"245.99 -239.75 LINE",
"377.89 -57.25 LINE",
"248 -57.25 LINE",
"175.25 -239.75 LINE"
);
}
);
width = 572;
}
);
leftKerningGroup = B;
note = uni013B;
rightKerningGroup = L;
unicode = 013B;
},
{
glyphname = Ldot;
lastChange = "2019-09-04 12:42:51 +0000";
layers = (
{
hints = (
{
horizontal = 1;
place = "{0, 114.37}";
type = Stem;
},
{
horizontal = 1;
place = "{331.12, 125.38}";
type = Stem;
},
{
place = "{80, 501.87}";
type = Stem;
}
);
layerId = "A9EE2906-FF39-4E72-95D8-9DA33406E6B9";
paths = (
{
closed = 1;
nodes = (
"561.75 0 LINE",
"581.87 114.37 LINE",
"225.56 114.37 LINE",
"335.35 737 LINE",
"209.95 737 LINE",
"80 0 LINE"
);
},
{
closed = 1;
nodes = (
"540.73 331.12 LINE",
"562.83 456.5 LINE",
"441.83 456.5 LINE",
"419.73 331.12 LINE"
);
}
);
width = 572;
}
);
leftKerningGroup = B;
note = Ldot;
rightKerningGroup = L;
unicode = 013F;
},
{
glyphname = uni01C8;
lastChange = "2019-09-04 12:42:51 +0000";
layers = (
{
hints = (
{
horizontal = 1;
place = "{-187, 99}";
type = Stem;
},
{
horizontal = 1;
place = "{0, 114.37}";
type = Stem;
},
{
horizontal = 1;
place = "{579.75, 125.37}";
type = Stem;
},
{
place = "{80, 833.37}";
type = Stem;
}
);
layerId = "A9EE2906-FF39-4E72-95D8-9DA33406E6B9";
paths = (
{
closed = 1;
nodes = (
"561.75 0 LINE",
"581.87 114.37 LINE",
"225.56 114.37 LINE",
"335.35 737 LINE",
"209.95 737 LINE",
"80 0 LINE"
);
},
{
closed = 1;
nodes = (
"668.79 -187 LINE",
"770.89 -103.42 LINE",
"881.25 522.5 LINE",
"760.25 522.5 LINE",
"660.23 -45.13 LINE",
"611.86 -88 LINE",
"537.11 -88 LINE",
"519.61 -187 LINE"
);
},
{
closed = 1;
nodes = (
"891.25 579.75 LINE",
"913.37 705.12 LINE",
"792.37 705.12 LINE",
"770.25 579.75 LINE"
);
}
);
width = 864;
}
);
leftKerningGroup = B;
note = uni01C8;
unicode = 01C8;
},
{
glyphname = Lslash;
lastChange = "2019-09-04 12:42:51 +0000";
layers = (
{
hints = (
{
horizontal = 1;
place = "{0, 114.37}";
type = Stem;
},
{
place = "{67.37, 514.5}";
type = Stem;
}
);
layerId = "A9EE2906-FF39-4E72-95D8-9DA33406E6B9";
paths = (
{
closed = 1;
nodes = (
"561.75 0 LINE",
"581.87 114.37 LINE",
"225.56 114.37 LINE",
"263.91 331.85 LINE",
"432.31 400.37 LINE",
"455.67 532.9 LINE",
"287.28 464.37 LINE",
"335.35 737 LINE",
"209.95 737 LINE",
"152.19 409.4 LINE",
"90.74 384.4 LINE",
"67.37 251.87 LINE",
"128.82 276.88 LINE",
"80 0 LINE"
);
}
);
width = 572;
}
);
leftKerningGroup = B;
note = Lslash;
rightKerningGroup = L;
unicode = 0141;
},
{
glyphname = M;
lastChange = "2019-09-04 12:42:51 +0000";
layers = (
{
hints = (
{
horizontal = 1;
place = "{0, 737}";
type = Stem;
},
{
place = "{80, 869.23}";
type = Stem;
}
);
layerId = "A9EE2906-FF39-4E72-95D8-9DA33406E6B9";
paths = (
{
closed = 1;
nodes = (
"205.4 0 LINE",
"296.14 514.65 LINE",
"414.37 0 LINE",
"484.87 0 LINE",
"784.62 514.75 LINE",
"784.64 514.75 LINE",
"693.87 0 LINE",
"819.27 0 LINE",
"949.23 737 LINE",
"781.87 737 LINE",
"478.56 205.32 LINE",
"362.37 737 LINE",
"209.95 737 LINE",
"80 0 LINE"
);
}
);
width = 899;
}
);
note = M;
unicode = 004D;
},
{
glyphname = N;
lastChange = "2019-09-04 12:42:51 +0000";
layers = (
{
hints = (
{
horizontal = 1;
place = "{0, 737}";
type = Stem;
},
{
place = "{80, 708.48}";
type = Stem;
},
{
horizontal = 1;
place = "{514.75, 222.25}";
type = Stem;
}
);
layerId = "A9EE2906-FF39-4E72-95D8-9DA33406E6B9";
paths = (
{
closed = 1;
nodes = (
"205.4 0 LINE",
"296.16 514.75 LINE",
"320.25 514.75 LINE",
"522.12 0 LINE",
"658.52 0 LINE",
"788.48 737 LINE",
"663.08 737 LINE",
"569.67 207.28 LINE",
"361.07 737 LINE",
"209.95 737 LINE",
"80 0 LINE"
);
}
);
width = 739;
}
);
leftKerningGroup = B;
note = N;
rightKerningGroup = H;
unicode = 004E;
},
{
glyphname = uni01CA;
lastChange = "2019-09-04 12:42:51 +0000";
layers = (
{
hints = (
{
horizontal = 1;
place = "{-0.06, 110}";
type = Stem;
},
{
horizontal = 1;
place = "{514.75, 222.25}";
type = Stem;
},
{
place = "{80, 1302.35}";
type = Stem;
}
);
layerId = "A9EE2906-FF39-4E72-95D8-9DA33406E6B9";
paths = (
{
closed = 1;
nodes = (
"205.4 0 LINE",
"296.16 514.75 LINE",
"320.25 514.75 LINE",
"522.12 0 LINE",
"658.52 0 LINE",
"788.48 737 LINE",
"663.08 737 LINE",
"569.67 207.28 LINE",
"361.07 737 LINE",
"209.95 737 LINE",
"80 0 LINE"
);
},
{
closed = 1;
nodes = (
"1269.14 95.61 LINE",
"1382.35 737 LINE",
"1256.98 737 LINE",
"1154.35 154 LINE",
"1102.35 110.12 LINE",
"972.6 109.75 LINE",
"936.6 154 LINE",
"958.73 280.5 LINE",
"833.35 280.5 LINE",
"805.95 125.16 LINE",
"909.16 0 LINE",
"1156.69 -0.13 LINE"
);
}
);
width = 1347;
}
);
note = uni01CA;
unicode = 01CA;
},
{
glyphname = Nacute;
lastChange = "2019-09-04 12:42:51 +0000";
layers = (
{
hints = (
{
horizontal = 1;
place = "{514.75, 222.25}";
type = Stem;
},
{
horizontal = 1;
place = "{794.25, 154}";
type = Stem;
},
{
place = "{80, 708.48}";
type = Stem;
}
);
layerId = "A9EE2906-FF39-4E72-95D8-9DA33406E6B9";
paths = (
{
closed = 1;
nodes = (
"205.4 0 LINE",
"296.16 514.75 LINE",
"320.25 514.75 LINE",
"522.12 0 LINE",
"658.52 0 LINE",
"788.48 737 LINE",
"663.08 737 LINE",
"569.67 207.28 LINE",
"361.07 737 LINE",
"209.95 737 LINE",
"80 0 LINE"
);
},
{
closed = 1;
nodes = (
"565.62 794.25 LINE",
"740.5 948.25 LINE",
"580.87 948.25 LINE",
"452.5 794.25 LINE"
);
}
);
width = 739;
}
);
note = Nacute;
unicode = 0143;
},
{
glyphname = Ncaron;
lastChange = "2019-09-04 12:42:51 +0000";
layers = (
{
hints = (
{
horizontal = 1;
place = "{514.75, 222.25}";
type = Stem;
},
{
horizontal = 1;
place = "{794.25, 143}";
type = Stem;
},
{
place = "{80, 708.48}";
type = Stem;
}
);
layerId = "A9EE2906-FF39-4E72-95D8-9DA33406E6B9";
paths = (
{
closed = 1;
nodes = (
"205.4 0 LINE",
"296.16 514.75 LINE",
"320.25 514.75 LINE",
"522.12 0 LINE",
"658.52 0 LINE",
"788.48 737 LINE",
"663.08 737 LINE",
"569.67 207.28 LINE",
"361.07 737 LINE",
"209.95 737 LINE",
"80 0 LINE"
);
},
{
closed = 1;
nodes = (
"568.64 794.25 LINE",
"692.33 937.25 LINE",
"585.98 937.25 LINE",
"506.85 869.12 LINE",
"451.73 937.25 LINE",
"355.01 937.25 LINE",
"440.17 794.25 LINE"
);
}
);
width = 739;
}
);
note = Ncaron;
unicode = 0147;
},
{
glyphname = uni0145;
lastChange = "2019-09-04 12:42:51 +0000";
layers = (
{
hints = (
{
horizontal = 1;
place = "{-239.75, 182.5}";
type = Stem;
},
{
horizontal = 1;
place = "{514.75, 222.25}";
type = Stem;
},
{
place = "{80, 708.48}";
type = Stem;
}
);
layerId = "A9EE2906-FF39-4E72-95D8-9DA33406E6B9";
paths = (
{
closed = 1;
nodes = (
"205.4 0 LINE",
"296.16 514.75 LINE",
"320.25 514.75 LINE",
"522.12 0 LINE",
"658.52 0 LINE",
"788.48 737 LINE",
"663.08 737 LINE",
"569.67 207.28 LINE",
"361.07 737 LINE",
"209.95 737 LINE",
"80 0 LINE"
);
},
{
closed = 1;
nodes = (
"289.99 -239.75 LINE",
"421.89 -57.25 LINE",
"292 -57.25 LINE",
"219.25 -239.75 LINE"
);
}
);
width = 739;
}
);
note = uni0145;
unicode = 0145;
},
{
glyphname = Eng;
lastChange = "2019-09-04 12:42:51 +0000";
layers = (
{
hints = (
{
horizontal = 1;
place = "{-187, 99}";
type = Stem;
},
{
horizontal = 1;
place = "{514.75, 222.25}";
type = Stem;
},
{
place = "{80, 708.48}";
type = Stem;
}
);
layerId = "A9EE2906-FF39-4E72-95D8-9DA33406E6B9";
paths = (
{
closed = 1;
nodes = (
"524.37 -187 LINE",
"643 -88 LINE",
"788.48 737 LINE",
"663.08 737 LINE",
"569.67 207.28 LINE",
"361.07 737 LINE",
"209.95 737 LINE",
"80 0 LINE",
"205.4 0 LINE",
"296.16 514.75 LINE",
"320.25 514.75 LINE",
"522.09 0.09 LINE",
"514.12 -45.13 LINE",
"467 -88 LINE",
"412 -88 LINE",
"394.5 -187 LINE"
);
}
);
width = 739;
}
);
note = Eng;
unicode = 014A;
},
{
glyphname = uni01CB;
lastChange = "2019-09-04 12:42:51 +0000";
layers = (
{
hints = (
{
horizontal = 1;
place = "{-187, 99}";
type = Stem;
},
{
horizontal = 1;
place = "{579.75, 125.37}";
type = Stem;
},
{
place = "{80, 1015.5}";
type = Stem;
},
{
horizontal = 1;
place = "{514.75, 222.25}";
type = Stem;
}
);
layerId = "A9EE2906-FF39-4E72-95D8-9DA33406E6B9";
paths = (
{
closed = 1;
nodes = (
"205.4 0 LINE",
"296.16 514.75 LINE",
"320.25 514.75 LINE",
"522.12 0 LINE",
"658.52 0 LINE",
"788.48 737 LINE",
"663.08 737 LINE",
"569.67 207.28 LINE",
"361.07 737 LINE",
"209.95 737 LINE",
"80 0 LINE"
);
},
{
closed = 1;
nodes = (
"850.92 -187 LINE",
"953.02 -103.42 LINE",
"1063.37 522.5 LINE",
"942.37 522.5 LINE",
"842.36 -45.13 LINE",
"793.98 -88 LINE",
"719.23 -88 LINE",
"701.73 -187 LINE"
);
},
{
closed = 1;
nodes = (
"1073.37 579.75 LINE",
"1095.5 705.12 LINE",
"974.5 705.12 LINE",
"952.37 579.75 LINE"
);
}
);
width = 1046;
}
);
note = uni01CB;
unicode = 01CB;
},
{
glyphname = Ntilde;
lastChange = "2019-09-04 12:42:51 +0000";
layers = (
{
hints = (
{
horizontal = 1;
place = "{860.25, 75.87}";
type = Stem;
},
{
place = "{80, 708.48}";
type = Stem;
},
{
horizontal = 1;
place = "{794.25, 75.87}";
type = Stem;
},
{
horizontal = 1;
place = "{514.75, 222.25}";
type = Stem;
}
);
layerId = "A9EE2906-FF39-4E72-95D8-9DA33406E6B9";
paths = (
{
closed = 1;
nodes = (
"205.4 0 LINE",
"296.16 514.75 LINE",
"320.25 514.75 LINE",
"522.12 0 LINE",
"658.52 0 LINE",
"788.48 737 LINE",
"663.08 737 LINE",
"569.67 207.28 LINE",
"361.07 737 LINE",
"209.95 737 LINE",
"80 0 LINE"
);
},
{
closed = 1;
nodes = (
"647.13 794.25 LINE",
"714.1 851.45 LINE",
"729.73 932.75 LINE",
"658 932.75 LINE",
"653.37 906.37 LINE",
"611.75 870.12 LINE",
"575.7 870.12 LINE",
"517.94 936.12 LINE",
"399.67 936.12 LINE",
"332.59 878.5 LINE",
"317.11 797.5 LINE",
"388.87 797.5 LINE",
"393.5 823.87 LINE",
"435 860.25 LINE",
"470.93 860.25 LINE",
"528.73 794.25 LINE"
);
}
);
width = 739;
}
);
leftKerningGroup = B;
note = Ntilde;
rightKerningGroup = H;
unicode = 00D1;
},
{
glyphname = O;
lastChange = "2019-09-04 12:42:51 +0000";
layers = (
{
hints = (
{
horizontal = 1;
place = "{0, 110.06}";
type = Stem;
},
{
horizontal = 1;
place = "{626.94, 110.06}";
type = Stem;
},
{
place = "{81.99, 668.75}";
type = Stem;
}
);
layerId = "A9EE2906-FF39-4E72-95D8-9DA33406E6B9";
paths = (
{
closed = 1;
nodes = (
"547.35 0 LINE",
"659.81 95.74 LINE",
"750.74 611.52 LINE",
"647.71 737 LINE",
"285.6 737 LINE",
"173.01 641.44 LINE",
"81.99 125.17 LINE",
"185.2 0 LINE"
);
},
{
closed = 1;
nodes = (
"212.64 154 LINE",
"287.77 583 LINE",
"339.77 626.75 LINE",
"584.02 627.12 LINE",
"620.02 583 LINE",
"544.77 154.12 LINE",
"493.02 110.25 LINE",
"248.77 109.87 LINE"
);
}
);
width = 703;
}
);
leftKerningGroup = C;
note = O;
rightKerningGroup = O;
unicode = 004F;
},
{
glyphname = Oacute;
lastChange = "2019-09-04 12:42:51 +0000";
layers = (
{
hints = (
{
horizontal = 1;
place = "{0, 110.06}";
type = Stem;
},
{
horizontal = 1;
place = "{626.94, 110.06}";
type = Stem;
},
{
horizontal = 1;
place = "{794.25, 154}";
type = Stem;
},
{
place = "{81.99, 668.75}";
type = Stem;
}
);
layerId = "A9EE2906-FF39-4E72-95D8-9DA33406E6B9";
paths = (
{
closed = 1;
nodes = (
"547.35 0 LINE",
"659.81 95.74 LINE",
"750.74 611.52 LINE",
"647.71 737 LINE",
"285.6 737 LINE",
"173.01 641.44 LINE",
"81.99 125.17 LINE",
"185.2 0 LINE"
);
},
{
closed = 1;
nodes = (
"212.64 154 LINE",
"287.77 583 LINE",
"339.77 626.75 LINE",
"584.02 627.12 LINE",
"620.02 583 LINE",
"544.77 154.12 LINE",
"493.02 110.25 LINE",
"248.77 109.87 LINE"
);
},
{
closed = 1;
nodes = (
"544.92 794.25 LINE",
"719.8 948.25 LINE",
"560.17 948.25 LINE",
"431.8 794.25 LINE"
);
}
);
width = 703;
}
);
leftKerningGroup = C;
note = Oacute;
rightKerningGroup = O;
unicode = 00D3;
},
{
glyphname = Obreve;
lastChange = "2019-09-04 12:42:51 +0000";
layers = (
{
hints = (
{
horizontal = 1;
place = "{0, 110.06}";
type = Stem;
},
{
horizontal = 1;
place = "{626.94, 110.06}";
type = Stem;
},
{
horizontal = 1;
place = "{794.21, 78.04}";
type = Stem;
},
{
place = "{81.99, 668.75}";
type = Stem;
},
{
horizontal = 1;
place = "{893.25, 44}";
type = Stem;
}
);
layerId = "A9EE2906-FF39-4E72-95D8-9DA33406E6B9";
paths = (
{
closed = 1;
nodes = (
"547.35 0 LINE",
"659.81 95.74 LINE",
"750.74 611.52 LINE",
"647.71 737 LINE",
"285.6 737 LINE",
"173.01 641.44 LINE",
"81.99 125.17 LINE",
"185.2 0 LINE"
);
},
{
closed = 1;
nodes = (
"212.64 154 LINE",
"287.77 583 LINE",
"339.77 626.75 LINE",
"584.02 627.12 LINE",
"620.02 583 LINE",
"544.77 154.12 LINE",
"493.02 110.25 LINE",
"248.77 109.87 LINE"
);
},
{
closed = 1;
nodes = (
"570.72 794.25 LINE",
"640.6 853.18 LINE",
"655.42 937.25 LINE",
"575.05 937.25 LINE",
"567.3 893.25 LINE",
"542.67 872.25 LINE",
"443.67 872.25 LINE",
"426.55 893.25 LINE",
"434.3 937.25 LINE",
"353.92 937.25 LINE",
"342.46 872.25 LINE",
"407.5 794.17 LINE"
);
}
);
width = 703;
}
);
leftKerningGroup = C;
note = Obreve;
rightKerningGroup = O;
unicode = 014E;
},
{
glyphname = Ocircumflex;
lastChange = "2019-09-04 12:42:51 +0000";
layers = (
{
hints = (
{
horizontal = 1;
place = "{0, 110.06}";
type = Stem;
},
{
horizontal = 1;
place = "{626.94, 110.06}";
type = Stem;
},
{
horizontal = 1;
place = "{794.25, 143}";
type = Stem;
},
{
place = "{81.99, 668.75}";
type = Stem;
}
);
layerId = "A9EE2906-FF39-4E72-95D8-9DA33406E6B9";
paths = (
{
closed = 1;
nodes = (
"547.35 0 LINE",
"659.81 95.74 LINE",
"750.74 611.52 LINE",
"647.71 737 LINE",
"285.6 737 LINE",
"173.01 641.44 LINE",
"81.99 125.17 LINE",
"185.2 0 LINE"
);
},
{
closed = 1;
nodes = (
"212.64 154 LINE",
"287.77 583 LINE",
"339.77 626.75 LINE",
"584.02 627.12 LINE",
"620.02 583 LINE",
"544.77 154.12 LINE",
"493.02 110.25 LINE",
"248.77 109.87 LINE"
);
},
{
closed = 1;
nodes = (
"420.3 794.25 LINE",
"499.42 862.37 LINE",
"554.55 794.25 LINE",
"651.27 794.25 LINE",
"566.11 937.25 LINE",
"437.64 937.25 LINE",
"313.95 794.25 LINE"
);
}
);
width = 703;
}
);
leftKerningGroup = C;
note = Ocircumflex;
rightKerningGroup = O;
unicode = 00D4;
},
{
glyphname = uni1ED0;
lastChange = "2019-09-04 12:42:51 +0000";
layers = (
{
hints = (
{
horizontal = 1;
place = "{0, 110.06}";
type = Stem;
},
{
horizontal = 1;
place = "{626.94, 110.06}";
type = Stem;
},
{
horizontal = 1;
place = "{876.74, 154}";
type = Stem;
},
{
place = "{81.99, 849.63}";
type = Stem;
},
{
horizontal = 1;
place = "{794.25, 143}";
type = Stem;
}
);
layerId = "A9EE2906-FF39-4E72-95D8-9DA33406E6B9";
paths = (
{
closed = 1;
nodes = (
"547.35 0 LINE",
"659.81 95.74 LINE",
"750.74 611.52 LINE",
"647.71 737 LINE",
"285.6 737 LINE",
"173.01 641.44 LINE",
"81.99 125.17 LINE",
"185.2 0 LINE"
);
},
{
closed = 1;
nodes = (
"212.64 154 LINE",
"287.77 583 LINE",
"339.77 626.75 LINE",
"584.02 627.12 LINE",
"620.02 583 LINE",
"544.77 154.12 LINE",
"493.02 110.25 LINE",
"248.77 109.87 LINE"
);
},
{
closed = 1;
nodes = (
"420.3 794.25 LINE",
"499.42 862.37 LINE",
"554.55 794.25 LINE",
"651.27 794.25 LINE",
"566.11 937.25 LINE",
"437.64 937.25 LINE",
"313.95 794.25 LINE"
);
},
{
closed = 1;
nodes = (
"756.74 876.74 LINE",
"931.62 1030.74 LINE",
"771.99 1030.74 LINE",
"643.62 876.74 LINE"
);
}
);
width = 703;
}
);
leftKerningGroup = C;
note = uni1ED0;
rightKerningGroup = O;
unicode = 1ED0;
},
{
glyphname = uni1ED8;
lastChange = "2019-09-04 12:42:51 +0000";
layers = (
{
hints = (
{
horizontal = 1;
place = "{-182.63, 125.38}";
type = Stem;
},
{
horizontal = 1;
place = "{0, 110.06}";
type = Stem;
},
{
horizontal = 1;
place = "{626.94, 110.06}";
type = Stem;
},
{
horizontal = 1;
place = "{794.25, 143}";
type = Stem;
},
{
place = "{81.99, 668.75}";
type = Stem;
}
);
layerId = "A9EE2906-FF39-4E72-95D8-9DA33406E6B9";
paths = (
{
closed = 1;
nodes = (
"547.35 0 LINE",
"659.81 95.74 LINE",
"750.74 611.52 LINE",
"647.71 737 LINE",
"285.6 737 LINE",
"173.01 641.44 LINE",
"81.99 125.17 LINE",
"185.2 0 LINE"
);
},
{
closed = 1;
nodes = (
"384.23 -182.63 LINE",
"406.36 -57.25 LINE",
"285.36 -57.25 LINE",
"263.23 -182.63 LINE"
);
},
{
closed = 1;
nodes = (
"212.64 154 LINE",
"287.77 583 LINE",
"339.77 626.75 LINE",
"584.02 627.12 LINE",
"620.02 583 LINE",
"544.77 154.12 LINE",
"493.02 110.25 LINE",
"248.77 109.87 LINE"
);
},
{
closed = 1;
nodes = (
"420.3 794.25 LINE",
"499.42 862.37 LINE",
"554.55 794.25 LINE",
"651.27 794.25 LINE",
"566.11 937.25 LINE",
"437.64 937.25 LINE",
"313.95 794.25 LINE"
);
}
);
width = 703;
}
);
leftKerningGroup = C;
note = uni1ED8;
rightKerningGroup = O;
unicode = 1ED8;
},
{
glyphname = uni1ED2;
lastChange = "2019-09-04 12:42:51 +0000";
layers = (
{
hints = (
{
horizontal = 1;
place = "{0, 110.06}";
type = Stem;
},
{
horizontal = 1;
place = "{626.94, 110.06}";
type = Stem;
},
{
horizontal = 1;
place = "{876.73, 154}";
type = Stem;
},
{
place = "{81.99, 668.75}";
type = Stem;
},
{
horizontal = 1;
place = "{794.25, 143}";
type = Stem;
}
);
layerId = "A9EE2906-FF39-4E72-95D8-9DA33406E6B9";
paths = (
{
closed = 1;
nodes = (
"547.35 0 LINE",
"659.81 95.74 LINE",
"750.74 611.52 LINE",
"647.71 737 LINE",
"285.6 737 LINE",
"173.01 641.44 LINE",
"81.99 125.17 LINE",
"185.2 0 LINE"
);
},
{
closed = 1;
nodes = (
"212.64 154 LINE",
"287.77 583 LINE",
"339.77 626.75 LINE",
"584.02 627.12 LINE",
"620.02 583 LINE",
"544.77 154.12 LINE",
"493.02 110.25 LINE",
"248.77 109.87 LINE"
);
},
{
closed = 1;
nodes = (
"342.57 876.73 LINE",
"268.6 1030.73 LINE",
"125.82 1030.73 LINE",
"244.82 876.73 LINE"
);
},
{
closed = 1;
nodes = (
"420.3 794.25 LINE",
"499.42 862.37 LINE",
"554.55 794.25 LINE",
"651.27 794.25 LINE",
"566.11 937.25 LINE",
"437.64 937.25 LINE",
"313.95 794.25 LINE"
);
}
);
width = 703;
}
);
leftKerningGroup = C;
note = uni1ED2;
rightKerningGroup = O;
unicode = 1ED2;
},
{
glyphname = uni1ED4;
lastChange = "2019-09-04 12:42:51 +0000";
layers = (
{
hints = (
{
horizontal = 1;
place = "{0, 110.06}";
type = Stem;
},
{
horizontal = 1;
place = "{626.94, 110.06}";
type = Stem;
},
{
horizontal = 1;
place = "{794.25, 143}";
type = Stem;
},
{
horizontal = 1;
place = "{1021.5, 71}";
type = Stem;
},
{
place = "{81.99, 726.06}";
type = Stem;
}
);
layerId = "A9EE2906-FF39-4E72-95D8-9DA33406E6B9";
paths = (
{
closed = 1;
nodes = (
"547.35 0 LINE",
"659.81 95.74 LINE",
"750.74 611.52 LINE",
"647.71 737 LINE",
"285.6 737 LINE",
"173.01 641.44 LINE",
"81.99 125.17 LINE",
"185.2 0 LINE"
);
},
{
closed = 1;
nodes = (
"212.64 154 LINE",
"287.77 583 LINE",
"339.77 626.75 LINE",
"584.02 627.12 LINE",
"620.02 583 LINE",
"544.77 154.12 LINE",
"493.02 110.25 LINE",
"248.77 109.87 LINE"
);
},
{
closed = 1;
nodes = (
"420.3 794.25 LINE",
"499.42 862.37 LINE",
"554.55 794.25 LINE",
"651.27 794.25 LINE",
"566.11 937.25 LINE",
"437.64 937.25 LINE",
"313.95 794.25 LINE"
);
},
{
closed = 1;
nodes = (
"708.8 876.75 LINE",
"713.74 904.72 LINE",
"794.99 958.61 LINE",
"808.05 1032.69 LINE",
"759.77 1092.5 LINE",
"642.95 1092.5 LINE",
"588.05 1046.44 LINE",
"637.55 985.87 LINE",
"680.05 1021.5 LINE",
"710.64 1021.5 LINE",
"717.33 1013.37 LINE",
"714.55 997.87 LINE",
"640.67 945.87 LINE",
"628.42 876.75 LINE"
);
}
);
width = 703;
}
);
leftKerningGroup = C;
note = uni1ED4;
rightKerningGroup = O;
unicode = 1ED4;
},
{
glyphname = uni1ED6;
lastChange = "2019-09-04 12:42:51 +0000";
layers = (
{
hints = (
{
horizontal = 1;
place = "{0, 110.06}";
type = Stem;
},
{
horizontal = 1;
place = "{626.94, 110.06}";
type = Stem;
},
{
horizontal = 1;
place = "{1032.87, 75.88}";
type = Stem;
},
{
place = "{81.99, 668.75}";
type = Stem;
},
{
horizontal = 1;
place = "{966.87, 75.88}";
type = Stem;
},
{
horizontal = 1;
place = "{794.25, 143}";
type = Stem;
}
);
layerId = "A9EE2906-FF39-4E72-95D8-9DA33406E6B9";
paths = (
{
closed = 1;
nodes = (
"547.35 0 LINE",
"659.81 95.74 LINE",
"750.74 611.52 LINE",
"647.71 737 LINE",
"285.6 737 LINE",
"173.01 641.44 LINE",
"81.99 125.17 LINE",
"185.2 0 LINE"
);
},
{
closed = 1;
nodes = (
"212.64 154 LINE",
"287.77 583 LINE",
"339.77 626.75 LINE",
"584.02 627.12 LINE",
"620.02 583 LINE",
"544.77 154.12 LINE",
"493.02 110.25 LINE",
"248.77 109.87 LINE"
);
},
{
closed = 1;
nodes = (
"420.3 794.25 LINE",
"499.42 862.37 LINE",
"554.55 794.25 LINE",
"651.27 794.25 LINE",
"566.11 937.25 LINE",
"437.64 937.25 LINE",
"313.95 794.25 LINE"
);
},
{
closed = 1;
nodes = (
"637.05 966.87 LINE",
"704.03 1024.07 LINE",
"719.65 1105.37 LINE",
"647.92 1105.37 LINE",
"643.3 1079 LINE",
"601.67 1042.75 LINE",
"565.63 1042.75 LINE",
"507.87 1108.75 LINE",
"389.6 1108.75 LINE",
"322.51 1051.13 LINE",
"307.03 970.12 LINE",
"378.8 970.12 LINE",
"383.42 996.5 LINE",
"424.92 1032.87 LINE",
"460.86 1032.87 LINE",
"518.66 966.87 LINE"
);
}
);
width = 703;
}
);
leftKerningGroup = C;
note = uni1ED6;
rightKerningGroup = O;
unicode = 1ED6;
},
{
glyphname = uni020C;
lastChange = "2019-09-04 12:42:51 +0000";
layers = (
{
hints = (
{
horizontal = 1;
place = "{0, 110.06}";
type = Stem;
},
{
horizontal = 1;
place = "{626.94, 110.06}";
type = Stem;
},
{
horizontal = 1;
place = "{794.25, 154}";
type = Stem;
},
{
place = "{81.99, 668.75}";
type = Stem;
}
);
layerId = "A9EE2906-FF39-4E72-95D8-9DA33406E6B9";
paths = (
{
closed = 1;
nodes = (
"547.35 0 LINE",
"659.81 95.74 LINE",
"750.74 611.52 LINE",
"647.71 737 LINE",
"285.6 737 LINE",
"173.01 641.44 LINE",
"81.99 125.17 LINE",
"185.2 0 LINE"
);
},
{
closed = 1;
nodes = (
"212.64 154 LINE",
"287.77 583 LINE",
"339.77 626.75 LINE",
"584.02 627.12 LINE",
"620.02 583 LINE",
"544.77 154.12 LINE",
"493.02 110.25 LINE",
"248.77 109.87 LINE"
);
},
{
closed = 1;
nodes = (
"423.57 794.25 LINE",
"349.6 948.25 LINE",
"206.82 948.25 LINE",
"325.82 794.25 LINE"
);
},
{
closed = 1;
nodes = (
"617.88 794.25 LINE",
"543.91 948.25 LINE",
"401.14 948.25 LINE",
"520.14 794.25 LINE"
);
}
);
width = 703;
}
);
leftKerningGroup = C;
note = uni020C;
rightKerningGroup = O;
unicode = 020C;
},
{
glyphname = Odieresis;
lastChange = "2019-09-04 12:42:51 +0000";
layers = (
{
hints = (
{
horizontal = 1;
place = "{0, 110.06}";
type = Stem;
},
{
horizontal = 1;
place = "{626.94, 110.06}";
type = Stem;
},
{
horizontal = 1;
place = "{794.25, 125.5}";
type = Stem;
},
{
place = "{81.99, 668.75}";
type = Stem;
}
);
layerId = "A9EE2906-FF39-4E72-95D8-9DA33406E6B9";
paths = (
{
closed = 1;
nodes = (
"547.35 0 LINE",
"659.81 95.74 LINE",
"750.74 611.52 LINE",
"647.71 737 LINE",
"285.6 737 LINE",
"173.01 641.44 LINE",
"81.99 125.17 LINE",
"185.2 0 LINE"
);
},
{
closed = 1;
nodes = (
"212.64 154 LINE",
"287.77 583 LINE",
"339.77 626.75 LINE",
"584.02 627.12 LINE",
"620.02 583 LINE",
"544.77 154.12 LINE",
"493.02 110.25 LINE",
"248.77 109.87 LINE"
);
},
{
closed = 1;
nodes = (
"414.42 794.25 LINE",
"436.55 919.75 LINE",
"315.55 919.75 LINE",
"293.42 794.25 LINE"
);
},
{
closed = 1;
nodes = (
"679.42 794.25 LINE",
"701.55 919.75 LINE",
"580.55 919.75 LINE",
"558.42 794.25 LINE"
);
}
);
width = 703;
}
);
leftKerningGroup = C;
note = Odieresis;
rightKerningGroup = O;
unicode = 00D6;
},
{
glyphname = uni022A;
lastChange = "2019-09-04 12:42:51 +0000";
layers = (
{
hints = (
{
horizontal = 1;
place = "{0, 110.06}";
type = Stem;
},
{
horizontal = 1;
place = "{626.94, 110.06}";
type = Stem;
},
{
horizontal = 1;
place = "{794.25, 125.5}";
type = Stem;
},
{
horizontal = 1;
place = "{951.93, 90.13}";
type = Stem;
},
{
place = "{81.99, 668.75}";
type = Stem;
}
);
layerId = "A9EE2906-FF39-4E72-95D8-9DA33406E6B9";
paths = (
{
closed = 1;
nodes = (
"547.35 0 LINE",
"659.81 95.74 LINE",
"750.74 611.52 LINE",
"647.71 737 LINE",
"285.6 737 LINE",
"173.01 641.44 LINE",
"81.99 125.17 LINE",
"185.2 0 LINE"
);
},
{
closed = 1;
nodes = (
"212.64 154 LINE",
"287.77 583 LINE",
"339.77 626.75 LINE",
"584.02 627.12 LINE",
"620.02 583 LINE",
"544.77 154.12 LINE",
"493.02 110.25 LINE",
"248.77 109.87 LINE"
);
},
{
closed = 1;
nodes = (
"414.42 794.25 LINE",
"436.55 919.75 LINE",
"315.55 919.75 LINE",
"293.42 794.25 LINE"
);
},
{
closed = 1;
nodes = (
"679.42 794.25 LINE",
"701.55 919.75 LINE",
"580.55 919.75 LINE",
"558.42 794.25 LINE"
);
},
{
closed = 1;
nodes = (
"707.07 951.93 LINE",
"723.07 1042.06 LINE",
"337.07 1042.06 LINE",
"321.07 951.93 LINE"
);
}
);
width = 703;
}
);
leftKerningGroup = C;
note = uni022A;
rightKerningGroup = O;
unicode = 022A;
},
{
glyphname = uni0230;
lastChange = "2019-09-04 12:42:51 +0000";
layers = (
{
hints = (
{
horizontal = 1;
place = "{0, 110.06}";
type = Stem;
},
{
horizontal = 1;
place = "{626.94, 110.06}";
type = Stem;
},
{
horizontal = 1;
place = "{794.25, 125.37}";
type = Stem;
},
{
horizontal = 1;
place = "{951.93, 90.13}";
type = Stem;
},
{
place = "{81.99, 668.75}";
type = Stem;
}
);
layerId = "A9EE2906-FF39-4E72-95D8-9DA33406E6B9";
paths = (
{
closed = 1;
nodes = (
"547.35 0 LINE",
"659.81 95.74 LINE",
"750.74 611.52 LINE",
"647.71 737 LINE",
"285.6 737 LINE",
"173.01 641.44 LINE",
"81.99 125.17 LINE",
"185.2 0 LINE"
);
},
{
closed = 1;
nodes = (
"212.64 154 LINE",
"287.77 583 LINE",
"339.77 626.75 LINE",
"584.02 627.12 LINE",
"620.02 583 LINE",
"544.77 154.12 LINE",
"493.02 110.25 LINE",
"248.77 109.87 LINE"
);
},
{
closed = 1;
nodes = (
"547.92 794.25 LINE",
"570.05 919.62 LINE",
"449.05 919.62 LINE",
"426.92 794.25 LINE"
);
},
{
closed = 1;
nodes = (
"707.07 951.93 LINE",
"723.07 1042.06 LINE",
"337.07 1042.06 LINE",
"321.07 951.93 LINE"
);
}
);
width = 703;
}
);
leftKerningGroup = C;
note = uni0230;
rightKerningGroup = O;
unicode = 0230;
},
{
glyphname = uni1ECC;
lastChange = "2019-09-04 12:42:51 +0000";
layers = (
{
hints = (
{
horizontal = 1;
place = "{-182.63, 125.38}";
type = Stem;
},
{
horizontal = 1;
place = "{0, 110.06}";
type = Stem;
},
{
horizontal = 1;
place = "{626.94, 110.06}";
type = Stem;
},
{
place = "{81.99, 668.75}";
type = Stem;
}
);
layerId = "A9EE2906-FF39-4E72-95D8-9DA33406E6B9";
paths = (
{
closed = 1;
nodes = (
"547.35 0 LINE",
"659.81 95.74 LINE",
"750.74 611.52 LINE",
"647.71 737 LINE",
"285.6 737 LINE",
"173.01 641.44 LINE",
"81.99 125.17 LINE",
"185.2 0 LINE"
);
},
{
closed = 1;
nodes = (
"384.23 -182.63 LINE",
"406.36 -57.25 LINE",
"285.36 -57.25 LINE",
"263.23 -182.63 LINE"
);
},
{
closed = 1;
nodes = (
"212.64 154 LINE",
"287.77 583 LINE",
"339.77 626.75 LINE",
"584.02 627.12 LINE",
"620.02 583 LINE",
"544.77 154.12 LINE",
"493.02 110.25 LINE",
"248.77 109.87 LINE"
);
}
);
width = 703;
}
);
leftKerningGroup = C;
note = uni1ECC;
rightKerningGroup = O;
unicode = 1ECC;
},
{
glyphname = Ograve;
lastChange = "2019-09-04 12:42:51 +0000";
layers = (
{
hints = (
{
horizontal = 1;
place = "{0, 110.06}";
type = Stem;
},
{
horizontal = 1;
place = "{626.94, 110.06}";
type = Stem;
},
{
horizontal = 1;
place = "{794.25, 154}";
type = Stem;
},
{
place = "{81.99, 668.75}";
type = Stem;
}
);
layerId = "A9EE2906-FF39-4E72-95D8-9DA33406E6B9";
paths = (
{
closed = 1;
nodes = (
"547.35 0 LINE",
"659.81 95.74 LINE",
"750.74 611.52 LINE",
"647.71 737 LINE",
"285.6 737 LINE",
"173.01 641.44 LINE",
"81.99 125.17 LINE",
"185.2 0 LINE"
);
},
{
closed = 1;
nodes = (
"212.64 154 LINE",
"287.77 583 LINE",
"339.77 626.75 LINE",
"584.02 627.12 LINE",
"620.02 583 LINE",
"544.77 154.12 LINE",
"493.02 110.25 LINE",
"248.77 109.87 LINE"
);
},
{
closed = 1;
nodes = (
"516.04 794.25 LINE",
"442.07 948.25 LINE",
"299.29 948.25 LINE",
"418.29 794.25 LINE"
);
}
);
width = 703;
}
);
leftKerningGroup = C;
note = Ograve;
rightKerningGroup = O;
unicode = 00D2;
},
{
glyphname = uni1ECE;
lastChange = "2019-09-04 12:42:51 +0000";
layers = (
{
hints = (
{
horizontal = 1;
place = "{0, 110.06}";
type = Stem;
},
{
horizontal = 1;
place = "{626.94, 110.06}";
type = Stem;
},
{
horizontal = 1;
place = "{939, 71}";
type = Stem;
},
{
place = "{81.99, 668.75}";
type = Stem;
}
);
layerId = "A9EE2906-FF39-4E72-95D8-9DA33406E6B9";
paths = (
{
closed = 1;
nodes = (
"547.35 0 LINE",
"659.81 95.74 LINE",
"750.74 611.52 LINE",
"647.71 737 LINE",
"285.6 737 LINE",
"173.01 641.44 LINE",
"81.99 125.17 LINE",
"185.2 0 LINE"
);
},
{
closed = 1;
nodes = (
"212.64 154 LINE",
"287.77 583 LINE",
"339.77 626.75 LINE",
"584.02 627.12 LINE",
"620.02 583 LINE",
"544.77 154.12 LINE",
"493.02 110.25 LINE",
"248.77 109.87 LINE"
);
},
{
closed = 1;
nodes = (
"524.55 794.25 LINE",
"529.48 822.22 LINE",
"610.74 876.11 LINE",
"623.8 950.19 LINE",
"575.51 1010 LINE",
"458.69 1010 LINE",
"403.8 963.94 LINE",
"453.3 903.37 LINE",
"495.8 939 LINE",
"526.39 939 LINE",
"533.08 930.87 LINE",
"530.3 915.37 LINE",
"456.42 863.37 LINE",
"444.17 794.25 LINE"
);
}
);
width = 703;
}
);
leftKerningGroup = C;
note = uni1ECE;
rightKerningGroup = O;
unicode = 1ECE;
},
{
glyphname = Ohorn;
lastChange = "2019-09-04 12:42:51 +0000";
layers = (
{
hints = (
{
horizontal = 1;
place = "{0, 110.06}";
type = Stem;
},
{
horizontal = 1;
place = "{606.12, 76.88}";
type = Stem;
},
{
place = "{81.99, 824.88}";
type = Stem;
},
{
horizontal = 1;
place = "{626.94, 110.06}";
type = Stem;
}
);
layerId = "A9EE2906-FF39-4E72-95D8-9DA33406E6B9";
paths = (
{
closed = 1;
nodes = (
"547.35 0 LINE",
"659.81 95.74 LINE",
"749.79 606.12 LINE",
"798 606.12 LINE",
"906.87 801.62 LINE",
"768.77 801.62 LINE",
"731.39 683 LINE",
"692.05 683 LINE",
"647.71 737 LINE",
"285.6 737 LINE",
"173.01 641.44 LINE",
"81.99 125.17 LINE",
"185.2 0 LINE"
);
},
{
closed = 1;
nodes = (
"212.64 154 LINE",
"287.77 583 LINE",
"339.77 626.75 LINE",
"584.02 627.12 LINE",
"620.02 583 LINE",
"544.77 154.12 LINE",
"493.02 110.25 LINE",
"248.77 109.87 LINE"
);
}
);
width = 703;
}
);
leftKerningGroup = C;
note = Ohorn;
rightKerningGroup = O;
unicode = 01A0;
},
{
glyphname = uni1EDA;
lastChange = "2019-09-04 12:42:51 +0000";
layers = (
{
hints = (
{
horizontal = 1;
place = "{0, 110.06}";
type = Stem;
},
{
horizontal = 1;
place = "{626.94, 110.06}";
type = Stem;
},
{
horizontal = 1;
place = "{794.25, 154}";
type = Stem;
},
{
place = "{81.99, 824.88}";
type = Stem;
},
{
horizontal = 1;
place = "{606.12, 76.88}";
type = Stem;
}
);
layerId = "A9EE2906-FF39-4E72-95D8-9DA33406E6B9";
paths = (
{
closed = 1;
nodes = (
"547.35 0 LINE",
"659.81 95.74 LINE",
"749.79 606.12 LINE",
"798 606.12 LINE",
"906.87 801.62 LINE",
"768.77 801.62 LINE",
"731.39 683 LINE",
"692.05 683 LINE",
"647.71 737 LINE",
"285.6 737 LINE",
"173.01 641.44 LINE",
"81.99 125.17 LINE",
"185.2 0 LINE"
);
},
{
closed = 1;
nodes = (
"212.64 154 LINE",
"287.77 583 LINE",
"339.77 626.75 LINE",
"584.02 627.12 LINE",
"620.02 583 LINE",
"544.77 154.12 LINE",
"493.02 110.25 LINE",
"248.77 109.87 LINE"
);
},
{
closed = 1;
nodes = (
"544.92 794.25 LINE",
"719.8 948.25 LINE",
"560.17 948.25 LINE",
"431.8 794.25 LINE"
);
}
);
width = 703;
}
);
leftKerningGroup = C;
note = uni1EDA;
rightKerningGroup = O;
unicode = 1EDA;
},
{
glyphname = uni1EE2;
lastChange = "2019-09-04 12:42:51 +0000";
layers = (
{
hints = (
{
horizontal = 1;
place = "{-182.63, 125.38}";
type = Stem;
},
{
horizontal = 1;
place = "{0, 110.06}";
type = Stem;
},
{
horizontal = 1;
place = "{606.12, 76.88}";
type = Stem;
},
{
place = "{81.99, 824.88}";
type = Stem;
},
{
horizontal = 1;
place = "{626.94, 110.06}";
type = Stem;
}
);
layerId = "A9EE2906-FF39-4E72-95D8-9DA33406E6B9";
paths = (
{
closed = 1;
nodes = (
"547.35 0 LINE",
"659.81 95.74 LINE",
"749.79 606.12 LINE",
"798 606.12 LINE",
"906.87 801.62 LINE",
"768.77 801.62 LINE",
"731.39 683 LINE",
"692.05 683 LINE",
"647.71 737 LINE",
"285.6 737 LINE",
"173.01 641.44 LINE",
"81.99 125.17 LINE",
"185.2 0 LINE"
);
},
{
closed = 1;
nodes = (
"384.23 -182.63 LINE",
"406.36 -57.25 LINE",
"285.36 -57.25 LINE",
"263.23 -182.63 LINE"
);
},
{
closed = 1;
nodes = (
"212.64 154 LINE",
"287.77 583 LINE",
"339.77 626.75 LINE",
"584.02 627.12 LINE",
"620.02 583 LINE",
"544.77 154.12 LINE",
"493.02 110.25 LINE",
"248.77 109.87 LINE"
);
}
);
width = 703;
}
);
leftKerningGroup = C;
note = uni1EE2;
rightKerningGroup = O;
unicode = 1EE2;
},
{
glyphname = uni1EDC;
lastChange = "2019-09-04 12:42:51 +0000";
layers = (
{
hints = (
{
horizontal = 1;
place = "{0, 110.06}";
type = Stem;
},
{
horizontal = 1;
place = "{626.94, 110.06}";
type = Stem;
},
{
horizontal = 1;
place = "{794.25, 154}";
type = Stem;
},
{
place = "{81.99, 824.88}";
type = Stem;
},
{
horizontal = 1;
place = "{606.12, 76.88}";
type = Stem;
}
);
layerId = "A9EE2906-FF39-4E72-95D8-9DA33406E6B9";
paths = (
{
closed = 1;
nodes = (
"547.35 0 LINE",
"659.81 95.74 LINE",
"749.79 606.12 LINE",
"798 606.12 LINE",
"906.87 801.62 LINE",
"768.77 801.62 LINE",
"731.39 683 LINE",
"692.05 683 LINE",
"647.71 737 LINE",
"285.6 737 LINE",
"173.01 641.44 LINE",
"81.99 125.17 LINE",
"185.2 0 LINE"
);
},
{
closed = 1;
nodes = (
"212.64 154 LINE",
"287.77 583 LINE",
"339.77 626.75 LINE",
"584.02 627.12 LINE",
"620.02 583 LINE",
"544.77 154.12 LINE",
"493.02 110.25 LINE",
"248.77 109.87 LINE"
);
},
{
closed = 1;
nodes = (
"516.04 794.25 LINE",
"442.07 948.25 LINE",
"299.29 948.25 LINE",
"418.29 794.25 LINE"
);
}
);
width = 703;
}
);
leftKerningGroup = C;
note = uni1EDC;
rightKerningGroup = O;
unicode = 1EDC;
},
{
glyphname = uni1EDE;
lastChange = "2019-09-04 12:42:51 +0000";
layers = (
{
hints = (
{
horizontal = 1;
place = "{0, 110.06}";
type = Stem;
},
{
horizontal = 1;
place = "{626.94, 110.06}";
type = Stem;
},
{
horizontal = 1;
place = "{939, 71}";
type = Stem;
},
{
place = "{81.99, 824.88}";
type = Stem;
},
{
horizontal = 1;
place = "{606.12, 76.88}";
type = Stem;
}
);
layerId = "A9EE2906-FF39-4E72-95D8-9DA33406E6B9";
paths = (
{
closed = 1;
nodes = (
"547.35 0 LINE",
"659.81 95.74 LINE",
"749.79 606.12 LINE",
"798 606.12 LINE",
"906.87 801.62 LINE",
"768.77 801.62 LINE",
"731.39 683 LINE",
"692.05 683 LINE",
"647.71 737 LINE",
"285.6 737 LINE",
"173.01 641.44 LINE",
"81.99 125.17 LINE",
"185.2 0 LINE"
);
},
{
closed = 1;
nodes = (
"212.64 154 LINE",
"287.77 583 LINE",
"339.77 626.75 LINE",
"584.02 627.12 LINE",
"620.02 583 LINE",
"544.77 154.12 LINE",
"493.02 110.25 LINE",
"248.77 109.87 LINE"
);
},
{
closed = 1;
nodes = (
"524.55 794.25 LINE",
"529.48 822.22 LINE",
"610.74 876.11 LINE",
"623.8 950.19 LINE",
"575.51 1010 LINE",
"458.69 1010 LINE",
"403.8 963.94 LINE",
"453.3 903.37 LINE",
"495.8 939 LINE",
"526.39 939 LINE",
"533.08 930.87 LINE",
"530.3 915.37 LINE",
"456.42 863.37 LINE",
"444.17 794.25 LINE"
);
}
);
width = 703;
}
);
leftKerningGroup = C;
note = uni1EDE;
rightKerningGroup = O;
unicode = 1EDE;
},
{
glyphname = uni1EE0;
lastChange = "2019-09-04 12:42:51 +0000";
layers = (
{
hints = (
{
horizontal = 1;
place = "{0, 110.06}";
type = Stem;
},
{
horizontal = 1;
place = "{626.94, 110.06}";
type = Stem;
},
{
horizontal = 1;
place = "{860.25, 75.87}";
type = Stem;
},
{
place = "{81.99, 824.88}";
type = Stem;
},
{
horizontal = 1;
place = "{794.25, 75.87}";
type = Stem;
},
{
horizontal = 1;
place = "{606.12, 76.88}";
type = Stem;
}
);
layerId = "A9EE2906-FF39-4E72-95D8-9DA33406E6B9";
paths = (
{
closed = 1;
nodes = (
"547.35 0 LINE",
"659.81 95.74 LINE",
"749.79 606.12 LINE",
"798 606.12 LINE",
"906.87 801.62 LINE",
"768.77 801.62 LINE",
"731.39 683 LINE",
"692.05 683 LINE",
"647.71 737 LINE",
"285.6 737 LINE",
"173.01 641.44 LINE",
"81.99 125.17 LINE",
"185.2 0 LINE"
);
},
{
closed = 1;
nodes = (
"212.64 154 LINE",
"287.77 583 LINE",
"339.77 626.75 LINE",
"584.02 627.12 LINE",
"620.02 583 LINE",
"544.77 154.12 LINE",
"493.02 110.25 LINE",
"248.77 109.87 LINE"
);
},
{
closed = 1;
nodes = (
"626.43 794.25 LINE",
"693.4 851.45 LINE",
"709.03 932.75 LINE",
"637.3 932.75 LINE",
"632.67 906.37 LINE",
"591.05 870.12 LINE",
"555 870.12 LINE",
"497.24 936.12 LINE",
"378.97 936.12 LINE",
"311.89 878.5 LINE",
"296.41 797.5 LINE",
"368.17 797.5 LINE",
"372.8 823.87 LINE",
"414.3 860.25 LINE",
"450.23 860.25 LINE",
"508.03 794.25 LINE"
);
}
);
width = 703;
}
);
leftKerningGroup = C;
note = uni1EE0;
rightKerningGroup = O;
unicode = 1EE0;
},
{
glyphname = Ohungarumlaut;
lastChange = "2019-09-04 12:42:51 +0000";
layers = (
{
hints = (
{
horizontal = 1;
place = "{0, 110.06}";
type = Stem;
},
{
horizontal = 1;
place = "{626.94, 110.06}";
type = Stem;
},
{
horizontal = 1;
place = "{794.25, 154}";
type = Stem;
},
{
place = "{81.99, 729.81}";
type = Stem;
}
);
layerId = "A9EE2906-FF39-4E72-95D8-9DA33406E6B9";
paths = (
{
closed = 1;
nodes = (
"547.35 0 LINE",
"659.81 95.74 LINE",
"750.74 611.52 LINE",
"647.71 737 LINE",
"285.6 737 LINE",
"173.01 641.44 LINE",
"81.99 125.17 LINE",
"185.2 0 LINE"
);
},
{
closed = 1;
nodes = (
"212.64 154 LINE",
"287.77 583 LINE",
"339.77 626.75 LINE",
"584.02 627.12 LINE",
"620.02 583 LINE",
"544.77 154.12 LINE",
"493.02 110.25 LINE",
"248.77 109.87 LINE"
);
},
{
closed = 1;
nodes = (
"443.3 794.25 LINE",
"618.17 948.25 LINE",
"458.55 948.25 LINE",
"330.17 794.25 LINE"
);
},
{
closed = 1;
nodes = (
"636.92 794.25 LINE",
"811.8 948.25 LINE",
"652.17 948.25 LINE",
"523.8 794.25 LINE"
);
}
);
width = 703;
}
);
leftKerningGroup = C;
note = Ohungarumlaut;
rightKerningGroup = O;
unicode = 0150;
},
{
glyphname = uni020E;
lastChange = "2019-09-04 12:42:51 +0000";
layers = (
{
hints = (
{
horizontal = 1;
place = "{0, 110.06}";
type = Stem;
},
{
horizontal = 1;
place = "{626.94, 110.06}";
type = Stem;
},
{
horizontal = 1;
place = "{859.12, 78.13}";
type = Stem;
},
{
place = "{81.99, 668.75}";
type = Stem;
}
);
layerId = "A9EE2906-FF39-4E72-95D8-9DA33406E6B9";
paths = (
{
closed = 1;
nodes = (
"547.35 0 LINE",
"659.81 95.74 LINE",
"750.74 611.52 LINE",
"647.71 737 LINE",
"285.6 737 LINE",
"173.01 641.44 LINE",
"81.99 125.17 LINE",
"185.2 0 LINE"
);
},
{
closed = 1;
nodes = (
"212.64 154 LINE",
"287.77 583 LINE",
"339.77 626.75 LINE",
"584.02 627.12 LINE",
"620.02 583 LINE",
"544.77 154.12 LINE",
"493.02 110.25 LINE",
"248.77 109.87 LINE"
);
},
{
closed = 1;
nodes = (
"415.05 794.25 LINE",
"422.8 838.25 LINE",
"447.42 859.12 LINE",
"546.42 859.12 LINE",
"563.55 838.25 LINE",
"555.8 794.25 LINE",
"636.17 794.25 LINE",
"647.48 858.28 LINE",
"583.09 937.25 LINE",
"419.45 937.25 LINE",
"349.48 878.12 LINE",
"334.67 794.25 LINE"
);
}
);
width = 703;
}
);
leftKerningGroup = C;
note = uni020E;
rightKerningGroup = O;
unicode = 020E;
},
{
glyphname = Omacron;
lastChange = "2019-09-04 12:42:51 +0000";
layers = (
{
hints = (
{
horizontal = 1;
place = "{0, 110.06}";
type = Stem;
},
{
horizontal = 1;
place = "{626.94, 110.06}";
type = Stem;
},
{
horizontal = 1;
place = "{794.25, 90.12}";
type = Stem;
},
{
place = "{81.99, 668.75}";
type = Stem;
}
);
layerId = "A9EE2906-FF39-4E72-95D8-9DA33406E6B9";
paths = (
{
closed = 1;
nodes = (
"547.35 0 LINE",
"659.81 95.74 LINE",
"750.74 611.52 LINE",
"647.71 737 LINE",
"285.6 737 LINE",
"173.01 641.44 LINE",
"81.99 125.17 LINE",
"185.2 0 LINE"
);
},
{
closed = 1;
nodes = (
"212.64 154 LINE",
"287.77 583 LINE",
"339.77 626.75 LINE",
"584.02 627.12 LINE",
"620.02 583 LINE",
"544.77 154.12 LINE",
"493.02 110.25 LINE",
"248.77 109.87 LINE"
);
},
{
closed = 1;
nodes = (
"680.42 794.25 LINE",
"696.42 884.37 LINE",
"310.42 884.37 LINE",
"294.42 794.25 LINE"
);
}
);
width = 703;
}
);
leftKerningGroup = C;
note = Omacron;
rightKerningGroup = O;
unicode = 014C;
},
{
glyphname = uni01EA;
lastChange = "2019-09-04 12:42:51 +0000";
layers = (
{
hints = (
{
horizontal = 1;
place = "{-171.63, 81.38}";
type = Stem;
},
{
horizontal = 1;
place = "{0, 110.06}";
type = Stem;
},
{
horizontal = 1;
place = "{626.94, 110.06}";
type = Stem;
},
{
place = "{81.99, 668.75}";
type = Stem;
}
);
layerId = "A9EE2906-FF39-4E72-95D8-9DA33406E6B9";
paths = (
{
closed = 1;
nodes = (
"531.19 -171.63 LINE",
"545.54 -90.25 LINE",
"513.67 -90.25 LINE",
"496.49 -69.25 LINE",
"501.92 -38.5 LINE",
"547.33 0 LINE",
"547.35 0 LINE",
"659.81 95.74 LINE",
"750.74 611.52 LINE",
"647.71 737 LINE",
"285.6 737 LINE",
"173.01 641.44 LINE",
"81.99 125.17 LINE",
"185.2 0 LINE",
"473.83 0 LINE",
"427.01 -33 LINE",
"415.49 -98.13 LINE",
"475.84 -171.63 LINE"
);
},
{
closed = 1;
nodes = (
"212.64 154 LINE",
"287.77 583 LINE",
"339.77 626.75 LINE",
"584.02 627.12 LINE",
"620.02 583 LINE",
"544.77 154.12 LINE",
"493.02 110.25 LINE",
"248.77 109.87 LINE"
);
}
);
width = 703;
}
);
leftKerningGroup = C;
note = uni01EA;
rightKerningGroup = O;
unicode = 01EA;
},
{
glyphname = Oslash;
lastChange = "2019-09-04 12:42:51 +0000";
layers = (
{
hints = (
{
horizontal = 1;
place = "{0, 110.07}";
type = Stem;
},
{
horizontal = 1;
place = "{626.93, 110.07}";
type = Stem;
},
{
place = "{81.99, 668.75}";
type = Stem;
}
);
layerId = "A9EE2906-FF39-4E72-95D8-9DA33406E6B9";
paths = (
{
closed = 1;
nodes = (
"547.35 0 LINE",
"659.81 95.74 LINE",
"750.74 611.52 LINE",
"647.71 737 LINE",
"285.6 737 LINE",
"173.01 641.44 LINE",
"81.99 125.17 LINE",
"185.2 0 LINE"
);
},
{
closed = 1;
nodes = (
"609.17 521.15 LINE",
"544.77 154.12 LINE",
"493.02 110.25 LINE",
"262.49 109.89 LINE"
);
},
{
closed = 1;
nodes = (
"287.77 583 LINE",
"339.77 626.75 LINE",
"572.24 627.1 LINE",
"222.92 212.71 LINE"
);
}
);
width = 703;
}
);
leftKerningGroup = C;
note = Oslash;
rightKerningGroup = O;
unicode = 00D8;
},
{
glyphname = Oslashacute;
lastChange = "2019-09-04 12:42:51 +0000";
layers = (
{
hints = (
{
horizontal = 1;
place = "{0, 110.07}";
type = Stem;
},
{
horizontal = 1;
place = "{626.93, 110.07}";
type = Stem;
},
{
horizontal = 1;
place = "{794.25, 154}";
type = Stem;
},
{
place = "{81.99, 668.75}";
type = Stem;
}
);
layerId = "A9EE2906-FF39-4E72-95D8-9DA33406E6B9";
paths = (
{
closed = 1;
nodes = (
"547.35 0 LINE",
"659.81 95.74 LINE",
"750.74 611.52 LINE",
"647.71 737 LINE",
"285.6 737 LINE",
"173.01 641.44 LINE",
"81.99 125.17 LINE",
"185.2 0 LINE"
);
},
{
closed = 1;
nodes = (
"609.17 521.15 LINE",
"544.77 154.12 LINE",
"493.02 110.25 LINE",
"262.49 109.89 LINE"
);
},
{
closed = 1;
nodes = (
"287.77 583 LINE",
"339.77 626.75 LINE",
"572.24 627.1 LINE",
"222.92 212.71 LINE"
);
},
{
closed = 1;
nodes = (
"544.92 794.25 LINE",
"719.8 948.25 LINE",
"560.17 948.25 LINE",
"431.8 794.25 LINE"
);
}
);
width = 703;
}
);
leftKerningGroup = C;
note = Oslashacute;
rightKerningGroup = O;
unicode = 01FE;
},
{
glyphname = Otilde;
lastChange = "2019-09-04 12:42:51 +0000";
layers = (
{
hints = (
{
horizontal = 1;
place = "{0, 110.06}";
type = Stem;
},
{
horizontal = 1;
place = "{626.94, 110.06}";
type = Stem;
},
{
horizontal = 1;
place = "{860.25, 75.87}";
type = Stem;
},
{
place = "{81.99, 668.75}";
type = Stem;
},
{
horizontal = 1;
place = "{794.25, 75.87}";
type = Stem;
}
);
layerId = "A9EE2906-FF39-4E72-95D8-9DA33406E6B9";
paths = (
{
closed = 1;
nodes = (
"547.35 0 LINE",
"659.81 95.74 LINE",
"750.74 611.52 LINE",
"647.71 737 LINE",
"285.6 737 LINE",
"173.01 641.44 LINE",
"81.99 125.17 LINE",
"185.2 0 LINE"
);
},
{
closed = 1;
nodes = (
"212.64 154 LINE",
"287.77 583 LINE",
"339.77 626.75 LINE",
"584.02 627.12 LINE",
"620.02 583 LINE",
"544.77 154.12 LINE",
"493.02 110.25 LINE",
"248.77 109.87 LINE"
);
},
{
closed = 1;
nodes = (
"626.43 794.25 LINE",
"693.4 851.45 LINE",
"709.03 932.75 LINE",
"637.3 932.75 LINE",
"632.67 906.37 LINE",
"591.05 870.12 LINE",
"555 870.12 LINE",
"497.24 936.12 LINE",
"378.97 936.12 LINE",
"311.89 878.5 LINE",
"296.41 797.5 LINE",
"368.17 797.5 LINE",
"372.8 823.87 LINE",
"414.3 860.25 LINE",
"450.23 860.25 LINE",
"508.03 794.25 LINE"
);
}
);
width = 703;
}
);
leftKerningGroup = C;
note = Otilde;
rightKerningGroup = O;
unicode = 00D5;
},
{
glyphname = uni022C;
lastChange = "2019-09-04 12:42:51 +0000";
layers = (
{
hints = (
{
horizontal = 1;
place = "{0, 110.06}";
type = Stem;
},
{
horizontal = 1;
place = "{626.94, 110.06}";
type = Stem;
},
{
horizontal = 1;
place = "{794.25, 75.87}";
type = Stem;
},
{
horizontal = 1;
place = "{968.09, 90.12}";
type = Stem;
},
{
place = "{81.99, 668.75}";
type = Stem;
},
{
horizontal = 1;
place = "{860.25, 75.87}";
type = Stem;
}
);
layerId = "A9EE2906-FF39-4E72-95D8-9DA33406E6B9";
paths = (
{
closed = 1;
nodes = (
"547.35 0 LINE",
"659.81 95.74 LINE",
"750.74 611.52 LINE",
"647.71 737 LINE",
"285.6 737 LINE",
"173.01 641.44 LINE",
"81.99 125.17 LINE",
"185.2 0 LINE"
);
},
{
closed = 1;
nodes = (
"212.64 154 LINE",
"287.77 583 LINE",
"339.77 626.75 LINE",
"584.02 627.12 LINE",
"620.02 583 LINE",
"544.77 154.12 LINE",
"493.02 110.25 LINE",
"248.77 109.87 LINE"
);
},
{
closed = 1;
nodes = (
"626.43 794.25 LINE",
"693.4 851.45 LINE",
"709.03 932.75 LINE",
"637.3 932.75 LINE",
"632.67 906.37 LINE",
"591.05 870.12 LINE",
"555 870.12 LINE",
"497.24 936.12 LINE",
"378.97 936.12 LINE",
"311.89 878.5 LINE",
"296.41 797.5 LINE",
"368.17 797.5 LINE",
"372.8 823.87 LINE",
"414.3 860.25 LINE",
"450.23 860.25 LINE",
"508.03 794.25 LINE"
);
},
{
closed = 1;
nodes = (
"715.67 968.09 LINE",
"731.67 1058.21 LINE",
"345.67 1058.21 LINE",
"329.67 968.09 LINE"
);
}
);
width = 703;
}
);
leftKerningGroup = C;
note = uni022C;
rightKerningGroup = O;
unicode = 022C;
},
{
glyphname = OE;
lastChange = "2019-09-04 12:42:51 +0000";
layers = (
{
hints = (
{
horizontal = 1;
place = "{0, 114.37}";
type = Stem;
},
{
horizontal = 1;
place = "{328.87, 114.38}";
type = Stem;
},
{
horizontal = 1;
place = "{622.62, 114.38}";
type = Stem;
},
{
place = "{81.99, 1069.01}";
type = Stem;
}
);
layerId = "A9EE2906-FF39-4E72-95D8-9DA33406E6B9";
paths = (
{
closed = 1;
nodes = (
"1021 0 LINE",
"1041.12 114.37 LINE",
"663.19 114.37 LINE",
"701.01 328.87 LINE",
"1046 328.87 LINE",
"1066.12 443.25 LINE",
"721.18 443.25 LINE",
"752.81 622.62 LINE",
"1130.75 622.62 LINE",
"1151 737 LINE",
"285.6 737 LINE",
"173.01 641.44 LINE",
"81.99 125.17 LINE",
"185.2 0 LINE"
);
},
{
closed = 1;
nodes = (
"212.64 154 LINE",
"287.77 583 LINE",
"339.77 626.75 LINE",
"584.02 627.12 LINE",
"620.02 583 LINE",
"544.77 154.12 LINE",
"493.02 110.25 LINE",
"248.77 109.87 LINE"
);
}
);
width = 1071;
}
);
leftKerningGroup = C;
note = OE;
rightKerningGroup = AE;
unicode = 0152;
},
{
glyphname = P;
lastChange = "2019-09-04 12:42:51 +0000";
layers = (
{
hints = (
{
horizontal = 1;
place = "{254.12, 110.14}";
type = Stem;
},
{
horizontal = 1;
place = "{627.14, 109.86}";
type = Stem;
},
{
place = "{80, 633.72}";
type = Stem;
}
);
layerId = "A9EE2906-FF39-4E72-95D8-9DA33406E6B9";
paths = (
{
closed = 1;
nodes = (
"205.4 0 LINE",
"250.21 254.12 LINE",
"555.08 254.12 LINE",
"667.54 349.86 LINE",
"713.72 611.64 LINE",
"610.69 737 LINE",
"209.95 737 LINE",
"80 0 LINE"
);
},
{
closed = 1;
nodes = (
"315.97 627.03 LINE",
"547.01 627.25 LINE",
"582.88 583 LINE",
"552.5 408.25 LINE",
"500.62 364.37 LINE",
"269.62 364.15 LINE"
);
}
);
width = 626;
}
);
leftKerningGroup = B;
note = P;
rightKerningGroup = P;
unicode = 0050;
},
{
glyphname = Thorn;
lastChange = "2019-09-04 12:42:51 +0000";
layers = (
{
hints = (
{
horizontal = 1;
place = "{136.37, 110.14}";
type = Stem;
},
{
horizontal = 1;
place = "{509.39, 109.86}";
type = Stem;
},
{
place = "{80, 613.36}";
type = Stem;
}
);
layerId = "A9EE2906-FF39-4E72-95D8-9DA33406E6B9";
paths = (
{
closed = 1;
nodes = (
"205.4 -2.25 LINE",
"229.84 136.37 LINE",
"534.73 136.37 LINE",
"647.18 232.11 LINE",
"693.36 493.89 LINE",
"590.34 619.25 LINE",
"314.98 619.25 LINE",
"335.35 734.75 LINE",
"209.95 734.75 LINE",
"80 -2.25 LINE"
);
},
{
closed = 1;
nodes = (
"295.59 509.28 LINE",
"526.64 509.5 LINE",
"562.52 465.25 LINE",
"532.14 290.5 LINE",
"480.27 246.62 LINE",
"249.24 246.4 LINE"
);
}
);
width = 626;
}
);
note = Thorn;
rightKerningGroup = Thorn;
unicode = 00DE;
},
{
glyphname = Q;
lastChange = "2019-09-04 12:42:51 +0000";
layers = (
{
hints = (
{
horizontal = 1;
place = "{0, 110.2}";
type = Stem;
},
{
horizontal = 1;
place = "{626.94, 110.06}";
type = Stem;
},
{
place = "{81.99, 668.75}";
type = Stem;
}
);
layerId = "A9EE2906-FF39-4E72-95D8-9DA33406E6B9";
paths = (
{
closed = 1;
nodes = (
"390.62 -89.13 LINE",
"406.35 0 LINE",
"547.35 0 LINE",
"659.81 95.74 LINE",
"750.74 611.52 LINE",
"647.71 737 LINE",
"285.6 737 LINE",
"173.01 641.44 LINE",
"81.99 125.17 LINE",
"185.2 0 LINE",
"296.6 0 LINE",
"280.87 -89.13 LINE"
);
},
{
closed = 1;
nodes = (
"212.64 154 LINE",
"287.77 583 LINE",
"339.77 626.75 LINE",
"584.02 627.12 LINE",
"620.02 583 LINE",
"544.77 154.12 LINE",
"493.02 110.25 LINE",
"425.8 110.14 LINE",
"443.25 209 LINE",
"333.5 209 LINE",
"316.02 109.98 LINE",
"248.77 109.87 LINE"
);
}
);
width = 703;
}
);
leftKerningGroup = C;
note = Q;
rightKerningGroup = O;
unicode = 0051;
},
{
glyphname = R;
lastChange = "2019-09-04 12:42:51 +0000";
layers = (
{
hints = (
{
horizontal = 1;
place = "{270.62, 110.14}";
type = Stem;
},
{
horizontal = 1;
place = "{627.14, 109.92}";
type = Stem;
},
{
place = "{80, 647.97}";
type = Stem;
}
);
layerId = "A9EE2906-FF39-4E72-95D8-9DA33406E6B9";
paths = (
{
closed = 1;
nodes = (
"205.4 0 LINE",
"253.12 270.62 LINE",
"434.12 270.62 LINE",
"502.36 0 LINE",
"644.24 0 LINE",
"570.02 276.88 LINE",
"686.75 377.2 LINE",
"727.97 611.64 LINE",
"624.94 737.12 LINE",
"209.95 737 LINE",
"80 0 LINE"
);
},
{
closed = 1;
nodes = (
"315.95 627.03 LINE",
"561.24 627.25 LINE",
"597.24 583 LINE",
"569.86 424.62 LINE",
"517.74 380.87 LINE",
"272.51 380.65 LINE"
);
}
);
width = 694;
}
);
leftKerningGroup = B;
note = R;
rightKerningGroup = R;
unicode = 0052;
},
{
glyphname = Racute;
lastChange = "2019-09-04 12:42:51 +0000";
layers = (
{
hints = (
{
horizontal = 1;
place = "{270.62, 110.14}";
type = Stem;
},
{
horizontal = 1;
place = "{627.14, 109.92}";
type = Stem;
},
{
horizontal = 1;
place = "{794.25, 154}";
type = Stem;
},
{
place = "{80, 647.97}";
type = Stem;
}
);
layerId = "A9EE2906-FF39-4E72-95D8-9DA33406E6B9";
paths = (
{
closed = 1;
nodes = (
"205.4 0 LINE",
"253.12 270.62 LINE",
"434.12 270.62 LINE",
"502.36 0 LINE",
"644.24 0 LINE",
"570.02 276.88 LINE",
"686.75 377.2 LINE",
"727.97 611.64 LINE",
"624.94 737.12 LINE",
"209.95 737 LINE",
"80 0 LINE"
);
},
{
closed = 1;
nodes = (
"315.95 627.03 LINE",
"561.24 627.25 LINE",
"597.24 583 LINE",
"569.86 424.62 LINE",
"517.74 380.87 LINE",
"272.51 380.65 LINE"
);
},
{
closed = 1;
nodes = (
"514.75 794.25 LINE",
"689.62 948.25 LINE",
"530 948.25 LINE",
"401.62 794.25 LINE"
);
}
);
width = 694;
}
);
note = Racute;
rightKerningGroup = R;
unicode = 0154;
},
{
glyphname = Rcaron;
lastChange = "2019-09-04 12:42:51 +0000";
layers = (
{
hints = (
{
horizontal = 1;
place = "{270.62, 110.14}";
type = Stem;
},
{
horizontal = 1;
place = "{627.14, 109.92}";
type = Stem;
},
{
horizontal = 1;
place = "{794.25, 143}";
type = Stem;
},
{
place = "{80, 647.97}";
type = Stem;
}
);
layerId = "A9EE2906-FF39-4E72-95D8-9DA33406E6B9";
paths = (
{
closed = 1;
nodes = (
"205.4 0 LINE",
"253.12 270.62 LINE",
"434.12 270.62 LINE",
"502.36 0 LINE",
"644.24 0 LINE",
"570.02 276.88 LINE",
"686.75 377.2 LINE",
"727.97 611.64 LINE",
"624.94 737.12 LINE",
"209.95 737 LINE",
"80 0 LINE"
);
},
{
closed = 1;
nodes = (
"315.95 627.03 LINE",
"561.24 627.25 LINE",
"597.24 583 LINE",
"569.86 424.62 LINE",
"517.74 380.87 LINE",
"272.51 380.65 LINE"
);
},
{
closed = 1;
nodes = (
"517.76 794.25 LINE",
"641.45 937.25 LINE",
"535.1 937.25 LINE",
"455.98 869.12 LINE",
"400.85 937.25 LINE",
"304.13 937.25 LINE",
"389.29 794.25 LINE"
);
}
);
width = 694;
}
);
note = Rcaron;
rightKerningGroup = R;
unicode = 0158;
},
{
glyphname = uni0156;
lastChange = "2019-09-04 12:42:51 +0000";
layers = (
{
hints = (
{
horizontal = 1;
place = "{-239.75, 182.5}";
type = Stem;
},
{
horizontal = 1;
place = "{270.62, 110.14}";
type = Stem;
},
{
horizontal = 1;
place = "{627.14, 109.92}";
type = Stem;
},
{
place = "{80, 647.97}";
type = Stem;
}
);
layerId = "A9EE2906-FF39-4E72-95D8-9DA33406E6B9";
paths = (
{
closed = 1;
nodes = (
"205.4 0 LINE",
"253.12 270.62 LINE",
"434.12 270.62 LINE",
"502.36 0 LINE",
"644.24 0 LINE",
"570.02 276.88 LINE",
"686.75 377.2 LINE",
"727.97 611.64 LINE",
"624.94 737.12 LINE",
"209.95 737 LINE",
"80 0 LINE"
);
},
{
closed = 1;
nodes = (
"279.98 -239.75 LINE",
"411.88 -57.25 LINE",
"281.99 -57.25 LINE",
"209.24 -239.75 LINE"
);
},
{
closed = 1;
nodes = (
"315.95 627.03 LINE",
"561.24 627.25 LINE",
"597.24 583 LINE",
"569.86 424.62 LINE",
"517.74 380.87 LINE",
"272.51 380.65 LINE"
);
}
);
width = 694;
}
);
note = uni0156;
rightKerningGroup = R;
unicode = 0156;
},
{
glyphname = uni0210;
lastChange = "2019-09-04 12:42:51 +0000";
layers = (
{
hints = (
{
horizontal = 1;
place = "{270.62, 110.14}";
type = Stem;
},
{
horizontal = 1;
place = "{627.14, 109.92}";
type = Stem;
},
{
horizontal = 1;
place = "{794.25, 154}";
type = Stem;
},
{
place = "{80, 647.97}";
type = Stem;
}
);
layerId = "A9EE2906-FF39-4E72-95D8-9DA33406E6B9";
paths = (
{
closed = 1;
nodes = (
"205.39 0 LINE",
"253.11 270.62 LINE",
"434.11 270.62 LINE",
"502.35 0 LINE",
"644.23 0 LINE",
"570.01 276.88 LINE",
"686.74 377.2 LINE",
"727.96 611.64 LINE",
"624.93 737.12 LINE",
"209.94 737 LINE",
"79.99 0 LINE"
);
},
{
closed = 1;
nodes = (
"315.94 627.03 LINE",
"561.23 627.25 LINE",
"597.23 583 LINE",
"569.85 424.62 LINE",
"517.73 380.87 LINE",
"272.5 380.65 LINE"
);
},
{
closed = 1;
nodes = (
"393.4 794.25 LINE",
"319.43 948.25 LINE",
"176.65 948.25 LINE",
"295.65 794.25 LINE"
);
},
{
closed = 1;
nodes = (
"587.71 794.25 LINE",
"513.74 948.25 LINE",
"370.96 948.25 LINE",
"489.96 794.25 LINE"
);
}
);
width = 694;
}
);
note = uni0210;
unicode = 0210;
},
{
glyphname = uni0212;
lastChange = "2019-09-04 12:42:51 +0000";
layers = (
{
hints = (
{
horizontal = 1;
place = "{270.62, 110.14}";
type = Stem;
},
{
horizontal = 1;
place = "{627.14, 109.92}";
type = Stem;
},
{
horizontal = 1;
place = "{859.12, 78.13}";
type = Stem;
},
{
place = "{80, 647.97}";
type = Stem;
}
);
layerId = "A9EE2906-FF39-4E72-95D8-9DA33406E6B9";
paths = (
{
closed = 1;
nodes = (
"205.4 0 LINE",
"253.12 270.62 LINE",
"434.12 270.62 LINE",
"502.36 0 LINE",
"644.24 0 LINE",
"570.02 276.88 LINE",
"686.75 377.2 LINE",
"727.97 611.64 LINE",
"624.94 737.12 LINE",
"209.95 737 LINE",
"80 0 LINE"
);
},
{
closed = 1;
nodes = (
"315.95 627.03 LINE",
"561.24 627.25 LINE",
"597.24 583 LINE",
"569.86 424.62 LINE",
"517.74 380.87 LINE",
"272.51 380.65 LINE"
);
},
{
closed = 1;
nodes = (
"384.87 794.25 LINE",
"392.62 838.25 LINE",
"417.25 859.12 LINE",
"516.25 859.12 LINE",
"533.37 838.25 LINE",
"525.62 794.25 LINE",
"606 794.25 LINE",
"617.3 858.28 LINE",
"552.92 937.25 LINE",
"389.27 937.25 LINE",
"319.31 878.12 LINE",
"304.5 794.25 LINE"
);
}
);
width = 694;
}
);
note = uni0212;
unicode = 0212;
},
{
glyphname = S;
lastChange = "2019-09-04 12:42:51 +0000";
layers = (
{
hints = (
{
horizontal = 1;
place = "{0, 114.5}";
type = Stem;
},
{
horizontal = 1;
place = "{326.88, 109.68}";
type = Stem;
},
{
horizontal = 1;
place = "{622.5, 114.5}";
type = Stem;
},
{
place = "{70.37, 623.88}";
type = Stem;
}
);
layerId = "A9EE2906-FF39-4E72-95D8-9DA33406E6B9";
paths = (
{
closed = 1;
nodes = (
"504.87 0 LINE",
"622.66 100.11 LINE",
"659.84 311.27 LINE",
"556.82 436.75 LINE",
"291.5 436.37 LINE",
"255.37 480.75 LINE",
"272.12 578.62 LINE",
"324.25 622.37 LINE",
"674 622.62 LINE",
"694.25 737 LINE",
"275.12 737 LINE",
"157.37 637.07 LINE",
"124.72 451.92 LINE",
"227.93 326.75 LINE",
"493.12 327 LINE",
"529.12 282.75 LINE",
"507.62 158.5 LINE",
"455.75 114.62 LINE",
"90.5 114.37 LINE",
"70.37 0 LINE"
);
}
);
width = 670;
}
);
leftKerningGroup = S;
note = S;
rightKerningGroup = S;
unicode = 0053;
},
{
glyphname = Sacute;
lastChange = "2019-09-04 12:42:51 +0000";
layers = (
{
hints = (
{
horizontal = 1;
place = "{0, 114.5}";
type = Stem;
},
{
horizontal = 1;
place = "{326.88, 109.68}";
type = Stem;
},
{
horizontal = 1;
place = "{622.5, 114.5}";
type = Stem;
},
{
horizontal = 1;
place = "{794.25, 154}";
type = Stem;
},
{
place = "{70.37, 624.25}";
type = Stem;
}
);
layerId = "A9EE2906-FF39-4E72-95D8-9DA33406E6B9";
paths = (
{
closed = 1;
nodes = (
"504.87 0 LINE",
"622.66 100.11 LINE",
"659.84 311.27 LINE",
"556.82 436.75 LINE",
"291.5 436.37 LINE",
"255.37 480.75 LINE",
"272.12 578.62 LINE",
"324.25 622.37 LINE",
"674 622.62 LINE",
"694.25 737 LINE",
"275.12 737 LINE",
"157.37 637.07 LINE",
"124.72 451.92 LINE",
"227.93 326.75 LINE",
"493.12 327 LINE",
"529.12 282.75 LINE",
"507.62 158.5 LINE",
"455.75 114.62 LINE",
"90.5 114.37 LINE",
"70.37 0 LINE"
);
},
{
closed = 1;
nodes = (
"519.75 794.25 LINE",
"694.62 948.25 LINE",
"535 948.25 LINE",
"406.62 794.25 LINE"
);
}
);
width = 670;
}
);
leftKerningGroup = S;
note = Sacute;
rightKerningGroup = S;
unicode = 015A;
},
{
glyphname = Scaron;
lastChange = "2019-09-04 12:42:51 +0000";
layers = (
{
hints = (
{
horizontal = 1;
place = "{0, 114.5}";
type = Stem;
},
{
horizontal = 1;
place = "{326.88, 109.68}";
type = Stem;
},
{
horizontal = 1;
place = "{622.5, 114.5}";
type = Stem;
},
{
horizontal = 1;
place = "{794.25, 143}";
type = Stem;
},
{
place = "{70.37, 623.88}";
type = Stem;
}
);
layerId = "A9EE2906-FF39-4E72-95D8-9DA33406E6B9";
paths = (
{
closed = 1;
nodes = (
"504.87 0 LINE",
"622.66 100.11 LINE",
"659.84 311.27 LINE",
"556.82 436.75 LINE",
"291.5 436.37 LINE",
"255.37 480.75 LINE",
"272.12 578.62 LINE",
"324.25 622.37 LINE",
"674 622.62 LINE",
"694.25 737 LINE",
"275.12 737 LINE",
"157.37 637.07 LINE",
"124.72 451.92 LINE",
"227.93 326.75 LINE",
"493.12 327 LINE",
"529.12 282.75 LINE",
"507.62 158.5 LINE",
"455.75 114.62 LINE",
"90.5 114.37 LINE",
"70.37 0 LINE"
);
},
{
closed = 1;
nodes = (
"522.76 794.25 LINE",
"646.45 937.25 LINE",
"540.1 937.25 LINE",
"460.98 869.12 LINE",
"405.85 937.25 LINE",
"309.13 937.25 LINE",
"394.29 794.25 LINE"
);
}
);
width = 670;
}
);
leftKerningGroup = S;
note = Scaron;
rightKerningGroup = S;
unicode = 0160;
},
{
glyphname = Scedilla;
lastChange = "2019-09-04 12:42:51 +0000";
layers = (
{
hints = (
{
horizontal = 1;
place = "{0, 114.5}";
type = Stem;
},
{
horizontal = 1;
place = "{326.88, 109.68}";
type = Stem;
},
{
horizontal = 1;
place = "{622.5, 114.5}";
type = Stem;
},
{
place = "{70.37, 623.88}";
type = Stem;
}
);
layerId = "A9EE2906-FF39-4E72-95D8-9DA33406E6B9";
paths = (
{
closed = 1;
nodes = (
"317.14 -125.38 LINE",
"380.16 0 LINE",
"504.87 0 LINE",
"622.66 100.11 LINE",
"659.84 311.27 LINE",
"556.82 436.75 LINE",
"291.5 436.37 LINE",
"255.37 480.75 LINE",
"272.12 578.62 LINE",
"324.25 622.37 LINE",
"674 622.62 LINE",
"694.25 737 LINE",
"275.12 737 LINE",
"157.37 637.07 LINE",
"124.72 451.92 LINE",
"227.93 326.75 LINE",
"493.12 327 LINE",
"529.12 282.75 LINE",
"507.62 158.5 LINE",
"455.75 114.62 LINE",
"90.5 114.37 LINE",
"70.37 0 LINE",
"269.62 0 LINE",
"227.62 -125.38 LINE"
);
}
);
width = 670;
}
);
leftKerningGroup = S;
note = Scedilla;
rightKerningGroup = S;
unicode = 015E;
},
{
glyphname = Scircumflex;
lastChange = "2019-09-04 12:42:51 +0000";
layers = (
{
hints = (
{
horizontal = 1;
place = "{0, 114.5}";
type = Stem;
},
{
horizontal = 1;
place = "{326.88, 109.68}";
type = Stem;
},
{
horizontal = 1;
place = "{622.5, 114.5}";
type = Stem;
},
{
horizontal = 1;
place = "{794.25, 143}";
type = Stem;
},
{
place = "{70.37, 623.88}";
type = Stem;
}
);
layerId = "A9EE2906-FF39-4E72-95D8-9DA33406E6B9";
paths = (
{
closed = 1;
nodes = (
"504.87 0 LINE",
"622.66 100.11 LINE",
"659.84 311.27 LINE",
"556.82 436.75 LINE",
"291.5 436.37 LINE",
"255.37 480.75 LINE",
"272.12 578.62 LINE",
"324.25 622.37 LINE",
"674 622.62 LINE",
"694.25 737 LINE",
"275.12 737 LINE",
"157.37 637.07 LINE",
"124.72 451.92 LINE",
"227.93 326.75 LINE",
"493.12 327 LINE",
"529.12 282.75 LINE",
"507.62 158.5 LINE",
"455.75 114.62 LINE",
"90.5 114.37 LINE",
"70.37 0 LINE"
);
},
{
closed = 1;
nodes = (
"395.12 794.25 LINE",
"474.25 862.37 LINE",
"529.37 794.25 LINE",
"626.09 794.25 LINE",
"540.93 937.25 LINE",
"412.46 937.25 LINE",
"288.77 794.25 LINE"
);
}
);
width = 670;
}
);
note = Scircumflex;
unicode = 015C;
},
{
glyphname = uni0218;
lastChange = "2019-09-04 12:42:51 +0000";
layers = (
{
hints = (
{
horizontal = 1;
place = "{-239.75, 182.5}";
type = Stem;
},
{
horizontal = 1;
place = "{0, 114.5}";
type = Stem;
},
{
horizontal = 1;
place = "{326.88, 109.68}";
type = Stem;
},
{
horizontal = 1;
place = "{622.5, 114.5}";
type = Stem;
},
{
place = "{70.37, 623.88}";
type = Stem;
}
);
layerId = "A9EE2906-FF39-4E72-95D8-9DA33406E6B9";
paths = (
{
closed = 1;
nodes = (
"504.87 0 LINE",
"622.66 100.11 LINE",
"659.84 311.27 LINE",
"556.82 436.75 LINE",
"291.5 436.37 LINE",
"255.37 480.75 LINE",
"272.12 578.62 LINE",
"324.25 622.37 LINE",
"674 622.62 LINE",
"694.25 737 LINE",
"275.12 737 LINE",
"157.37 637.07 LINE",
"124.72 451.92 LINE",
"227.93 326.75 LINE",
"493.12 327 LINE",
"529.12 282.75 LINE",
"507.62 158.5 LINE",
"455.75 114.62 LINE",
"90.5 114.37 LINE",
"70.37 0 LINE"
);
},
{
closed = 1;
nodes = (
"242.99 -239.75 LINE",
"374.89 -57.25 LINE",
"245 -57.25 LINE",
"172.25 -239.75 LINE"
);
}
);
width = 670;
}
);
leftKerningGroup = S;
note = uni0218;
rightKerningGroup = S;
unicode = 0218;
},
{
glyphname = uni1E9E;
lastChange = "2019-09-04 12:42:51 +0000";
layers = (
{
hints = (
{
horizontal = 1;
place = "{0, 110.06}";
type = Stem;
},
{
horizontal = 1;
place = "{329, 109.87}";
type = Stem;
},
{
horizontal = 1;
place = "{626.94, 110.06}";
type = Stem;
},
{
place = "{80, 617.75}";
type = Stem;
}
);
layerId = "A9EE2906-FF39-4E72-95D8-9DA33406E6B9";
paths = (
{
closed = 1;
nodes = (
"205.25 0 LINE",
"307.87 583 LINE",
"359.87 626.75 LINE",
"508.68 627.12 LINE",
"547.98 578.95 LINE",
"356.25 416.87 LINE",
"340.75 328.87 LINE",
"533.65 329.12 LINE",
"567.03 288.23 LINE",
"546.78 169.99 LINE",
"476.54 110.25 LINE",
"398.94 109.87 LINE",
"343.14 177.58 LINE",
"253 100.12 LINE",
"335.37 0 LINE",
"530.87 0 LINE",
"661.5 111.12 LINE",
"697.75 316.75 LINE",
"597.25 438.87 LINE",
"529.37 438.87 LINE",
"648.37 540 LINE",
"663.87 625.87 LINE",
"572.37 737 LINE",
"305.7 737 LINE",
"193.12 641.44 LINE",
"80 0 LINE"
);
}
);
width = 702;
}
);
note = uni1E9E;
unicode = 1E9E;
},
{
glyphname = uni018F;
lastChange = "2019-09-04 12:42:51 +0000";
layers = (
{
hints = (
{
horizontal = 1;
place = "{0, 110.06}";
type = Stem;
},
{
horizontal = 1;
place = "{322.62, 106.63}";
type = Stem;
},
{
horizontal = 1;
place = "{626.94, 110.06}";
type = Stem;
},
{
place = "{81.99, 734.75}";
type = Stem;
}
);
layerId = "A9EE2906-FF39-4E72-95D8-9DA33406E6B9";
paths = (
{
closed = 1;
nodes = (
"613.35 0 LINE",
"725.81 95.74 LINE",
"816.74 611.52 LINE",
"713.71 737 LINE",
"203.14 737 LINE",
"183.64 626.75 LINE",
"650.02 627.12 LINE",
"686.02 583 LINE",
"659.04 429.25 LINE",
"135.64 429.25 LINE",
"81.99 125.17 LINE",
"185.2 0 LINE"
);
},
{
closed = 1;
nodes = (
"212.64 154 LINE",
"242.14 322.62 LINE",
"640.33 322.62 LINE",
"610.77 154.12 LINE",
"559.02 110.25 LINE",
"248.77 109.87 LINE"
);
}
);
width = 769;
}
);
note = uni018F;
unicode = 018F;
},
{
glyphname = T;
lastChange = "2019-09-04 12:42:51 +0000";
layers = (
{
hints = (
{
horizontal = 1;
place = "{622.62, 114.38}";
type = Stem;
},
{
place = "{124.75, 554.75}";
type = Stem;
}
);
layerId = "A9EE2906-FF39-4E72-95D8-9DA33406E6B9";
paths = (
{
closed = 1;
nodes = (
"344.9 0 LINE",
"454.68 622.62 LINE",
"659.25 622.62 LINE",
"679.5 737 LINE",
"145 737 LINE",
"124.75 622.62 LINE",
"329.28 622.62 LINE",
"219.5 0 LINE"
);
}
);
width = 565;
}
);
leftKerningGroup = T;
note = T;
rightKerningGroup = T;
unicode = 0054;
},
{
glyphname = Tbar;
lastChange = "2019-09-04 12:42:51 +0000";
layers = (
{
hints = (
{
horizontal = 1;
place = "{319, 92.37}";
type = Stem;
},
{
horizontal = 1;
place = "{622.62, 114.38}";
type = Stem;
},
{
place = "{118.5, 561}";
type = Stem;
}
);
layerId = "A9EE2906-FF39-4E72-95D8-9DA33406E6B9";
paths = (
{
closed = 1;
nodes = (
"344.9 0 LINE",
"401.15 319 LINE",
"558.5 319 LINE",
"574.75 411.37 LINE",
"417.43 411.37 LINE",
"454.68 622.62 LINE",
"659.25 622.62 LINE",
"679.5 737 LINE",
"145 737 LINE",
"124.75 622.62 LINE",
"329.28 622.62 LINE",
"292.03 411.37 LINE",
"134.75 411.37 LINE",
"118.5 319 LINE",
"275.75 319 LINE",
"219.5 0 LINE"
);
}
);
width = 565;
}
);
leftKerningGroup = T;
note = Tbar;
rightKerningGroup = T;
unicode = 0166;
},
{
glyphname = Tcaron;
lastChange = "2019-09-04 12:42:51 +0000";
layers = (
{
hints = (
{
horizontal = 1;
place = "{622.62, 114.38}";
type = Stem;
},
{
horizontal = 1;
place = "{794.25, 143}";
type = Stem;
},
{
place = "{124.75, 554.75}";
type = Stem;
}
);
layerId = "A9EE2906-FF39-4E72-95D8-9DA33406E6B9";
paths = (
{
closed = 1;
nodes = (
"344.9 0 LINE",
"454.68 622.62 LINE",
"659.25 622.62 LINE",
"679.5 737 LINE",
"145 737 LINE",
"124.75 622.62 LINE",
"329.28 622.62 LINE",
"219.5 0 LINE"
);
},
{
closed = 1;
nodes = (
"481.64 794.25 LINE",
"605.33 937.25 LINE",
"498.98 937.25 LINE",
"419.85 869.12 LINE",
"364.73 937.25 LINE",
"268.01 937.25 LINE",
"353.17 794.25 LINE"
);
}
);
width = 565;
}
);
leftKerningGroup = T;
note = Tcaron;
rightKerningGroup = T;
unicode = 0164;
},
{
glyphname = uni0162;
lastChange = "2019-09-04 12:42:51 +0000";
layers = (
{
hints = (
{
horizontal = 1;
place = "{622.62, 114.38}";
type = Stem;
},
{
place = "{124.75, 554.75}";
type = Stem;
}
);
layerId = "A9EE2906-FF39-4E72-95D8-9DA33406E6B9";
paths = (
{
closed = 1;
nodes = (
"306.37 -125.38 LINE",
"344.87 0 LINE",
"344.9 0 LINE",
"454.68 622.62 LINE",
"659.25 622.62 LINE",
"679.5 737 LINE",
"145 737 LINE",
"124.75 622.62 LINE",
"329.28 622.62 LINE",
"219.5 0 LINE",
"241.5 0 LINE",
"221.75 -125.38 LINE"
);
}
);
width = 563;
}
);
leftKerningGroup = T;
note = uni0162;
rightKerningGroup = T;
unicode = 0162;
},
{
glyphname = uni021A;
lastChange = "2019-09-04 12:42:51 +0000";
layers = (
{
hints = (
{
horizontal = 1;
place = "{-239.75, 182.5}";
type = Stem;
},
{
horizontal = 1;
place = "{622.62, 114.38}";
type = Stem;
},
{
place = "{124.75, 554.75}";
type = Stem;
}
);
layerId = "A9EE2906-FF39-4E72-95D8-9DA33406E6B9";
paths = (
{
closed = 1;
nodes = (
"344.9 0 LINE",
"454.68 622.62 LINE",
"659.25 622.62 LINE",
"679.5 737 LINE",
"145 737 LINE",
"124.75 622.62 LINE",
"329.28 622.62 LINE",
"219.5 0 LINE"
);
},
{
closed = 1;
nodes = (
"202.99 -239.75 LINE",
"334.89 -57.25 LINE",
"205 -57.25 LINE",
"132.25 -239.75 LINE"
);
}
);
width = 565;
}
);
leftKerningGroup = T;
note = uni021A;
rightKerningGroup = T;
unicode = 021A;
},
{
glyphname = U;
lastChange = "2019-09-04 12:42:51 +0000";
layers = (
{
hints = (
{
horizontal = 1;
place = "{0, 110.06}";
type = Stem;
},
{
place = "{71.91, 691.04}";
type = Stem;
}
);
layerId = "A9EE2906-FF39-4E72-95D8-9DA33406E6B9";
paths = (
{
closed = 1;
nodes = (
"649.53 95.36 LINE",
"762.95 737 LINE",
"637.58 737 LINE",
"534.48 153.75 LINE",
"482.75 109.87 LINE",
"238.69 110.25 LINE",
"202.32 154.25 LINE",
"305.33 737 LINE",
"179.95 737 LINE",
"71.91 125.54 LINE",
"175.12 0.37 LINE",
"537.08 -0.38 LINE"
);
}
);
width = 713;
}
);
note = U;
unicode = 0055;
},
{
glyphname = Uacute;
lastChange = "2019-09-04 12:42:51 +0000";
layers = (
{
hints = (
{
horizontal = 1;
place = "{0, 110.06}";
type = Stem;
},
{
horizontal = 1;
place = "{794.25, 154}";
type = Stem;
},
{
place = "{71.91, 691.04}";
type = Stem;
}
);
layerId = "A9EE2906-FF39-4E72-95D8-9DA33406E6B9";
paths = (
{
closed = 1;
nodes = (
"649.53 95.36 LINE",
"762.95 737 LINE",
"637.58 737 LINE",
"534.48 153.75 LINE",
"482.75 109.87 LINE",
"238.69 110.25 LINE",
"202.32 154.25 LINE",
"305.33 737 LINE",
"179.95 737 LINE",
"71.91 125.54 LINE",
"175.12 0.37 LINE",
"537.08 -0.38 LINE"
);
},
{
closed = 1;
nodes = (
"535 794.25 LINE",
"709.87 948.25 LINE",
"550.25 948.25 LINE",
"421.87 794.25 LINE"
);
}
);
width = 713;
}
);
note = Uacute;
unicode = 00DA;
},
{
glyphname = Ubreve;
lastChange = "2019-09-04 12:42:51 +0000";
layers = (
{
hints = (
{
horizontal = 1;
place = "{0, 110.06}";
type = Stem;
},
{
horizontal = 1;
place = "{794.21, 78.04}";
type = Stem;
},
{
place = "{71.91, 691.04}";
type = Stem;
},
{
horizontal = 1;
place = "{893.25, 44}";
type = Stem;
}
);
layerId = "A9EE2906-FF39-4E72-95D8-9DA33406E6B9";
paths = (
{
closed = 1;
nodes = (
"649.53 95.36 LINE",
"762.95 737 LINE",
"637.58 737 LINE",
"534.48 153.75 LINE",
"482.75 109.87 LINE",
"238.69 110.25 LINE",
"202.32 154.25 LINE",
"305.33 737 LINE",
"179.95 737 LINE",
"71.91 125.54 LINE",
"175.12 0.37 LINE",
"537.08 -0.38 LINE"
);
},
{
closed = 1;
nodes = (
"560.8 794.25 LINE",
"630.68 853.18 LINE",
"645.5 937.25 LINE",
"565.12 937.25 LINE",
"557.37 893.25 LINE",
"532.75 872.25 LINE",
"433.75 872.25 LINE",
"416.62 893.25 LINE",
"424.37 937.25 LINE",
"344 937.25 LINE",
"332.54 872.25 LINE",
"397.58 794.17 LINE"
);
}
);
width = 713;
}
);
note = Ubreve;
unicode = 016C;
},
{
glyphname = Ucircumflex;
lastChange = "2019-09-04 12:42:51 +0000";
layers = (
{
hints = (
{
horizontal = 1;
place = "{0, 110.06}";
type = Stem;
},
{
horizontal = 1;
place = "{794.25, 143}";
type = Stem;
},
{
place = "{71.91, 691.04}";
type = Stem;
}
);
layerId = "A9EE2906-FF39-4E72-95D8-9DA33406E6B9";
paths = (
{
closed = 1;
nodes = (
"649.53 95.36 LINE",
"762.95 737 LINE",
"637.58 737 LINE",
"534.48 153.75 LINE",
"482.75 109.87 LINE",
"238.69 110.25 LINE",
"202.32 154.25 LINE",
"305.33 737 LINE",
"179.95 737 LINE",
"71.91 125.54 LINE",
"175.12 0.37 LINE",
"537.08 -0.38 LINE"
);
},
{
closed = 1;
nodes = (
"410.37 794.25 LINE",
"489.5 862.37 LINE",
"544.62 794.25 LINE",
"641.34 794.25 LINE",
"556.18 937.25 LINE",
"427.71 937.25 LINE",
"304.02 794.25 LINE"
);
}
);
width = 713;
}
);
note = Ucircumflex;
unicode = 00DB;
},
{
glyphname = uni0214;
lastChange = "2019-09-04 12:42:51 +0000";
layers = (
{
hints = (
{
horizontal = 1;
place = "{0, 110.06}";
type = Stem;
},
{
horizontal = 1;
place = "{794.25, 154}";
type = Stem;
},
{
place = "{71.91, 691.04}";
type = Stem;
}
);
layerId = "A9EE2906-FF39-4E72-95D8-9DA33406E6B9";
paths = (
{
closed = 1;
nodes = (
"649.53 95.36 LINE",
"762.95 737 LINE",
"637.58 737 LINE",
"534.48 153.75 LINE",
"482.75 109.87 LINE",
"238.69 110.25 LINE",
"202.32 154.25 LINE",
"305.33 737 LINE",
"179.95 737 LINE",
"71.91 125.54 LINE",
"175.12 0.37 LINE",
"537.08 -0.38 LINE"
);
},
{
closed = 1;
nodes = (
"413.65 794.25 LINE",
"339.68 948.25 LINE",
"196.9 948.25 LINE",
"315.9 794.25 LINE"
);
},
{
closed = 1;
nodes = (
"607.96 794.25 LINE",
"533.99 948.25 LINE",
"391.21 948.25 LINE",
"510.21 794.25 LINE"
);
}
);
width = 713;
}
);
note = uni0214;
unicode = 0214;
},
{
glyphname = Udieresis;
lastChange = "2019-09-04 12:42:51 +0000";
layers = (
{
hints = (
{
horizontal = 1;
place = "{0, 110.06}";
type = Stem;
},
{
horizontal = 1;
place = "{794.25, 125.5}";
type = Stem;
},
{
place = "{71.91, 691.04}";
type = Stem;
}
);
layerId = "A9EE2906-FF39-4E72-95D8-9DA33406E6B9";
paths = (
{
closed = 1;
nodes = (
"649.53 95.36 LINE",
"762.95 737 LINE",
"637.58 737 LINE",
"534.48 153.75 LINE",
"482.75 109.87 LINE",
"238.69 110.25 LINE",
"202.32 154.25 LINE",
"305.33 737 LINE",
"179.95 737 LINE",
"71.91 125.54 LINE",
"175.12 0.37 LINE",
"537.08 -0.38 LINE"
);
},
{
closed = 1;
nodes = (
"404.5 794.25 LINE",
"426.62 919.75 LINE",
"305.62 919.75 LINE",
"283.5 794.25 LINE"
);
},
{
closed = 1;
nodes = (
"669.5 794.25 LINE",
"691.62 919.75 LINE",
"570.62 919.75 LINE",
"548.5 794.25 LINE"
);
}
);
width = 713;
}
);
note = Udieresis;
unicode = 00DC;
},
{
glyphname = uni1EE4;
lastChange = "2019-09-04 12:42:51 +0000";
layers = (
{
hints = (
{
horizontal = 1;
place = "{-182.63, 125.38}";
type = Stem;
},
{
horizontal = 1;
place = "{0, 110.06}";
type = Stem;
},
{
place = "{71.91, 691.04}";
type = Stem;
}
);
layerId = "A9EE2906-FF39-4E72-95D8-9DA33406E6B9";
paths = (
{
closed = 1;
nodes = (
"649.53 95.36 LINE",
"762.95 737 LINE",
"637.58 737 LINE",
"534.48 153.75 LINE",
"482.75 109.87 LINE",
"238.69 110.25 LINE",
"202.32 154.25 LINE",
"305.33 737 LINE",
"179.95 737 LINE",
"71.91 125.54 LINE",
"175.12 0.37 LINE",
"537.08 -0.38 LINE"
);
},
{
closed = 1;
nodes = (
"375.32 -182.63 LINE",
"397.45 -57.25 LINE",
"276.45 -57.25 LINE",
"254.32 -182.63 LINE"
);
}
);
width = 713;
}
);
note = uni1EE4;
unicode = 1EE4;
},
{
glyphname = Ugrave;
lastChange = "2019-09-04 12:42:51 +0000";
layers = (
{
hints = (
{
horizontal = 1;
place = "{0, 110.06}";
type = Stem;
},
{
horizontal = 1;
place = "{794.25, 154}";
type = Stem;
},
{
place = "{71.91, 691.04}";
type = Stem;
}
);
layerId = "A9EE2906-FF39-4E72-95D8-9DA33406E6B9";
paths = (
{
closed = 1;
nodes = (
"649.53 95.36 LINE",
"762.95 737 LINE",
"637.58 737 LINE",
"534.48 153.75 LINE",
"482.75 109.87 LINE",
"238.69 110.25 LINE",
"202.32 154.25 LINE",
"305.33 737 LINE",
"179.95 737 LINE",
"71.91 125.54 LINE",
"175.12 0.37 LINE",
"537.08 -0.38 LINE"
);
},
{
closed = 1;
nodes = (
"506.12 794.25 LINE",
"432.15 948.25 LINE",
"289.37 948.25 LINE",
"408.37 794.25 LINE"
);
}
);
width = 713;
}
);
note = Ugrave;
unicode = 00D9;
},
{
glyphname = uni1EE6;
lastChange = "2019-09-04 12:42:51 +0000";
layers = (
{
hints = (
{
horizontal = 1;
place = "{0, 110.06}";
type = Stem;
},
{
horizontal = 1;
place = "{939, 71}";
type = Stem;
},
{
place = "{71.91, 691.04}";
type = Stem;
}
);
layerId = "A9EE2906-FF39-4E72-95D8-9DA33406E6B9";
paths = (
{
closed = 1;
nodes = (
"649.53 95.36 LINE",
"762.95 737 LINE",
"637.58 737 LINE",
"534.48 153.75 LINE",
"482.75 109.87 LINE",
"238.69 110.25 LINE",
"202.32 154.25 LINE",
"305.33 737 LINE",
"179.95 737 LINE",
"71.91 125.54 LINE",
"175.12 0.37 LINE",
"537.08 -0.38 LINE"
);
},
{
closed = 1;
nodes = (
"514.62 794.25 LINE",
"519.56 822.22 LINE",
"600.81 876.11 LINE",
"613.88 950.19 LINE",
"565.59 1010 LINE",
"448.77 1010 LINE",
"393.88 963.94 LINE",
"443.37 903.37 LINE",
"485.87 939 LINE",
"516.46 939 LINE",
"523.15 930.87 LINE",
"520.37 915.37 LINE",
"446.5 863.37 LINE",
"434.25 794.25 LINE"
);
}
);
width = 713;
}
);
note = uni1EE6;
unicode = 1EE6;
},
{
glyphname = Uhorn;
lastChange = "2019-09-04 12:42:51 +0000";
layers = (
{
hints = (
{
horizontal = 1;
place = "{0, 110.06}";
type = Stem;
},
{
horizontal = 1;
place = "{606.12, 76.88}";
type = Stem;
},
{
place = "{71.91, 929.44}";
type = Stem;
}
);
layerId = "A9EE2906-FF39-4E72-95D8-9DA33406E6B9";
paths = (
{
closed = 1;
nodes = (
"649.53 95.36 LINE",
"739.82 606.12 LINE",
"892.48 606.12 LINE",
"1001.35 801.62 LINE",
"863.25 801.62 LINE",
"825.87 683 LINE",
"753.41 683 LINE",
"762.95 737 LINE",
"637.58 737 LINE",
"534.48 153.75 LINE",
"482.75 109.87 LINE",
"238.69 110.25 LINE",
"202.32 154.25 LINE",
"305.33 737 LINE",
"179.95 737 LINE",
"71.91 125.54 LINE",
"175.12 0.37 LINE",
"537.08 -0.38 LINE"
);
}
);
width = 713;
}
);
note = Uhorn;
unicode = 01AF;
},
{
glyphname = uni1EE8;
lastChange = "2019-09-04 12:42:51 +0000";
layers = (
{
hints = (
{
horizontal = 1;
place = "{0, 110.06}";
type = Stem;
},
{
horizontal = 1;
place = "{606.12, 76.88}";
type = Stem;
},
{
horizontal = 1;
place = "{794.25, 154}";
type = Stem;
},
{
place = "{71.91, 929.44}";
type = Stem;
}
);
layerId = "A9EE2906-FF39-4E72-95D8-9DA33406E6B9";
paths = (
{
closed = 1;
nodes = (
"649.53 95.36 LINE",
"739.82 606.12 LINE",
"892.48 606.12 LINE",
"1001.35 801.62 LINE",
"863.25 801.62 LINE",
"825.87 683 LINE",
"753.41 683 LINE",
"762.95 737 LINE",
"637.58 737 LINE",
"534.48 153.75 LINE",
"482.75 109.87 LINE",
"238.69 110.25 LINE",
"202.32 154.25 LINE",
"305.33 737 LINE",
"179.95 737 LINE",
"71.91 125.54 LINE",
"175.12 0.37 LINE",
"537.08 -0.38 LINE"
);
},
{
closed = 1;
nodes = (
"535 794.25 LINE",
"709.87 948.25 LINE",
"550.25 948.25 LINE",
"421.87 794.25 LINE"
);
}
);
width = 713;
}
);
note = uni1EE8;
unicode = 1EE8;
},
{
glyphname = uni1EF0;
lastChange = "2019-09-04 12:42:51 +0000";
layers = (
{
hints = (
{
horizontal = 1;
place = "{-182.63, 125.38}";
type = Stem;
},
{
horizontal = 1;
place = "{0, 110.06}";
type = Stem;
},
{
horizontal = 1;
place = "{606.12, 76.88}";
type = Stem;
},
{
place = "{71.91, 929.44}";
type = Stem;
}
);
layerId = "A9EE2906-FF39-4E72-95D8-9DA33406E6B9";
paths = (
{
closed = 1;
nodes = (
"649.53 95.36 LINE",
"739.82 606.12 LINE",
"892.48 606.12 LINE",
"1001.35 801.62 LINE",
"863.25 801.62 LINE",
"825.87 683 LINE",
"753.41 683 LINE",
"762.95 737 LINE",
"637.58 737 LINE",
"534.48 153.75 LINE",
"482.75 109.87 LINE",
"238.69 110.25 LINE",
"202.32 154.25 LINE",
"305.33 737 LINE",
"179.95 737 LINE",
"71.91 125.54 LINE",
"175.12 0.37 LINE",
"537.08 -0.38 LINE"
);
},
{
closed = 1;
nodes = (
"375.32 -182.63 LINE",
"397.45 -57.25 LINE",
"276.45 -57.25 LINE",
"254.32 -182.63 LINE"
);
}
);
width = 713;
}
);
note = uni1EF0;
unicode = 1EF0;
},
{
glyphname = uni1EEA;
lastChange = "2019-09-04 12:42:51 +0000";
layers = (
{
hints = (
{
horizontal = 1;
place = "{0, 110.06}";
type = Stem;
},
{
horizontal = 1;
place = "{606.12, 76.88}";
type = Stem;
},
{
horizontal = 1;
place = "{794.25, 154}";
type = Stem;
},
{
place = "{71.91, 929.44}";
type = Stem;
}
);
layerId = "A9EE2906-FF39-4E72-95D8-9DA33406E6B9";
paths = (
{
closed = 1;
nodes = (
"649.53 95.36 LINE",
"739.82 606.12 LINE",
"892.48 606.12 LINE",
"1001.35 801.62 LINE",
"863.25 801.62 LINE",
"825.87 683 LINE",
"753.41 683 LINE",
"762.95 737 LINE",
"637.58 737 LINE",
"534.48 153.75 LINE",
"482.75 109.87 LINE",
"238.69 110.25 LINE",
"202.32 154.25 LINE",
"305.33 737 LINE",
"179.95 737 LINE",
"71.91 125.54 LINE",
"175.12 0.37 LINE",
"537.08 -0.38 LINE"
);
},
{
closed = 1;
nodes = (
"506.12 794.25 LINE",
"432.15 948.25 LINE",
"289.37 948.25 LINE",
"408.37 794.25 LINE"
);
}
);
width = 713;
}
);
note = uni1EEA;
unicode = 1EEA;
},
{
glyphname = uni1EEC;
lastChange = "2019-09-04 12:42:51 +0000";
layers = (
{
hints = (
{
horizontal = 1;
place = "{0, 110.06}";
type = Stem;
},
{
horizontal = 1;
place = "{606.12, 76.88}";
type = Stem;
},
{
horizontal = 1;
place = "{939, 71}";
type = Stem;
},
{
place = "{71.91, 929.44}";
type = Stem;
}
);
layerId = "A9EE2906-FF39-4E72-95D8-9DA33406E6B9";
paths = (
{
closed = 1;
nodes = (
"649.53 95.36 LINE",
"739.82 606.12 LINE",
"892.48 606.12 LINE",
"1001.35 801.62 LINE",
"863.25 801.62 LINE",
"825.87 683 LINE",
"753.41 683 LINE",
"762.95 737 LINE",
"637.58 737 LINE",
"534.48 153.75 LINE",
"482.75 109.87 LINE",
"238.69 110.25 LINE",
"202.32 154.25 LINE",
"305.33 737 LINE",
"179.95 737 LINE",
"71.91 125.54 LINE",
"175.12 0.37 LINE",
"537.08 -0.38 LINE"
);
},
{
closed = 1;
nodes = (
"514.62 794.25 LINE",
"519.56 822.22 LINE",
"600.81 876.11 LINE",
"613.88 950.19 LINE",
"565.59 1010 LINE",
"448.77 1010 LINE",
"393.88 963.94 LINE",
"443.37 903.37 LINE",
"485.87 939 LINE",
"516.46 939 LINE",
"523.15 930.87 LINE",
"520.37 915.37 LINE",
"446.5 863.37 LINE",
"434.25 794.25 LINE"
);
}
);
width = 713;
}
);
note = uni1EEC;
unicode = 1EEC;
},
{
glyphname = uni1EEE;
lastChange = "2019-09-04 12:42:51 +0000";
layers = (
{
hints = (
{
horizontal = 1;
place = "{0, 110.06}";
type = Stem;
},
{
horizontal = 1;
place = "{606.12, 76.88}";
type = Stem;
},
{
horizontal = 1;
place = "{860.25, 75.87}";
type = Stem;
},
{
place = "{71.91, 929.44}";
type = Stem;
},
{
horizontal = 1;
place = "{794.25, 75.87}";
type = Stem;
}
);
layerId = "A9EE2906-FF39-4E72-95D8-9DA33406E6B9";
paths = (
{
closed = 1;
nodes = (
"649.53 95.36 LINE",
"739.82 606.12 LINE",
"892.48 606.12 LINE",
"1001.35 801.62 LINE",
"863.25 801.62 LINE",
"825.87 683 LINE",
"753.41 683 LINE",
"762.95 737 LINE",
"637.58 737 LINE",
"534.48 153.75 LINE",
"482.75 109.87 LINE",
"238.69 110.25 LINE",
"202.32 154.25 LINE",
"305.33 737 LINE",
"179.95 737 LINE",
"71.91 125.54 LINE",
"175.12 0.37 LINE",
"537.08 -0.38 LINE"
);
},
{
closed = 1;
nodes = (
"616.5 794.25 LINE",
"683.48 851.45 LINE",
"699.1 932.75 LINE",
"627.37 932.75 LINE",
"622.75 906.37 LINE",
"581.12 870.12 LINE",
"545.08 870.12 LINE",
"487.32 936.12 LINE",
"369.05 936.12 LINE",
"301.96 878.5 LINE",
"286.48 797.5 LINE",
"358.25 797.5 LINE",
"362.87 823.87 LINE",
"404.37 860.25 LINE",
"440.31 860.25 LINE",
"498.11 794.25 LINE"
);
}
);
width = 713;
}
);
note = uni1EEE;
unicode = 1EEE;
},
{
glyphname = Uhungarumlaut;
lastChange = "2019-09-04 12:42:51 +0000";
layers = (
{
hints = (
{
horizontal = 1;
place = "{0, 110.06}";
type = Stem;
},
{
horizontal = 1;
place = "{794.25, 154}";
type = Stem;
},
{
place = "{71.91, 729.96}";
type = Stem;
}
);
layerId = "A9EE2906-FF39-4E72-95D8-9DA33406E6B9";
paths = (
{
closed = 1;
nodes = (
"649.53 95.36 LINE",
"762.95 737 LINE",
"637.58 737 LINE",
"534.48 153.75 LINE",
"482.75 109.87 LINE",
"238.69 110.25 LINE",
"202.32 154.25 LINE",
"305.33 737 LINE",
"179.95 737 LINE",
"71.91 125.54 LINE",
"175.12 0.37 LINE",
"537.08 -0.38 LINE"
);
},
{
closed = 1;
nodes = (
"433.37 794.25 LINE",
"608.25 948.25 LINE",
"448.62 948.25 LINE",
"320.25 794.25 LINE"
);
},
{
closed = 1;
nodes = (
"627 794.25 LINE",
"801.87 948.25 LINE",
"642.25 948.25 LINE",
"513.87 794.25 LINE"
);
}
);
width = 713;
}
);
note = Uhungarumlaut;
unicode = 0170;
},
{
glyphname = uni0216;
lastChange = "2019-09-04 12:42:51 +0000";
layers = (
{
hints = (
{
horizontal = 1;
place = "{0, 110.06}";
type = Stem;
},
{
horizontal = 1;
place = "{859.12, 78.13}";
type = Stem;
},
{
place = "{71.91, 691.04}";
type = Stem;
}
);
layerId = "A9EE2906-FF39-4E72-95D8-9DA33406E6B9";
paths = (
{
closed = 1;
nodes = (
"649.53 95.36 LINE",
"762.95 737 LINE",
"637.58 737 LINE",
"534.48 153.75 LINE",
"482.75 109.87 LINE",
"238.69 110.25 LINE",
"202.32 154.25 LINE",
"305.33 737 LINE",
"179.95 737 LINE",
"71.91 125.54 LINE",
"175.12 0.37 LINE",
"537.08 -0.38 LINE"
);
},
{
closed = 1;
nodes = (
"405.12 794.25 LINE",
"412.87 838.25 LINE",
"437.5 859.12 LINE",
"536.5 859.12 LINE",
"553.62 838.25 LINE",
"545.87 794.25 LINE",
"626.25 794.25 LINE",
"637.55 858.28 LINE",
"573.17 937.25 LINE",
"409.52 937.25 LINE",
"339.56 878.12 LINE",
"324.75 794.25 LINE"
);
}
);
width = 713;
}
);
note = uni0216;
unicode = 0216;
},
{
glyphname = Umacron;
lastChange = "2019-09-04 12:42:51 +0000";
layers = (
{
hints = (
{
horizontal = 1;
place = "{0, 110.06}";
type = Stem;
},
{
horizontal = 1;
place = "{794.25, 90.12}";
type = Stem;
},
{
place = "{71.91, 691.04}";
type = Stem;
}
);
layerId = "A9EE2906-FF39-4E72-95D8-9DA33406E6B9";
paths = (
{
closed = 1;
nodes = (
"649.53 95.36 LINE",
"762.95 737 LINE",
"637.58 737 LINE",
"534.48 153.75 LINE",
"482.75 109.87 LINE",
"238.69 110.25 LINE",
"202.32 154.25 LINE",
"305.33 737 LINE",
"179.95 737 LINE",
"71.91 125.54 LINE",
"175.12 0.37 LINE",
"537.08 -0.38 LINE"
);
},
{
closed = 1;
nodes = (
"670.5 794.25 LINE",
"686.5 884.37 LINE",
"300.5 884.37 LINE",
"284.5 794.25 LINE"
);
}
);
width = 713;
}
);
note = Umacron;
unicode = 016A;
},
{
glyphname = Uogonek;
lastChange = "2019-09-04 12:42:51 +0000";
layers = (
{
hints = (
{
horizontal = 1;
place = "{-171.63, 81.38}";
type = Stem;
},
{
horizontal = 1;
place = "{0.19, 109.87}";
type = Stem;
},
{
place = "{71.91, 691.04}";
type = Stem;
}
);
layerId = "A9EE2906-FF39-4E72-95D8-9DA33406E6B9";
paths = (
{
closed = 1;
nodes = (
"386 -171.63 LINE",
"400.37 -90.25 LINE",
"368.5 -90.25 LINE",
"351.12 -69.25 LINE",
"356.62 -38.5 LINE",
"416.06 -0.13 LINE",
"537.08 -0.38 LINE",
"649.53 95.36 LINE",
"762.95 737 LINE",
"637.58 737 LINE",
"534.48 153.75 LINE",
"482.75 109.87 LINE",
"238.69 110.25 LINE",
"202.32 154.25 LINE",
"305.33 737 LINE",
"179.95 737 LINE",
"71.91 125.54 LINE",
"175.12 0.37 LINE",
"325.49 0 LINE",
"282.6 -27.81 LINE",
"270.2 -98.13 LINE",
"330.55 -171.63 LINE"
);
}
);
width = 713;
}
);
note = Uogonek;
unicode = 0172;
},
{
glyphname = Uring;
lastChange = "2019-09-04 12:42:51 +0000";
layers = (
{
hints = (
{
horizontal = 1;
place = "{0, 110.06}";
type = Stem;
},
{
horizontal = 1;
place = "{794.25, 64.87}";
type = Stem;
},
{
horizontal = 1;
place = "{940.5, 64.87}";
type = Stem;
},
{
place = "{71.91, 691.04}";
type = Stem;
}
);
layerId = "A9EE2906-FF39-4E72-95D8-9DA33406E6B9";
paths = (
{
closed = 1;
nodes = (
"649.53 95.36 LINE",
"762.95 737 LINE",
"637.58 737 LINE",
"534.48 153.75 LINE",
"482.75 109.87 LINE",
"238.69 110.25 LINE",
"202.32 154.25 LINE",
"305.33 737 LINE",
"179.95 737 LINE",
"71.91 125.54 LINE",
"175.12 0.37 LINE",
"537.08 -0.38 LINE"
);
},
{
closed = 1;
nodes = (
"531.21 794.25 LINE",
"598.81 851.72 LINE",
"612.57 929.45 LINE",
"549.97 1005.37 LINE",
"438.73 1005.37 LINE",
"371.59 947.96 LINE",
"357.8 870.03 LINE",
"420.48 794.25 LINE"
);
},
{
closed = 1;
nodes = (
"441.87 885.5 LINE",
"446.87 914.12 LINE",
"478.12 940.5 LINE",
"506.62 940.5 LINE",
"528.37 914.12 LINE",
"523.37 885.5 LINE",
"492.25 859.12 LINE",
"463.75 859.12 LINE"
);
}
);
width = 713;
}
);
note = Uring;
unicode = 016E;
},
{
glyphname = Utilde;
lastChange = "2019-09-04 12:42:51 +0000";
layers = (
{
hints = (
{
horizontal = 1;
place = "{0, 110.06}";
type = Stem;
},
{
horizontal = 1;
place = "{860.25, 75.87}";
type = Stem;
},
{
place = "{71.91, 691.04}";
type = Stem;
},
{
horizontal = 1;
place = "{794.25, 75.87}";
type = Stem;
}
);
layerId = "A9EE2906-FF39-4E72-95D8-9DA33406E6B9";
paths = (
{
closed = 1;
nodes = (
"649.53 95.36 LINE",
"762.95 737 LINE",
"637.58 737 LINE",
"534.48 153.75 LINE",
"482.75 109.87 LINE",
"238.69 110.25 LINE",
"202.32 154.25 LINE",
"305.33 737 LINE",
"179.95 737 LINE",
"71.91 125.54 LINE",
"175.12 0.37 LINE",
"537.08 -0.38 LINE"
);
},
{
closed = 1;
nodes = (
"616.5 794.25 LINE",
"683.48 851.45 LINE",
"699.1 932.75 LINE",
"627.37 932.75 LINE",
"622.75 906.37 LINE",
"581.12 870.12 LINE",
"545.08 870.12 LINE",
"487.32 936.12 LINE",
"369.05 936.12 LINE",
"301.96 878.5 LINE",
"286.48 797.5 LINE",
"358.25 797.5 LINE",
"362.87 823.87 LINE",
"404.37 860.25 LINE",
"440.31 860.25 LINE",
"498.11 794.25 LINE"
);
}
);
width = 713;
}
);
note = Utilde;
unicode = 0168;
},
{
glyphname = V;
lastChange = "2019-09-11 16:01:28 +0000";
layers = (
{
hints = (
{
horizontal = 1;
place = "{0, 118.75}";
type = Stem;
},
{
place = "{136, 670.67}";
type = Stem;
}
);
layerId = "A9EE2906-FF39-4E72-95D8-9DA33406E6B9";
paths = (
{
closed = 1;
nodes = (
"438.92 0 LINE",
"806.67 737 LINE",
"664.17 737 LINE",
"372.1 118.75 LINE",
"347.85 118.75 LINE",
"263.98 737 LINE",
"136 737 LINE",
"249.75 0 LINE"
);
}
);
width = 687;
}
);
leftKerningGroup = V;
note = V;
rightKerningGroup = V;
unicode = 0056;
},
{
glyphname = W;
lastChange = "2019-09-11 16:01:44 +0000";
layers = (
{
hints = (
{
horizontal = 1;
place = "{0, 118.75}";
type = Stem;
},
{
place = "{541.8, 102.38}";
type = Stem;
}
);
layerId = "A9EE2906-FF39-4E72-95D8-9DA33406E6B9";
paths = (
{
closed = 1;
nodes = (
"367.76 0 LINE",
"537.61 446.25 LINE",
"546 0 LINE",
"740.12 0 LINE",
"1039.5 737 LINE",
"899.5 737 LINE",
"672.75 118.75 LINE",
"648.5 118.75 LINE",
"639.87 737 LINE",
"527.62 737 LINE",
"301 118.75 LINE",
"276.75 118.75 LINE",
"268 737 LINE",
"138 737 LINE",
"177.37 0 LINE"
);
}
);
width = 918;
}
);
leftKerningGroup = W;
note = W;
rightKerningGroup = W;
unicode = 0057;
},
{
glyphname = Wacute;
lastChange = "2019-09-04 12:42:51 +0000";
layers = (
{
hints = (
{
horizontal = 1;
place = "{0, 118.75}";
type = Stem;
},
{
horizontal = 1;
place = "{794.25, 154}";
type = Stem;
},
{
place = "{541.8, 102.38}";
type = Stem;
}
);
layerId = "A9EE2906-FF39-4E72-95D8-9DA33406E6B9";
paths = (
{
closed = 1;
nodes = (
"367.76 0 LINE",
"537.61 446.25 LINE",
"546 0 LINE",
"740.12 0 LINE",
"1039.5 737 LINE",
"899.5 737 LINE",
"672.75 118.75 LINE",
"648.5 118.75 LINE",
"639.87 737 LINE",
"527.62 737 LINE",
"301 118.75 LINE",
"276.75 118.75 LINE",
"268 737 LINE",
"138 737 LINE",
"177.37 0 LINE"
);
},
{
closed = 1;
nodes = (
"651.25 794.25 LINE",
"826.12 948.25 LINE",
"666.5 948.25 LINE",
"538.12 794.25 LINE"
);
}
);
width = 918;
}
);
leftKerningGroup = W;
note = Wacute;
rightKerningGroup = W;
unicode = 1E82;
},
{
glyphname = Wcircumflex;
lastChange = "2019-09-04 12:42:51 +0000";
layers = (
{
hints = (
{
horizontal = 1;
place = "{0, 118.75}";
type = Stem;
},
{
horizontal = 1;
place = "{794.25, 143}";
type = Stem;
},
{
place = "{541.8, 102.38}";
type = Stem;
}
);
layerId = "A9EE2906-FF39-4E72-95D8-9DA33406E6B9";
paths = (
{
closed = 1;
nodes = (
"367.76 0 LINE",
"537.61 446.25 LINE",
"546 0 LINE",
"740.12 0 LINE",
"1039.5 737 LINE",
"899.5 737 LINE",
"672.75 118.75 LINE",
"648.5 118.75 LINE",
"639.87 737 LINE",
"527.62 737 LINE",
"301 118.75 LINE",
"276.75 118.75 LINE",
"268 737 LINE",
"138 737 LINE",
"177.37 0 LINE"
);
},
{
closed = 1;
nodes = (
"526.62 794.25 LINE",
"605.75 862.37 LINE",
"660.87 794.25 LINE",
"757.59 794.25 LINE",
"672.43 937.25 LINE",
"543.96 937.25 LINE",
"420.27 794.25 LINE"
);
}
);
width = 918;
}
);
leftKerningGroup = W;
note = Wcircumflex;
rightKerningGroup = W;
unicode = 0174;
},
{
glyphname = Wdieresis;
lastChange = "2019-09-04 12:42:51 +0000";
layers = (
{
hints = (
{
horizontal = 1;
place = "{0, 118.75}";
type = Stem;
},
{
horizontal = 1;
place = "{794.25, 125.5}";
type = Stem;
},
{
place = "{541.8, 102.38}";
type = Stem;
}
);
layerId = "A9EE2906-FF39-4E72-95D8-9DA33406E6B9";
paths = (
{
closed = 1;
nodes = (
"367.76 0 LINE",
"537.61 446.25 LINE",
"546 0 LINE",
"740.12 0 LINE",
"1039.5 737 LINE",
"899.5 737 LINE",
"672.75 118.75 LINE",
"648.5 118.75 LINE",
"639.87 737 LINE",
"527.62 737 LINE",
"301 118.75 LINE",
"276.75 118.75 LINE",
"268 737 LINE",
"138 737 LINE",
"177.37 0 LINE"
);
},
{
closed = 1;
nodes = (
"520.75 794.25 LINE",
"542.87 919.75 LINE",
"421.87 919.75 LINE",
"399.75 794.25 LINE"
);
},
{
closed = 1;
nodes = (
"785.75 794.25 LINE",
"807.87 919.75 LINE",
"686.87 919.75 LINE",
"664.75 794.25 LINE"
);
}
);
width = 918;
}
);
leftKerningGroup = W;
note = Wdieresis;
rightKerningGroup = W;
unicode = 1E84;
},
{
glyphname = Wgrave;
lastChange = "2019-09-04 12:42:51 +0000";
layers = (
{
hints = (
{
horizontal = 1;
place = "{0, 118.75}";
type = Stem;
},
{
horizontal = 1;
place = "{794.25, 154}";
type = Stem;
},
{
place = "{541.8, 102.38}";
type = Stem;
}
);
layerId = "A9EE2906-FF39-4E72-95D8-9DA33406E6B9";
paths = (
{
closed = 1;
nodes = (
"367.76 0 LINE",
"537.61 446.25 LINE",
"546 0 LINE",
"740.12 0 LINE",
"1039.5 737 LINE",
"899.5 737 LINE",
"672.75 118.75 LINE",
"648.5 118.75 LINE",
"639.87 737 LINE",
"527.62 737 LINE",
"301 118.75 LINE",
"276.75 118.75 LINE",
"268 737 LINE",
"138 737 LINE",
"177.37 0 LINE"
);
},
{
closed = 1;
nodes = (
"622.37 794.25 LINE",
"548.4 948.25 LINE",
"405.62 948.25 LINE",
"524.62 794.25 LINE"
);
}
);
width = 918;
}
);
leftKerningGroup = W;
note = Wgrave;
rightKerningGroup = W;
unicode = 1E80;
},
{
glyphname = X;
lastChange = "2019-09-04 12:42:51 +0000";
layers = (
{
hints = (
{
horizontal = 1;
place = "{0, 737}";
type = Stem;
},
{
place = "{-4.29, 798.93}";
type = Stem;
},
{
horizontal = 1;
place = "{306.87, 144.13}";
type = Stem;
}
);
layerId = "A9EE2906-FF39-4E72-95D8-9DA33406E6B9";
paths = (
{
closed = 1;
nodes = (
"153 0 LINE",
"373.25 306.87 LINE",
"397.5 306.87 LINE",
"509.5 0 LINE",
"643.53 0 LINE",
"504.18 363.99 LINE",
"794.64 737 LINE",
"638.37 737 LINE",
"422.87 451 LINE",
"398.62 451 LINE",
"284.12 737 LINE",
"151.12 737 LINE",
"292.61 399.67 LINE",
"-4.29 0 LINE"
);
}
);
width = 665;
}
);
leftKerningGroup = X;
note = X;
rightKerningGroup = X;
unicode = 0058;
},
{
glyphname = Y;
lastChange = "2019-09-04 12:42:51 +0000";
layers = (
{
hints = (
{
horizontal = 1;
place = "{0, 737}";
type = Stem;
},
{
place = "{145, 641.25}";
type = Stem;
}
);
layerId = "A9EE2906-FF39-4E72-95D8-9DA33406E6B9";
paths = (
{
closed = 1;
nodes = (
"393.87 0 LINE",
"438.85 260.91 LINE",
"786.25 737 LINE",
"630.25 737 LINE",
"415.37 414.75 LINE",
"391.12 414.75 LINE",
"278 737 LINE",
"145 737 LINE",
"317.6 288.39 LINE",
"266.37 0 LINE"
);
}
);
width = 660;
}
);
leftKerningGroup = Y;
note = Y;
rightKerningGroup = Y;
unicode = 0059;
},
{
glyphname = Yacute;
lastChange = "2019-09-04 12:42:51 +0000";
layers = (
{
hints = (
{
horizontal = 1;
place = "{794.25, 154}";
type = Stem;
},
{
place = "{145, 641.25}";
type = Stem;
}
);
layerId = "A9EE2906-FF39-4E72-95D8-9DA33406E6B9";
paths = (
{
closed = 1;
nodes = (
"393.87 0 LINE",
"438.85 260.91 LINE",
"786.25 737 LINE",
"630.25 737 LINE",
"415.37 414.75 LINE",
"391.12 414.75 LINE",
"278 737 LINE",
"145 737 LINE",
"317.6 288.39 LINE",
"266.37 0 LINE"
);
},
{
closed = 1;
nodes = (
"527.62 794.25 LINE",
"702.5 948.25 LINE",
"542.87 948.25 LINE",
"414.5 794.25 LINE"
);
}
);
width = 660;
}
);
leftKerningGroup = Y;
note = Yacute;
rightKerningGroup = Y;
unicode = 00DD;
},
{
glyphname = Ycircumflex;
lastChange = "2019-09-04 12:42:51 +0000";
layers = (
{
hints = (
{
horizontal = 1;
place = "{794.25, 143}";
type = Stem;
},
{
place = "{145, 641.25}";
type = Stem;
}
);
layerId = "A9EE2906-FF39-4E72-95D8-9DA33406E6B9";
paths = (
{
closed = 1;
nodes = (
"393.87 0 LINE",
"438.85 260.91 LINE",
"786.25 737 LINE",
"630.25 737 LINE",
"415.37 414.75 LINE",
"391.12 414.75 LINE",
"278 737 LINE",
"145 737 LINE",
"317.6 288.39 LINE",
"266.37 0 LINE"
);
},
{
closed = 1;
nodes = (
"403 794.25 LINE",
"482.12 862.37 LINE",
"537.25 794.25 LINE",
"633.97 794.25 LINE",
"548.81 937.25 LINE",
"420.34 937.25 LINE",
"296.65 794.25 LINE"
);
}
);
width = 660;
}
);
leftKerningGroup = Y;
note = Ycircumflex;
rightKerningGroup = Y;
unicode = 0176;
},
{
glyphname = Ydieresis;
lastChange = "2019-09-04 12:42:51 +0000";
layers = (
{
hints = (
{
horizontal = 1;
place = "{794.25, 125.5}";
type = Stem;
},
{
place = "{145, 641.25}";
type = Stem;
}
);
layerId = "A9EE2906-FF39-4E72-95D8-9DA33406E6B9";
paths = (
{
closed = 1;
nodes = (
"393.87 0 LINE",
"438.85 260.91 LINE",
"786.25 737 LINE",
"630.25 737 LINE",
"415.37 414.75 LINE",
"391.12 414.75 LINE",
"278 737 LINE",
"145 737 LINE",
"317.6 288.39 LINE",
"266.37 0 LINE"
);
},
{
closed = 1;
nodes = (
"397.12 794.25 LINE",
"419.25 919.75 LINE",
"298.25 919.75 LINE",
"276.12 794.25 LINE"
);
},
{
closed = 1;
nodes = (
"662.12 794.25 LINE",
"684.25 919.75 LINE",
"563.25 919.75 LINE",
"541.12 794.25 LINE"
);
}
);
width = 660;
}
);
leftKerningGroup = Y;
note = Ydieresis;
rightKerningGroup = Y;
unicode = 0178;
},
{
glyphname = uni1EF4;
lastChange = "2019-09-04 12:42:51 +0000";
layers = (
{
hints = (
{
horizontal = 1;
place = "{-182.63, 125.38}";
type = Stem;
},
{
place = "{145, 641.25}";
type = Stem;
}
);
layerId = "A9EE2906-FF39-4E72-95D8-9DA33406E6B9";
paths = (
{
closed = 1;
nodes = (
"393.87 0 LINE",
"438.85 260.91 LINE",
"786.25 737 LINE",
"630.25 737 LINE",
"415.37 414.75 LINE",
"391.12 414.75 LINE",
"278 737 LINE",
"145 737 LINE",
"317.6 288.39 LINE",
"266.37 0 LINE"
);
},
{
closed = 1;
nodes = (
"358.82 -182.63 LINE",
"380.95 -57.25 LINE",
"259.95 -57.25 LINE",
"237.82 -182.63 LINE"
);
}
);
width = 660;
}
);
leftKerningGroup = Y;
note = uni1EF4;
rightKerningGroup = Y;
unicode = 1EF4;
},
{
glyphname = Ygrave;
lastChange = "2019-09-04 12:42:51 +0000";
layers = (
{
hints = (
{
horizontal = 1;
place = "{794.25, 154}";
type = Stem;
},
{
place = "{145, 641.25}";
type = Stem;
}
);
layerId = "A9EE2906-FF39-4E72-95D8-9DA33406E6B9";
paths = (
{
closed = 1;
nodes = (
"393.87 0 LINE",
"438.85 260.91 LINE",
"786.25 737 LINE",
"630.25 737 LINE",
"415.37 414.75 LINE",
"391.12 414.75 LINE",
"278 737 LINE",
"145 737 LINE",
"317.6 288.39 LINE",
"266.37 0 LINE"
);
},
{
closed = 1;
nodes = (
"498.74 794.25 LINE",
"424.77 948.25 LINE",
"281.99 948.25 LINE",
"400.99 794.25 LINE"
);
}
);
width = 660;
}
);
leftKerningGroup = Y;
note = Ygrave;
rightKerningGroup = Y;
unicode = 1EF2;
},
{
glyphname = uni1EF6;
lastChange = "2019-09-04 12:42:51 +0000";
layers = (
{
hints = (
{
horizontal = 1;
place = "{939, 71}";
type = Stem;
},
{
place = "{145, 641.25}";
type = Stem;
}
);
layerId = "A9EE2906-FF39-4E72-95D8-9DA33406E6B9";
paths = (
{
closed = 1;
nodes = (
"393.87 0 LINE",
"438.85 260.91 LINE",
"786.25 737 LINE",
"630.25 737 LINE",
"415.37 414.75 LINE",
"391.12 414.75 LINE",
"278 737 LINE",
"145 737 LINE",
"317.6 288.39 LINE",
"266.37 0 LINE"
);
},
{
closed = 1;
nodes = (
"507.25 794.25 LINE",
"512.18 822.22 LINE",
"593.44 876.11 LINE",
"606.5 950.19 LINE",
"558.21 1010 LINE",
"441.4 1010 LINE",
"386.5 963.94 LINE",
"436 903.37 LINE",
"478.5 939 LINE",
"509.09 939 LINE",
"515.78 930.87 LINE",
"513 915.37 LINE",
"439.12 863.37 LINE",
"426.87 794.25 LINE"
);
}
);
width = 660;
}
);
leftKerningGroup = Y;
note = uni1EF6;
rightKerningGroup = Y;
unicode = 1EF6;
},
{
glyphname = uni0232;
lastChange = "2019-09-04 12:42:51 +0000";
layers = (
{
hints = (
{
horizontal = 1;
place = "{794.25, 90.12}";
type = Stem;
},
{
place = "{145, 641.25}";
type = Stem;
}
);
layerId = "A9EE2906-FF39-4E72-95D8-9DA33406E6B9";
paths = (
{
closed = 1;
nodes = (
"393.87 0 LINE",
"438.85 260.91 LINE",
"786.25 737 LINE",
"630.25 737 LINE",
"415.37 414.75 LINE",
"391.12 414.75 LINE",
"278 737 LINE",
"145 737 LINE",
"317.6 288.39 LINE",
"266.37 0 LINE"
);
},
{
closed = 1;
nodes = (
"663.12 794.25 LINE",
"679.12 884.37 LINE",
"293.12 884.37 LINE",
"277.12 794.25 LINE"
);
}
);
width = 660;
}
);
leftKerningGroup = Y;
note = uni0232;
rightKerningGroup = Y;
unicode = 0232;
},
{
glyphname = uni1EF8;
lastChange = "2019-09-04 12:42:51 +0000";
layers = (
{
hints = (
{
horizontal = 1;
place = "{860.25, 75.87}";
type = Stem;
},
{
place = "{145, 641.25}";
type = Stem;
},
{
horizontal = 1;
place = "{794.25, 75.87}";
type = Stem;
}
);
layerId = "A9EE2906-FF39-4E72-95D8-9DA33406E6B9";
paths = (
{
closed = 1;
nodes = (
"393.87 0 LINE",
"438.85 260.91 LINE",
"786.25 737 LINE",
"630.25 737 LINE",
"415.37 414.75 LINE",
"391.12 414.75 LINE",
"278 737 LINE",
"145 737 LINE",
"317.6 288.39 LINE",
"266.37 0 LINE"
);
},
{
closed = 1;
nodes = (
"609.13 794.25 LINE",
"676.1 851.45 LINE",
"691.73 932.75 LINE",
"620 932.75 LINE",
"615.37 906.37 LINE",
"573.75 870.12 LINE",
"537.7 870.12 LINE",
"479.94 936.12 LINE",
"361.67 936.12 LINE",
"294.59 878.5 LINE",
"279.11 797.5 LINE",
"350.87 797.5 LINE",
"355.5 823.87 LINE",
"397 860.25 LINE",
"432.93 860.25 LINE",
"490.73 794.25 LINE"
);
}
);
width = 660;
}
);
leftKerningGroup = Y;
note = uni1EF8;
rightKerningGroup = Y;
unicode = 1EF8;
},
{
glyphname = Z;
lastChange = "2019-09-04 12:42:51 +0000";
layers = (
{
hints = (
{
horizontal = 1;
place = "{0, 114.37}";
type = Stem;
},
{
horizontal = 1;
place = "{622.62, 114.38}";
type = Stem;
},
{
place = "{60, 668}";
type = Stem;
}
);
layerId = "A9EE2906-FF39-4E72-95D8-9DA33406E6B9";
paths = (
{
closed = 1;
nodes = (
"598 0 LINE",
"618.12 114.37 LINE",
"247.37 114.37 LINE",
"251.75 138.62 LINE",
"707.75 622.62 LINE",
"728 737 LINE",
"212 737 LINE",
"191.75 622.62 LINE",
"528.75 622.62 LINE",
"524.5 598.37 LINE",
"82.9 131.41 LINE",
"60 0 LINE"
);
}
);
width = 658;
}
);
leftKerningGroup = Z;
note = Z;
rightKerningGroup = Z;
unicode = 005A;
},
{
glyphname = Zacute;
lastChange = "2019-09-04 12:42:51 +0000";
layers = (
{
hints = (
{
horizontal = 1;
place = "{0, 114.37}";
type = Stem;
},
{
horizontal = 1;
place = "{622.62, 114.38}";
type = Stem;
},
{
horizontal = 1;
place = "{794.25, 154}";
type = Stem;
},
{
place = "{60, 668}";
type = Stem;
}
);
layerId = "A9EE2906-FF39-4E72-95D8-9DA33406E6B9";
paths = (
{
closed = 1;
nodes = (
"598 0 LINE",
"618.12 114.37 LINE",
"247.37 114.37 LINE",
"251.75 138.62 LINE",
"707.75 622.62 LINE",
"728 737 LINE",
"212 737 LINE",
"191.75 622.62 LINE",
"528.75 622.62 LINE",
"524.5 598.37 LINE",
"82.9 131.41 LINE",
"60 0 LINE"
);
},
{
closed = 1;
nodes = (
"548 794.25 LINE",
"722.87 948.25 LINE",
"563.25 948.25 LINE",
"434.87 794.25 LINE"
);
}
);
width = 658;
}
);
leftKerningGroup = Z;
note = Zacute;
rightKerningGroup = Z;
unicode = 0179;
},
{
glyphname = Zcaron;
lastChange = "2019-09-04 12:42:51 +0000";
layers = (
{
hints = (
{
horizontal = 1;
place = "{0, 114.37}";
type = Stem;
},
{
horizontal = 1;
place = "{622.62, 114.38}";
type = Stem;
},
{
horizontal = 1;
place = "{794.25, 143}";
type = Stem;
},
{
place = "{60, 668}";
type = Stem;
}
);
layerId = "A9EE2906-FF39-4E72-95D8-9DA33406E6B9";
paths = (
{
closed = 1;
nodes = (
"598 0 LINE",
"618.12 114.37 LINE",
"247.37 114.37 LINE",
"251.75 138.62 LINE",
"707.75 622.62 LINE",
"728 737 LINE",
"212 737 LINE",
"191.75 622.62 LINE",
"528.75 622.62 LINE",
"524.5 598.37 LINE",
"82.9 131.41 LINE",
"60 0 LINE"
);
},
{
closed = 1;
nodes = (
"551.01 794.25 LINE",
"674.7 937.25 LINE",
"568.35 937.25 LINE",
"489.23 869.12 LINE",
"434.1 937.25 LINE",
"337.38 937.25 LINE",
"422.54 794.25 LINE"
);
}
);
width = 658;
}
);
leftKerningGroup = Z;
note = Zcaron;
rightKerningGroup = Z;
unicode = 017D;
},
{
glyphname = Zdotaccent;
lastChange = "2019-09-04 12:42:51 +0000";
layers = (
{
hints = (
{
horizontal = 1;
place = "{0, 114.37}";
type = Stem;
},
{
horizontal = 1;
place = "{622.62, 114.38}";
type = Stem;
},
{
horizontal = 1;
place = "{794.25, 125.37}";
type = Stem;
},
{
place = "{60, 668}";
type = Stem;
}
);
layerId = "A9EE2906-FF39-4E72-95D8-9DA33406E6B9";
paths = (
{
closed = 1;
nodes = (
"598 0 LINE",
"618.12 114.37 LINE",
"247.37 114.37 LINE",
"251.75 138.62 LINE",
"707.75 622.62 LINE",
"728 737 LINE",
"212 737 LINE",
"191.75 622.62 LINE",
"528.75 622.62 LINE",
"524.5 598.37 LINE",
"82.9 131.41 LINE",
"60 0 LINE"
);
},
{
closed = 1;
nodes = (
"551 794.25 LINE",
"573.12 919.62 LINE",
"452.12 919.62 LINE",
"430 794.25 LINE"
);
}
);
width = 658;
}
);
leftKerningGroup = Z;
note = Zdotaccent;
rightKerningGroup = Z;
unicode = 017B;
},
{
glyphname = a;
lastChange = "2019-09-04 12:42:51 +0000";
layers = (
{
hints = (
{
horizontal = 1;
place = "{0, 93.38}";
type = Stem;
},
{
horizontal = 1;
place = "{241.85, 93.65}";
type = Stem;
},
{
horizontal = 1;
place = "{423.63, 98.87}";
type = Stem;
},
{
place = "{69.62, 534.72}";
type = Stem;
}
);
layerId = "A9EE2906-FF39-4E72-95D8-9DA33406E6B9";
paths = (
{
closed = 1;
nodes = (
"337 0 LINE",
"427.39 76.3 LINE",
"414 0 LINE",
"535 0 LINE",
"604.34 393.53 LINE",
"497.98 522.5 LINE",
"211.37 522.5 LINE",
"193.87 423.5 LINE",
"444.75 423.75 LINE",
"480.62 379.5 LINE",
"472.9 335.5 LINE",
"206.44 335.5 LINE",
"91.65 237.93 LINE",
"69.62 111.12 LINE",
"161 0 LINE"
);
},
{
closed = 1;
nodes = (
"195.37 137.5 LINE",
"205.5 198 LINE",
"257.62 241.75 LINE",
"456.47 241.94 LINE",
"448.92 198.94 LINE",
"325 93.5 LINE",
"231.37 93.25 LINE"
);
}
);
width = 605;
}
);
leftKerningGroup = a;
note = a;
rightKerningGroup = a;
unicode = 0061;
},
{
glyphname = aacute;
lastChange = "2019-09-04 12:42:51 +0000";
layers = (
{
hints = (
{
horizontal = 1;
place = "{0, 93.38}";
type = Stem;
},
{
horizontal = 1;
place = "{241.85, 93.65}";
type = Stem;
},
{
horizontal = 1;
place = "{423.63, 98.87}";
type = Stem;
},
{
horizontal = 1;
place = "{579.75, 154}";
type = Stem;
},
{
place = "{69.62, 570.38}";
type = Stem;
}
);
layerId = "A9EE2906-FF39-4E72-95D8-9DA33406E6B9";
paths = (
{
closed = 1;
nodes = (
"337 0 LINE",
"427.39 76.3 LINE",
"414 0 LINE",
"535 0 LINE",
"604.34 393.53 LINE",
"497.98 522.5 LINE",
"211.37 522.5 LINE",
"193.87 423.5 LINE",
"444.75 423.75 LINE",
"480.62 379.5 LINE",
"472.9 335.5 LINE",
"206.44 335.5 LINE",
"91.65 237.93 LINE",
"69.62 111.12 LINE",
"161 0 LINE"
);
},
{
closed = 1;
nodes = (
"195.37 137.5 LINE",
"205.5 198 LINE",
"257.62 241.75 LINE",
"456.47 241.94 LINE",
"448.92 198.94 LINE",
"325 93.5 LINE",
"231.37 93.25 LINE"
);
},
{
closed = 1;
nodes = (
"465.12 579.75 LINE",
"640 733.75 LINE",
"480.37 733.75 LINE",
"352 579.75 LINE"
);
}
);
width = 605;
}
);
leftKerningGroup = a;
note = aacute;
rightKerningGroup = a;
unicode = 00E1;
},
{
glyphname = abreve;
lastChange = "2019-09-04 12:42:51 +0000";
layers = (
{
hints = (
{
horizontal = 1;
place = "{0, 93.38}";
type = Stem;
},
{
horizontal = 1;
place = "{241.85, 93.65}";
type = Stem;
},
{
horizontal = 1;
place = "{423.63, 98.87}";
type = Stem;
},
{
horizontal = 1;
place = "{579.71, 78.04}";
type = Stem;
},
{
place = "{69.62, 534.72}";
type = Stem;
},
{
horizontal = 1;
place = "{678.75, 44}";
type = Stem;
}
);
layerId = "A9EE2906-FF39-4E72-95D8-9DA33406E6B9";
paths = (
{
closed = 1;
nodes = (
"337 0 LINE",
"427.39 76.3 LINE",
"414 0 LINE",
"535 0 LINE",
"604.34 393.53 LINE",
"497.98 522.5 LINE",
"211.37 522.5 LINE",
"193.87 423.5 LINE",
"444.75 423.75 LINE",
"480.62 379.5 LINE",
"472.9 335.5 LINE",
"206.44 335.5 LINE",
"91.65 237.93 LINE",
"69.62 111.12 LINE",
"161 0 LINE"
);
},
{
closed = 1;
nodes = (
"195.37 137.5 LINE",
"205.5 198 LINE",
"257.62 241.75 LINE",
"456.47 241.94 LINE",
"448.92 198.94 LINE",
"325 93.5 LINE",
"231.37 93.25 LINE"
);
},
{
closed = 1;
nodes = (
"490.92 579.75 LINE",
"560.8 638.68 LINE",
"575.62 722.75 LINE",
"495.25 722.75 LINE",
"487.5 678.75 LINE",
"462.87 657.75 LINE",
"363.87 657.75 LINE",
"346.75 678.75 LINE",
"354.5 722.75 LINE",
"274.12 722.75 LINE",
"262.66 657.75 LINE",
"327.7 579.67 LINE"
);
}
);
width = 605;
}
);
leftKerningGroup = a;
note = abreve;
rightKerningGroup = a;
unicode = 0103;
},
{
glyphname = uni1EAF;
lastChange = "2019-09-04 12:42:51 +0000";
layers = (
{
hints = (
{
horizontal = 1;
place = "{0, 93.38}";
type = Stem;
},
{
horizontal = 1;
place = "{241.85, 93.65}";
type = Stem;
},
{
horizontal = 1;
place = "{423.63, 98.87}";
type = Stem;
},
{
horizontal = 1;
place = "{579.71, 78.04}";
type = Stem;
},
{
horizontal = 1;
place = "{753.12, 154}";
type = Stem;
},
{
place = "{69.62, 593.63}";
type = Stem;
},
{
horizontal = 1;
place = "{678.75, 44}";
type = Stem;
}
);
layerId = "A9EE2906-FF39-4E72-95D8-9DA33406E6B9";
paths = (
{
closed = 1;
nodes = (
"337 0 LINE",
"427.39 76.3 LINE",
"414 0 LINE",
"535 0 LINE",
"604.34 393.53 LINE",
"497.98 522.5 LINE",
"211.37 522.5 LINE",
"193.87 423.5 LINE",
"444.75 423.75 LINE",
"480.62 379.5 LINE",
"472.9 335.5 LINE",
"206.44 335.5 LINE",
"91.65 237.93 LINE",
"69.62 111.12 LINE",
"161 0 LINE"
);
},
{
closed = 1;
nodes = (
"195.37 137.5 LINE",
"205.5 198 LINE",
"257.62 241.75 LINE",
"456.47 241.94 LINE",
"448.92 198.94 LINE",
"325 93.5 LINE",
"231.37 93.25 LINE"
);
},
{
closed = 1;
nodes = (
"490.93 579.75 LINE",
"560.81 638.68 LINE",
"575.62 722.75 LINE",
"495.25 722.75 LINE",
"487.5 678.75 LINE",
"462.87 657.75 LINE",
"363.87 657.75 LINE",
"346.75 678.75 LINE",
"354.5 722.75 LINE",
"274.12 722.75 LINE",
"262.67 657.75 LINE",
"327.7 579.67 LINE"
);
},
{
closed = 1;
nodes = (
"488.37 753.12 LINE",
"663.25 907.12 LINE",
"503.62 907.12 LINE",
"375.25 753.12 LINE"
);
}
);
width = 605;
}
);
leftKerningGroup = a;
note = uni1EAF;
rightKerningGroup = a;
unicode = 1EAF;
},
